<?xml version="1.0" encoding="UTF-8"?>
<svg version="1.1" xmlns="http://www.w3.org/2000/svg" width="512" height="512">
<path d="M0 0 C168.96 0 337.92 0 512 0 C512 168.96 512 337.92 512 512 C343.04 512 174.08 512 0 512 C0 343.04 0 174.08 0 0 Z " fill="#FEFDFD" transform="translate(0,0)"/>
<path d="M0 0 C168.96 0 337.92 0 512 0 C512 168.96 512 337.92 512 512 C343.04 512 174.08 512 0 512 C0 343.04 0 174.08 0 0 Z M66 61 C65.1028125 61.8146875 64.205625 62.629375 63.28125 63.46875 C36.33155708 89.08759389 32.01683959 123.75729383 30.93694878 159.06128216 C30.68906262 169.35121827 30.71420756 179.6455317 30.73134899 189.93774366 C30.73653175 194.04521886 30.73168569 198.15268666 30.72857666 202.26016235 C30.72497752 209.1327682 30.72963379 216.0053305 30.73925781 222.87792969 C30.75019562 230.77910128 30.74656198 238.68017002 30.735605 246.58133924 C30.72648786 253.4356137 30.72526656 260.2898575 30.73048234 267.14413607 C30.73357006 271.20806033 30.73409973 275.27193639 30.72740936 279.33585739 C30.72156904 283.14637836 30.72575286 286.95676787 30.73719788 290.76727486 C30.74103482 292.80257622 30.73522096 294.83788891 30.72894287 296.8731842 C30.86251083 326.46003643 38.85547035 352.25336372 58 375 C58.55429687 375.69351562 59.10859375 376.38703125 59.6796875 377.1015625 C77.73253285 399.25289165 105.36303382 410.06216963 133 413 C141.860354 413.6408834 150.74648102 413.82819707 159.625 414.0625 C163.11410985 414.15849284 166.60294857 414.25820727 170.09164429 414.36827087 C172.24066659 414.43578992 174.38995906 414.49537822 176.53945923 414.54542542 C186.80846683 414.86225534 195.06216626 416.14173106 203 423 C209.53393551 430.69061467 214.60616554 439.13563945 219.5 447.9375 C229.52775654 467.91267199 229.52775654 467.91267199 246.87890625 480.62109375 C255.72266972 482.2009189 264.20022657 481.54079773 272 477 C278.14965309 471.94448455 282.09153931 466.07684363 285.8125 459.125 C286.84304961 457.267117 287.87564275 455.41036623 288.91015625 453.5546875 C289.42336426 452.6275293 289.93657227 451.70037109 290.46533203 450.74511719 C306.87433122 421.39373525 306.87433122 421.39373525 320.71948242 415.92602539 C324.47383384 414.86624606 327.99454045 414.66738799 331.86328125 414.62109375 C332.98865547 414.59560204 332.98865547 414.59560204 334.13676453 414.56959534 C336.52859125 414.51681795 338.920412 414.47646855 341.3125 414.4375 C344.43369664 414.37825521 347.55475759 414.31382194 350.67578125 414.24609375 C351.44513504 414.22949203 352.21448883 414.21289032 353.00715637 414.19578552 C358.46893441 414.06591096 363.92044683 413.84026519 369.375 413.53125 C370.42395195 413.47408058 370.42395195 413.47408058 371.49409485 413.41575623 C375.70224179 413.15976781 379.64199138 412.60349359 383.7109375 411.52734375 C386.72326689 410.83337708 389.74496269 410.50259446 392.8125 410.125 C418.77730735 406.45938014 441.90628025 390.36547612 458.1875 370.3046875 C459.90366015 367.92198301 461.47554019 365.50925296 463 363 C463.88751953 361.56720703 463.88751953 361.56720703 464.79296875 360.10546875 C466.59969432 357.10453225 468.32019202 354.0736055 470 351 C470.46535156 350.15050781 470.93070312 349.30101562 471.41015625 348.42578125 C483.45269321 324.37753467 481.31567631 294.15091156 481.26865101 268.04955888 C481.26347014 264.25290065 481.26831553 260.45625044 481.27142334 256.65959167 C481.27503094 250.28663362 481.27035168 243.91372238 481.26074219 237.54077148 C481.24988747 230.25970812 481.25337466 222.97875711 481.264395 215.69769651 C481.27358901 209.3604965 481.27469447 203.02332953 481.26951766 196.68612498 C481.26646027 192.93914157 481.26580938 189.19221017 481.27259064 185.44523048 C481.29570825 170.58814354 481.09257097 155.77630863 480.10839844 140.94799805 C480.03095524 139.75810933 479.95351204 138.56822062 479.87372208 137.34227467 C479.42736604 131.32863555 478.65087065 125.79877093 477 120 C476.68452309 118.08710824 476.39082109 116.17042175 476.125 114.25 C471.87149944 88.20548886 455.15063073 66.69432106 434.3046875 51.3515625 C399.13693745 26.09194377 350.82999025 30.68093293 309.69107056 30.73134899 C304.15081606 30.73650175 298.61056734 30.73169286 293.0703125 30.72857666 C283.78498115 30.72496593 274.49968191 30.72966176 265.21435547 30.73925781 C254.5407216 30.75016251 243.86716405 30.7465904 233.19353199 30.735605 C223.95019034 30.72647964 214.70687143 30.72527157 205.46352673 30.73048234 C199.97696369 30.73357008 194.49043635 30.73410039 189.00387573 30.72740936 C183.84890159 30.72155834 178.69402444 30.72577179 173.53906059 30.73719788 C171.66803586 30.73980247 169.7970027 30.73915323 167.92598152 30.73467255 C130.11545977 30.65259082 94.75616422 34.51405927 66 61 Z " fill="#E54E15" transform="translate(0,0)"/>
<path d="M0 0 C0.66 0 1.32 0 2 0 C2.046438 13.76107506 2.0819274 27.52213133 2.10362434 41.28326893 C2.11404027 47.67381887 2.12815943 54.064315 2.15087891 60.45483398 C2.17268543 66.62751987 2.18458509 72.80015415 2.18975449 78.9728756 C2.19343624 81.32226053 2.20062565 83.67164279 2.21146011 86.02100563 C2.22607878 89.32371647 2.22797361 92.62621684 2.22705078 95.92895508 C2.23424133 96.88993607 2.24143188 97.85091705 2.24884033 98.84101868 C2.19608132 116.40803055 -4.08847586 131.93696563 -16.25 144.75 C-26.40320801 154.38606669 -38.77746484 161.12345951 -53 161 C-53.66 160.67 -54.32 160.34 -55 160 C-55 136.57 -55 113.14 -55 89 C-66.73220335 91.87060775 -66.73220335 91.87060775 -78 96 C-78.83660156 96.37382812 -79.67320312 96.74765625 -80.53515625 97.1328125 C-92.65139038 103.09720342 -101.21454702 112.37683398 -106 125 C-106.25082242 125.63977972 -106.50164484 126.27955944 -106.76006794 126.93872643 C-109.5249483 134.86392305 -109.44189003 142.72246623 -109.43237305 151.00634766 C-109.4414041 152.60386913 -109.45173459 154.20138371 -109.46325684 155.79888916 C-109.49069534 160.10809554 -109.50009336 164.41716997 -109.50611091 168.72645235 C-109.51552901 173.24016266 -109.54173505 177.75377572 -109.56611633 182.26742554 C-109.60969083 190.80232122 -109.63829328 199.33719794 -109.66143972 207.87217081 C-109.68854004 217.59416033 -109.73244849 227.31605158 -109.77772844 237.03797078 C-109.87044501 257.0252609 -109.94218507 277.01258044 -110 297 C-124.29631589 294.53105651 -138.84552169 277.64351279 -146.94140625 266.2734375 C-153.14549192 256.75961282 -157.57167421 247.2491176 -160.625 236.3125 C-161.0749231 234.72223999 -161.0749231 234.72223999 -161.53393555 233.09985352 C-170.71566772 200.14062713 -176.15513135 153.20225386 -162.9765625 120.45703125 C-161.9001001 117.74865186 -161.40663067 115.17656662 -160.875 112.3125 C-155.29486216 87.48370488 -139.14151485 64.90783216 -117.875 51.1875 C-111.23302416 47.00712391 -104.56498372 43.3793053 -97.14892578 40.76220703 C-95.80156407 40.28430845 -94.45963177 39.79048671 -93.12670898 39.27368164 C-86.23806868 36.73708555 -79.25553061 35.90164171 -72 35 C-69.4033996 34.65549668 -66.80704285 34.30915176 -64.2109375 33.9609375 C-62.34453613 33.7129541 -62.34453613 33.7129541 -60.44042969 33.45996094 C-44.33300622 31.30651318 -29.06864304 28.32522561 -16 18 C-14.86304688 17.10667969 -14.86304688 17.10667969 -13.703125 16.1953125 C-8.63902385 11.96389912 -4.95358098 7.46850537 -1.41015625 1.90625 C-0.94480469 1.2771875 -0.47945312 0.648125 0 0 Z " fill="#E55910" transform="translate(293,47)"/>
<path d="M0 0 C21.26102929 8.25754351 37.50348424 29.50644066 46.6875 49.5625 C49.88094512 57.59449832 51.59891948 66.09321265 53.45214844 74.51318359 C53.93750138 76.71630528 54.43784632 78.91517452 54.9453125 81.11328125 C57.1899667 91.08346861 58.14619277 100.80985495 58.2734375 111.01953125 C58.28592026 111.94846695 58.29840302 112.87740265 58.31126404 113.83448792 C58.60411903 140.86313174 57.3569156 166.33086155 48 192 C47.69578125 192.94746094 47.3915625 193.89492188 47.078125 194.87109375 C42.83393511 207.69673776 36.11838811 219.05530327 27 229 C26.5673584 229.4856543 26.1347168 229.97130859 25.68896484 230.47167969 C6.87695044 251.43075405 -19.56035292 260.46856093 -47 263.375 C-66.75604159 265.66121737 -83.96492845 269.01388693 -99 283 C-99.66 283 -100.32 283 -101 283 C-101.2578125 283.56460937 -101.515625 284.12921875 -101.78125 284.7109375 C-103.13276986 287.24936904 -104.7189739 289.3685305 -106.5 291.625 C-107.1084375 292.40101563 -107.716875 293.17703125 -108.34375 293.9765625 C-110 296 -110 296 -112 298 C-112.04679584 283.40481196 -112.08202593 268.8096339 -112.10362434 254.21438599 C-112.11392103 247.4370065 -112.12795049 240.65967372 -112.15087891 233.88232422 C-112.17300132 227.34007951 -112.18457395 220.79786507 -112.18975449 214.25558472 C-112.19344575 211.76137529 -112.20065384 209.26716848 -112.21146011 206.77297974 C-112.22600788 203.27567844 -112.22797654 199.77857675 -112.22705078 196.28125 C-112.23424133 195.25337875 -112.24143188 194.22550751 -112.24884033 193.16648865 C-112.22288442 184.08634011 -110.392915 176.9365331 -106 169 C-105.61328125 168.23945313 -105.2265625 167.47890625 -104.828125 166.6953125 C-98.82306163 155.63893111 -89.30326289 146.50578289 -78 141 C-77.20078125 140.59007812 -76.4015625 140.18015625 -75.578125 139.7578125 C-68.36366497 136.42629433 -64.73844289 137 -56 137 C-56 160.43 -56 183.86 -56 208 C-40.11732578 204.34176141 -40.11732578 204.34176141 -26.0625 197.75 C-23 196 -23 196 -21 196 C-21 195.34 -21 194.68 -21 194 C-19.989375 193.175 -18.97875 192.35 -17.9375 191.5 C-7.37117225 182.6875971 -2.67520258 170.31819593 -1 157 C-0.71105989 151.77895447 -0.68842011 146.56609925 -0.68115234 141.33911133 C-0.67183537 139.79070523 -0.66166412 138.24230408 -0.65071106 136.69390869 C-0.62359619 132.5232159 -0.60831709 128.35255654 -0.59528303 124.18179917 C-0.57957077 119.81091403 -0.55280669 115.44009633 -0.5272522 111.06925964 C-0.48060694 102.80710634 -0.44379419 94.54494015 -0.41057932 86.28272313 C-0.37225677 76.87027151 -0.3228734 67.45788788 -0.27259517 58.04549372 C-0.16948749 38.69704568 -0.08015876 19.34855605 0 0 Z " fill="#E2401C" transform="translate(339,92)"/>
<path d="M0 0 C7.12608999 0.29754029 12.6672508 1.71125344 19 5 C19 5.66 19 6.32 19 7 C19.53625 7.103125 20.0725 7.20625 20.625 7.3125 C23.62502044 8.18092697 26.2379535 9.55620296 29 11 C29 11.66 29 12.32 29 13 C29.763125 13.268125 30.52625 13.53625 31.3125 13.8125 C33.97986571 14.99110345 35.02522228 15.94984909 37 18 C38.0768608 18.9036035 39.16053792 19.79913022 40.25 20.6875 C44.9090418 24.65264196 50.03442693 29.1032808 52 35 C52.66 35 53.32 35 54 35 C54.36351562 35.67804688 54.72703125 36.35609375 55.1015625 37.0546875 C57.6735781 41.81621382 60.28819833 46.49192168 63.1875 51.0625 C65.65370706 55.12146578 67.13720282 58.98755591 68.3515625 63.56640625 C68.98114354 65.92923148 69.7447485 68.19653165 70.5625 70.5 C73.48433565 79.29610209 74.31066007 87.95025734 74.75390625 97.16796875 C74.9276109 100.86060657 74.9276109 100.86060657 75.48074341 103.91929626 C76.31399549 109.61649517 76.37067821 115.37630364 76.55419922 121.12329102 C76.59630964 122.40287217 76.63842007 123.68245333 76.68180656 125.00080967 C77.09949104 138.67600572 77.14536719 152.34665236 77.1328125 166.02734375 C77.13348902 168.68762772 77.13446113 171.34791034 77.13571167 174.00819397 C77.13750555 179.51970942 77.13519772 185.03121125 77.13037109 190.54272461 C77.12489294 196.87042882 77.12672795 203.19810097 77.1321975 209.52580446 C77.13676051 215.03059915 77.13736488 220.5353843 77.13475883 226.04018027 C77.13321868 229.29754941 77.13334664 232.55490054 77.13629532 235.81226921 C77.16016039 269.51951883 77.16016039 269.51951883 75 276 C74.69116784 279.64593517 74.49041441 283.29240545 74.28125 286.9453125 C74 290 74 290 73 291 C72.9175 291.928125 72.835 292.85625 72.75 293.8125 C72.01362374 299.57286266 69.31413402 304.73211106 67 310 C66.49939092 311.27059353 65.99926672 312.54137841 65.5 313.8125 C64.00247498 316.99474068 62.27852631 319.58311464 60.18359375 322.38671875 C58.89041648 324.09301989 58.89041648 324.09301989 57.5625 326.4375 C53.94063767 332.37735422 49.70939663 337.48509155 44.6953125 342.29296875 C43.09261528 343.90674452 41.75808348 345.5736787 40.375 347.375 C35.91899747 352.69345464 29.76243544 356.24771646 24 360 C23.20464844 360.52078125 22.40929687 361.0415625 21.58984375 361.578125 C17.83576752 363.97957646 14.02484562 366.07507384 10 368 C9.10152344 368.47953125 8.20304687 368.9590625 7.27734375 369.453125 C-1.20589824 373.45713433 -10.70990379 375.19912964 -20 376 C-20.33 376.33 -20.66 376.66 -21 377 C-22.51289612 377.14492129 -24.03192626 377.2270618 -25.55078125 377.28125 C-26.47697266 377.31863281 -27.40316406 377.35601562 -28.35742188 377.39453125 C-29.33259766 377.42933594 -30.30777344 377.46414063 -31.3125 377.5 C-33.22540229 377.5690948 -35.13817585 377.64187466 -37.05078125 377.71875 C-37.90325439 377.74904297 -38.75572754 377.77933594 -39.6340332 377.81054688 C-41.95657992 377.91323233 -41.95657992 377.91323233 -43.93432617 378.58007812 C-46.78102051 379.15877027 -49.14472927 378.49242318 -52 378 C-56.5341661 377.98784234 -61.04999158 378.24163417 -65.57519531 378.50439453 C-67.72935514 378.62385512 -69.88342884 378.71256487 -72.0390625 378.80078125 C-82.31086038 379.32407958 -90.66099173 381.02693778 -97.8125 388.9375 C-98.89147117 390.27857973 -99.95492629 391.63233976 -101 393 C-102.62703023 395.04676941 -104.27705649 397.0309217 -106 399 C-106.66 399 -107.32 399 -108 399 C-108.2165625 400.175625 -108.2165625 400.175625 -108.4375 401.375 C-109 404 -109 404 -110 406 C-110.66 406 -111.32 406 -112 406 C-112 406.99 -112 407.98 -112 409 C-112.99 409.33 -113.98 409.66 -115 410 C-111.12114582 399.13920831 -102.35788795 385.58288199 -92.375 379.5625 C-86.53803406 376.86020095 -81.55567552 375.69790445 -75.13671875 375.62109375 C-74.01134453 375.59560204 -74.01134453 375.59560204 -72.86323547 375.56959534 C-70.47140875 375.51681795 -68.079588 375.47646855 -65.6875 375.4375 C-62.56630336 375.37825521 -59.44524241 375.31382194 -56.32421875 375.24609375 C-55.55486496 375.22949203 -54.78551117 375.21289032 -53.99284363 375.19578552 C-48.53106559 375.06591096 -43.07955317 374.84026519 -37.625 374.53125 C-36.57604805 374.47408058 -36.57604805 374.47408058 -35.50590515 374.41575623 C-31.29775821 374.15976781 -27.35800862 373.60349359 -23.2890625 372.52734375 C-20.27673311 371.83337708 -17.25503731 371.50259446 -14.1875 371.125 C11.14337452 367.54887654 34.2406626 352.05346974 50.12109375 332.37109375 C51.85476782 329.96557271 53.45048199 327.52774908 55 325 C55.59296875 324.04351562 56.1859375 323.08703125 56.796875 322.1015625 C58.60148695 319.10158793 60.32110645 316.07193232 62 313 C62.46535156 312.15050781 62.93070313 311.30101562 63.41015625 310.42578125 C75.45269321 286.37753467 73.31567631 256.15091156 73.26865101 230.04955888 C73.26347014 226.25290065 73.26831553 222.45625044 73.27142334 218.65959167 C73.27503094 212.28663362 73.27035168 205.91372238 73.26074219 199.54077148 C73.24988747 192.25970812 73.25337466 184.97875711 73.264395 177.69769651 C73.27358901 171.3604965 73.27469447 165.02332953 73.26951766 158.68612498 C73.26646027 154.93914157 73.26580938 151.19221017 73.27259064 147.44523048 C73.29570825 132.58814354 73.09257097 117.77630863 72.10839844 102.94799805 C72.03095524 101.75810933 71.95351204 100.56822062 71.87372208 99.34227467 C71.42736604 93.32863555 70.65087065 87.79877093 69 82 C68.68452309 80.08710824 68.39082109 78.17042175 68.125 76.25 C63.8122103 49.84245693 46.88892754 28.49358391 25.66259766 13.16650391 C17.58487508 7.49905039 9.47841856 3.70571877 0 1 C0 0.67 0 0.34 0 0 Z " fill="#C24042" transform="translate(407,38)"/>
<path d="M0 0 C0.96226501 -0.00303635 1.92453003 -0.00607269 2.91595459 -0.00920105 C4.51313324 0.0015168 4.51313324 0.0015168 6.14257812 0.01245117 C7.30613831 0.01254684 8.46969849 0.01264252 9.66851807 0.01274109 C12.96741599 0.0158925 16.26602563 0.02862856 19.56486511 0.04568481 C22.4027989 0.0587849 25.2407292 0.06431552 28.07868576 0.07012367 C81.44377007 0.18570368 134.81094063 0.77000218 188.17382812 1.24291992 C188.17382812 1.57291992 188.17382812 1.90291992 188.17382812 2.24291992 C187.25097456 2.24623007 186.32812099 2.24954021 185.37730217 2.25295067 C162.82914377 2.33426786 140.28105109 2.42667919 117.73298454 2.53044701 C106.8285141 2.58037841 95.92405044 2.626822 85.01953125 2.66479492 C75.50525009 2.69793573 65.99102488 2.73788532 56.47680581 2.78570998 C51.44812123 2.81075762 46.41947272 2.83260048 41.39074326 2.84626389 C12.21844261 2.79989319 12.21844261 2.79989319 -16.82617188 5.24291992 C-17.63883137 5.34749386 -18.45149086 5.45206779 -19.2887764 5.55981064 C-42.64144378 8.61941882 -61.4844739 17.31542769 -78.82617188 33.24291992 C-79.64988281 33.98413086 -80.47359375 34.7253418 -81.32226562 35.48901367 C-107.8170614 60.51442736 -111.83399577 95.80651684 -112.8892231 130.30420208 C-113.13710925 140.59413819 -113.11196432 150.88845162 -113.09482288 161.18066359 C-113.08964013 165.28813878 -113.09448618 169.39560658 -113.09759521 173.50308228 C-113.10119435 180.37568812 -113.09653809 187.24825043 -113.08691406 194.12084961 C-113.07597625 202.0220212 -113.0796099 209.92308994 -113.09056687 217.82425916 C-113.09968401 224.67853362 -113.10090531 231.53277742 -113.09568954 238.38705599 C-113.09260181 242.45098025 -113.09207215 246.51485632 -113.09876251 250.57877731 C-113.10460284 254.38929828 -113.10041902 258.19968779 -113.088974 262.01019478 C-113.08513705 264.04549614 -113.09095092 266.08080883 -113.097229 268.11610413 C-112.96961379 296.38435519 -105.69549727 322.03104897 -87.82617188 344.24291992 C-88.81617187 344.57291992 -89.80617188 344.90291992 -90.82617188 345.24291992 C-91.66815494 344.14533485 -92.49947859 343.03956675 -93.32617188 341.93041992 C-94.02226563 341.0080957 -94.02226563 341.0080957 -94.73242188 340.06713867 C-95.82617188 338.24291992 -95.82617188 338.24291992 -95.82617188 335.24291992 C-96.81617187 334.91291992 -97.80617188 334.58291992 -98.82617188 334.24291992 C-102.70473896 329.64693002 -104.45486029 325.18390532 -104.82617188 319.24291992 C-105.48617187 319.24291992 -106.14617187 319.24291992 -106.82617188 319.24291992 C-108.11860723 315.12328223 -109.08869813 311.57460309 -108.82617188 307.24291992 C-109.81617188 307.24291992 -110.80617188 307.24291992 -111.82617188 307.24291992 C-112.05403646 305.19213867 -112.28190104 303.14135742 -112.50976562 301.09057617 C-112.64503802 299.23151763 -112.64503802 299.23151763 -113.82617188 298.24291992 C-115.68990755 288.37094502 -116.11665202 278.32201335 -116.51367188 268.30541992 C-116.58618164 266.58282959 -116.58618164 266.58282959 -116.66015625 264.82543945 C-116.87703601 258.50192411 -116.71005246 252.50983265 -115.82617188 246.24291992 C-116.48617187 245.91291992 -117.14617187 245.58291992 -117.82617188 245.24291992 C-117.85092251 240.47404355 -117.86905591 235.70520472 -117.88110352 230.9362793 C-117.88612693 229.31452788 -117.89294681 227.69278097 -117.90161133 226.07104492 C-117.91376417 223.73770024 -117.91942015 221.40441552 -117.92382812 219.07104492 C-117.92898941 218.34798157 -117.9341507 217.62491821 -117.93946838 216.87994385 C-117.93984575 213.48056081 -117.65919259 210.52220236 -116.82617188 207.24291992 C-117.15617187 206.25291992 -117.48617187 205.26291992 -117.82617188 204.24291992 C-117.91916988 202.67213091 -117.95686125 201.09770805 -117.95898438 199.52416992 C-117.96091797 198.12424805 -117.96091797 198.12424805 -117.96289062 196.69604492 C-117.95902344 195.72151367 -117.95515625 194.74698242 -117.95117188 193.74291992 C-117.95503906 192.79932617 -117.95890625 191.85573242 -117.96289062 190.88354492 C-117.95645306 186.17124834 -117.80133501 181.54473403 -117.31835938 176.85620117 C-116.68812393 170.53924237 -116.76090118 164.27255611 -116.82617188 157.93041992 C-117.11809135 93.24523538 -117.11809135 93.24523538 -107.32617188 70.80541992 C-105.84928262 67.29780794 -104.63392999 63.78220738 -103.47460938 60.16088867 C-102.82617188 58.24291992 -102.82617188 58.24291992 -101.82617188 56.24291992 C-101.16617188 56.24291992 -100.50617188 56.24291992 -99.82617188 56.24291992 C-99.64054687 55.45916992 -99.45492187 54.67541992 -99.26367188 53.86791992 C-96.43253946 46.72854253 -92.01627257 40.79446455 -85.82617188 36.24291992 C-85.49617188 35.25291992 -85.16617188 34.26291992 -84.82617188 33.24291992 C-83.08398438 31.45385742 -83.08398438 31.45385742 -80.95117188 29.61791992 C-80.2525 29.0069043 -79.55382812 28.39588867 -78.83398438 27.76635742 C-76.82617188 26.24291992 -76.82617188 26.24291992 -73.82617188 25.24291992 C-73.82617188 24.58291992 -73.82617188 23.92291992 -73.82617188 23.24291992 C-70.92068305 21.20122507 -69.42475142 20.24291992 -65.82617188 20.24291992 C-65.82617188 19.58291992 -65.82617188 18.92291992 -65.82617188 18.24291992 C-64.17617187 17.91291992 -62.52617188 17.58291992 -60.82617188 17.24291992 C-60.82617188 16.58291992 -60.82617188 15.92291992 -60.82617188 15.24291992 C-59.83617187 15.24291992 -58.84617188 15.24291992 -57.82617188 15.24291992 C-57.82617188 14.58291992 -57.82617188 13.92291992 -57.82617188 13.24291992 C-52.81684434 10.2373234 -49.49893698 9.94950104 -43.82617188 10.24291992 C-43.82617188 9.58291992 -43.82617188 8.92291992 -43.82617188 8.24291992 C-36.35084576 3.25936918 -26.73912599 3.62549364 -18.05078125 3.03198242 C-17.06529297 2.9572168 -16.07980469 2.88245117 -15.06445312 2.80541992 C-14.17798096 2.74483398 -13.29150879 2.68424805 -12.37817383 2.62182617 C-9.79874302 2.3492465 -9.79874302 2.3492465 -7.4683075 1.23442078 C-4.75503047 0.21622305 -2.87851136 -0.00500306 0 0 Z " fill="#D17D4B" transform="translate(144.826171875,28.757080078125)"/>
<path d="M0 0 C0.66 0 1.32 0 2 0 C2.046438 13.76107506 2.0819274 27.52213133 2.10362434 41.28326893 C2.11404027 47.67381887 2.12815943 54.064315 2.15087891 60.45483398 C2.17268543 66.62751987 2.18458509 72.80015415 2.18975449 78.9728756 C2.19343624 81.32226053 2.20062565 83.67164279 2.21146011 86.02100563 C2.22607878 89.32371647 2.22797361 92.62621684 2.22705078 95.92895508 C2.23424133 96.88993607 2.24143188 97.85091705 2.24884033 98.84101868 C2.22364654 107.22971922 1.31418745 115.23617953 -2 123 C-2.33 123 -2.66 123 -3 123 C-2.93941406 122.22398437 -2.87882812 121.44796875 -2.81640625 120.6484375 C-2.69072266 119.02808594 -2.69072266 119.02808594 -2.5625 117.375 C-2.44068359 115.80878906 -2.44068359 115.80878906 -2.31640625 114.2109375 C-2.26971802 113.57410034 -2.22302979 112.93726318 -2.17492676 112.28112793 C-2.04627979 110.60351039 -1.90388664 108.92693272 -1.75378418 107.25109863 C-0.87240983 96.62110446 -0.87203738 86.04219369 -0.90234375 75.3828125 C-0.90421324 73.42984046 -0.90563463 71.47686794 -0.90663147 69.52389526 C-0.91041491 64.43099631 -0.9202086 59.33812675 -0.93133545 54.24523926 C-0.94164024 49.0293823 -0.94614835 43.8135205 -0.95117188 38.59765625 C-0.96183541 28.39842472 -0.97886049 18.19921482 -1 8 C-2.45089927 9.26351028 -3.89810822 10.53125899 -5.34375 11.80078125 C-6.55321289 12.85906128 -6.55321289 12.85906128 -7.78710938 13.9387207 C-9.59865352 15.62615089 -11.03739536 17.21099859 -12.5 19.1875 C-15.75958851 22.85453708 -19.45400226 25.1620832 -24 27 C-25.32 27 -26.64 27 -28 27 C-28.495 28.485 -28.495 28.485 -29 30 C-33.12879381 32.14319068 -37.72904506 33.01995279 -42.25 34 C-43.05759766 34.17515137 -43.86519531 34.35030273 -44.69726562 34.53076172 C-53.00623564 36.20535316 -61.35750985 36.82758835 -69.80957031 37.31640625 C-70.83147461 37.37957031 -71.85337891 37.44273438 -72.90625 37.5078125 C-73.81697266 37.55566895 -74.72769531 37.60352539 -75.66601562 37.65283203 C-78.26715943 37.87026087 -78.26715943 37.87026087 -81 40 C-83.32914823 40.36141955 -85.66253478 40.69699525 -88 41 C-88.495 41.495 -88.495 41.495 -89 42 C-90.68183948 42.23287008 -92.3712416 42.41264166 -94.0625 42.5625 C-94.98160156 42.64628906 -95.90070313 42.73007813 -96.84765625 42.81640625 C-97.55792969 42.87699219 -98.26820313 42.93757813 -99 43 C-98 41 -98 41 -94.4375 39.5625 C-84.91844996 36.58026597 -74.94231972 35.18362197 -65.0625 34 C-47.43722435 31.87691608 -30.37466925 29.35708601 -16 18 C-14.86304688 17.10667969 -14.86304688 17.10667969 -13.703125 16.1953125 C-8.63902385 11.96389912 -4.95358098 7.46850537 -1.41015625 1.90625 C-0.94480469 1.2771875 -0.47945313 0.648125 0 0 Z " fill="#CA6847" transform="translate(293,47)"/>
<path d="M0 0 C0.33 0 0.66 0 1 0 C1.00634791 1.04495117 1.00634791 1.04495117 1.01282406 2.11101246 C1.11689385 19.19479782 1.22563257 36.27854738 1.33933926 53.36227131 C1.39422231 61.62439568 1.44762152 69.88652429 1.49731445 78.14868164 C1.54071601 85.3641424 1.58711845 92.57957711 1.63687855 99.79499692 C1.6630389 103.60260856 1.68786437 107.41021656 1.70907402 111.21785927 C1.19707994 146.78458555 1.19707994 146.78458555 5 182 C5.13857422 182.7420166 5.27714844 183.4840332 5.41992188 184.24853516 C8.90269794 202.20795407 16.53456146 217.74826774 28 232 C27.01 232.33 26.02 232.66 25 233 C24.15801693 231.90241493 23.32669329 230.79664683 22.5 229.6875 C22.0359375 229.07261719 21.571875 228.45773437 21.09375 227.82421875 C20 226 20 226 20 223 C19.01 222.67 18.02 222.34 17 222 C13.12143291 217.4040101 11.37131159 212.94098539 11 207 C10.34 207 9.68 207 9 207 C7.70756464 202.8803623 6.73747375 199.33168317 7 195 C6.01 195 5.02 195 4 195 C3.77213542 192.94921875 3.54427083 190.8984375 3.31640625 188.84765625 C3.18113386 186.98859771 3.18113386 186.98859771 2 186 C0.13626433 176.1280251 -0.29048014 166.07909343 -0.6875 156.0625 C-0.73583984 154.91410645 -0.78417969 153.76571289 -0.83398438 152.58251953 C-1.05086413 146.25900419 -0.88388059 140.26691272 0 134 C-0.66 133.67 -1.32 133.34 -2 133 C-2.02475064 128.23112363 -2.04288403 123.46228479 -2.05493164 118.69335938 C-2.05995505 117.07160796 -2.06677494 115.44986105 -2.07543945 113.828125 C-2.08759229 111.49478031 -2.09324828 109.1614956 -2.09765625 106.828125 C-2.10281754 106.10506165 -2.10797882 105.38199829 -2.11329651 104.63702393 C-2.11367387 101.23764089 -1.83302071 98.27928244 -1 95 C-1.33 94.01 -1.66 93.02 -2 92 C-2.09299801 90.42921099 -2.13068938 88.85478813 -2.1328125 87.28125 C-2.13474609 85.88132813 -2.13474609 85.88132813 -2.13671875 84.453125 C-2.13091797 82.99132812 -2.13091797 82.99132812 -2.125 81.5 C-2.12886719 80.55640625 -2.13273437 79.6128125 -2.13671875 78.640625 C-2.13028119 73.92832841 -1.97516313 69.30181411 -1.4921875 64.61328125 C-0.86196409 58.29644306 -0.93376901 52.02955294 -1 45.6875 C-1.08754122 30.43642624 -0.60982571 15.23753327 0 0 Z " fill="#D37718" transform="translate(29,141)"/>
<path d="M0 0 C13.4953012 5.24142248 24.99226349 16.93063366 34 28 C33.01 28.495 33.01 28.495 32 29 C27.125 24.375 27.125 24.375 26 21 C25.4225 20.71125 24.845 20.4225 24.25 20.125 C21.23101222 18.61550611 19.35053367 16.40786376 17 14 C16.071875 13.278125 15.14375 12.55625 14.1875 11.8125 C13.465625 11.214375 12.74375 10.61625 12 10 C12 9.34 12 8.68 12 8 C11.4225 7.855625 10.845 7.71125 10.25 7.5625 C8.76450367 7.19112592 7.28479948 6.79565699 5.8125 6.375 C5.214375 6.25125 4.61625 6.1275 4 6 C2.20459997 7.79540003 2.87140483 10.49477011 2.86869812 12.91717529 C2.86468994 14.20395676 2.86068176 15.49073822 2.85655212 16.81651306 C2.8570273 18.25625612 2.85756343 19.69599917 2.8581543 21.13574219 C2.85512426 22.64187218 2.85160323 24.14800124 2.84762573 25.65412903 C2.83971956 28.90733697 2.83458515 32.16053385 2.83133507 35.41374969 C2.82542951 40.56739154 2.80888973 45.72096413 2.78999329 50.87457275 C2.78365501 52.63923259 2.77732939 54.40389247 2.77101612 56.1685524 C2.76785031 57.05265431 2.7646845 57.93675622 2.76142275 58.8476491 C2.71938033 70.84877812 2.68641873 82.84987656 2.67407227 94.85107422 C2.66566506 102.93993838 2.64306926 111.02863267 2.6047166 119.11741185 C2.58503108 123.39524519 2.5725259 127.672825 2.57755089 131.95070648 C2.58223222 135.9858857 2.5682041 140.02058681 2.54053879 144.05566978 C2.53368282 145.52729663 2.53343929 146.99897351 2.54073906 148.47059822 C2.58283162 157.92005353 1.3266194 166.0957672 -2 175 C-3.75261274 172.39854743 -4.04040749 171.26203986 -3.55426311 168.1094265 C-3.25652398 167.00084597 -2.95878485 165.89226543 -2.65202332 164.75009155 C-0.79668572 156.81203838 -0.55789257 149.11915926 -0.56762695 140.99853516 C-0.55858508 139.44968395 -0.54825203 137.90083984 -0.53674316 136.352005 C-0.50943134 132.19385622 -0.49992424 128.03584412 -0.49388909 123.87761736 C-0.48443736 119.51474235 -0.45822911 115.15196679 -0.43388367 110.78915405 C-0.39040048 102.54834467 -0.36174233 94.30755479 -0.33856028 86.06666601 C-0.3114105 76.67589385 -0.26750548 67.28522265 -0.22227156 57.89452291 C-0.12968604 38.59640209 -0.05788654 19.29825455 0 0 Z " fill="#C1402A" transform="translate(339,92)"/>
<path d="M0 0 C0.99 0.495 0.99 0.495 2 1 C-2.54222911 8.01980863 -10.66055736 11.49708419 -18 15 C-18.89589844 15.47824219 -19.79179687 15.95648438 -20.71484375 16.44921875 C-29.20103653 20.45518609 -38.70632026 22.19882071 -48 23 C-48.495 23.495 -48.495 23.495 -49 24 C-50.51289612 24.14492129 -52.03192626 24.2270618 -53.55078125 24.28125 C-54.94006836 24.33732422 -54.94006836 24.33732422 -56.35742188 24.39453125 C-57.82018555 24.44673828 -57.82018555 24.44673828 -59.3125 24.5 C-61.22540229 24.5690948 -63.13817585 24.64187466 -65.05078125 24.71875 C-66.32949097 24.76418945 -66.32949097 24.76418945 -67.6340332 24.81054688 C-69.95657992 24.91323233 -69.95657992 24.91323233 -71.93432617 25.58007812 C-74.78102051 26.15877027 -77.14472927 25.49242318 -80 25 C-84.5341661 24.98784234 -89.04999158 25.24163417 -93.57519531 25.50439453 C-95.72935514 25.62385512 -97.88342884 25.71256487 -100.0390625 25.80078125 C-110.31086038 26.32407958 -118.66099173 28.02693778 -125.8125 35.9375 C-126.89147117 37.27857973 -127.95492629 38.63233976 -129 40 C-130.62703023 42.04676941 -132.27705649 44.0309217 -134 46 C-134.66 46 -135.32 46 -136 46 C-136.144375 46.78375 -136.28875 47.5675 -136.4375 48.375 C-137 51 -137 51 -138 53 C-138.66 53 -139.32 53 -140 53 C-140 53.99 -140 54.98 -140 56 C-141.485 56.495 -141.485 56.495 -143 57 C-139.12114582 46.13920831 -130.35788795 32.58288199 -120.375 26.5625 C-114.53803406 23.86020095 -109.55567552 22.69790445 -103.13671875 22.62109375 C-102.01134453 22.59560204 -102.01134453 22.59560204 -100.86323547 22.56959534 C-98.47140875 22.51681795 -96.079588 22.47646855 -93.6875 22.4375 C-90.56630336 22.37825521 -87.44524241 22.31382194 -84.32421875 22.24609375 C-83.17018806 22.22119118 -83.17018806 22.22119118 -81.99284363 22.19578552 C-76.53106559 22.06591096 -71.07955317 21.84026519 -65.625 21.53125 C-64.9256987 21.49313705 -64.2263974 21.45502411 -63.50590515 21.41575623 C-59.29775821 21.15976781 -55.35800862 20.60349359 -51.2890625 19.52734375 C-48.27673311 18.83337708 -45.25503731 18.50259446 -42.1875 18.125 C-32.23441636 16.71985878 -23.65251555 13.47785797 -14.6875 9.0625 C-13.70064209 8.57692627 -13.70064209 8.57692627 -12.69384766 8.08154297 C-8.13964746 5.7624342 -4.10063022 3.05027474 0 0 Z " fill="#C54835" transform="translate(435,391)"/>
<path d="M0 0 C0.33 1.32 0.66 2.64 1 4 C0.67 4 0.34 4 0 4 C-3.13618167 12.51249311 -4.30397136 20.82633911 -4.21118164 29.85253906 C-4.2098674 30.78070435 -4.20855316 31.70886963 -4.2071991 32.66516113 C-4.20076707 35.69875739 -4.18036605 38.73209217 -4.16015625 41.765625 C-4.15387711 43.88929979 -4.14863993 46.01297789 -4.14439392 48.13665771 C-4.13114745 53.70411645 -4.10673756 59.27146361 -4.07904053 64.83886719 C-4.03576872 73.76276012 -4.0061641 82.68668366 -3.9829998 91.61064911 C-3.97280427 94.72047563 -3.95575584 97.83021107 -3.93800354 100.94000244 C-3.93117455 102.84834717 -3.92456584 104.75669269 -3.91821289 106.66503906 C-3.91147552 107.52542786 -3.90473816 108.38581665 -3.89779663 109.27227783 C-3.88954891 113.6340909 -4.1203113 117.70443505 -5 122 C-4.34 122 -3.68 122 -3 122 C-2.5978125 121.0409375 -2.5978125 121.0409375 -2.1875 120.0625 C-1 118 -1 118 2 117 C2 116.01 2 115.02 2 114 C2.99 114 3.98 114 5 114 C5 113.01 5 112.02 5 111 C7.475 110.505 7.475 110.505 10 110 C10 109.01 10 108.02 10 107 C10.66 107 11.32 107 12 107 C12 106.34 12 105.68 12 105 C15.37097383 103.50178941 17.20442119 103 21 103 C21 102.34 21 101.68 21 101 C22.65 101 24.3 101 26 101 C23.67958574 103.61423295 21.420004 104.88009136 18.25 106.3125 C14.01798124 108.34188911 10.76181405 110.63115342 7.375 113.86328125 C6 115 6 115 4 115 C3.7421875 115.56460938 3.484375 116.12921875 3.21875 116.7109375 C1.86723014 119.24936904 0.2810261 121.3685305 -1.5 123.625 C-2.41265625 124.78902344 -2.41265625 124.78902344 -3.34375 125.9765625 C-5 128 -5 128 -7 130 C-7.04679584 115.40481196 -7.08202593 100.8096339 -7.10362434 86.21438599 C-7.11392103 79.4370065 -7.12795049 72.65967372 -7.15087891 65.88232422 C-7.17300132 59.34007951 -7.18457395 52.79786507 -7.18975449 46.25558472 C-7.19344575 43.76137529 -7.20065384 41.26716848 -7.21146011 38.77297974 C-7.22600788 35.27567844 -7.22797654 31.77857675 -7.22705078 28.28125 C-7.23424133 27.25337875 -7.24143188 26.22550751 -7.24884033 25.16648865 C-7.22775232 17.78927554 -6.4468946 11.19432173 -2.9375 4.5625 C-2.59589844 3.90378906 -2.25429687 3.24507813 -1.90234375 2.56640625 C-1 1 -1 1 0 0 Z " fill="#CE551F" transform="translate(234,260)"/>
<path d="M0 0 C0.33 0 0.66 0 1 0 C1 53.46 1 106.92 1 162 C-0.65 161.67 -2.3 161.34 -4 161 C-4.66 160.01 -5.32 159.02 -6 158 C-4.35 158.33 -2.7 158.66 -1 159 C-1.00092179 158.18663209 -1.00184359 157.37326418 -1.00279331 156.53524876 C-1.02484687 136.77346387 -1.04141073 117.0116811 -1.05181217 97.24988651 C-1.05697551 87.69336061 -1.06401892 78.13684291 -1.07543945 68.58032227 C-1.08538514 60.25397993 -1.09185315 51.92764352 -1.09408849 43.60129541 C-1.0953958 39.18975143 -1.09848288 34.77822443 -1.10573006 30.36668587 C-1.11248846 26.21929613 -1.11461733 22.07193047 -1.11310768 17.92453575 C-1.11338409 16.3978627 -1.11539028 14.87118888 -1.11920547 13.34452057 C-1.12413994 11.26916541 -1.12299923 9.19390258 -1.12025452 7.11854553 C-1.12117631 5.95432099 -1.1220981 4.79009645 -1.12304783 3.59059238 C-1 1 -1 1 0 0 Z " fill="#D18556" transform="translate(182,182)"/>
<path d="M0 0 C20.85361648 -0.04674919 41.7072243 -0.08200316 62.56088257 -0.10362434 C72.24389397 -0.11393088 81.92687279 -0.12797932 91.60986328 -0.15087891 C100.0509045 -0.17083183 108.49192211 -0.18372097 116.93298626 -0.18817699 C121.40122589 -0.19078114 125.869398 -0.1968891 130.33761597 -0.21146011 C134.54660442 -0.22507406 138.75549777 -0.22921494 142.96450615 -0.22621536 C144.50598099 -0.22676382 146.04745913 -0.2307185 147.58891487 -0.23841095 C154.99273464 -0.27353439 161.88237493 -0.24867947 169 2 C171.07718274 2.32582638 173.16108634 2.61220781 175.25 2.8515625 C176.35214844 2.98046875 177.45429688 3.109375 178.58984375 3.2421875 C179.71519531 3.36851563 180.84054687 3.49484375 182 3.625 C183.73443359 3.82609375 183.73443359 3.82609375 185.50390625 4.03125 C188.33543224 4.35886458 191.1674196 4.68165369 194 5 C194 5.66 194 6.32 194 7 C195.65 7.33 197.3 7.66 199 8 C195.35334288 9.12758477 193.01577134 8.59688007 189.33926392 7.60392761 C177.59932685 4.57302883 165.39996352 4.14087633 153.3515625 3.41796875 C152.2837215 3.35293844 151.21588051 3.28790813 150.11568069 3.22090721 C122.00524944 1.55248297 93.87540519 1.44460716 65.72589326 1.33853614 C58.5302314 1.31086713 51.33469 1.26696821 44.139117 1.22227156 C29.42615038 1.13121411 14.71313234 1.05875034 0 1 C0 0.67 0 0.34 0 0 Z " fill="#C45239" transform="translate(208,29)"/>
<path d="M0 0 C3.55201502 2.00568326 7.0793378 4.02859572 10.54296875 6.18359375 C30.09900361 18.33292678 49.95886202 22.77252685 72.83984375 23.46484375 C75.14258747 23.54334602 77.44532158 23.62213073 79.74804688 23.70117188 C83.34650305 23.8207521 86.94499534 23.93773291 90.54370117 24.04956055 C94.03854185 24.15969258 97.53290012 24.28033865 101.02734375 24.40234375 C102.09323227 24.43263168 103.15912079 24.46291962 104.25730896 24.49412537 C113.58914245 24.8313402 121.06466737 25.93489407 129 31 C129 31.33 129 31.66 129 32 C125.38613774 32.25813302 123.3293068 32.16815667 120.0625 30.5 C116.43117944 28.72139401 114.00151927 28.9285443 110 29 C109.15195801 28.67692871 108.30391602 28.35385742 107.43017578 28.02099609 C102.78192447 26.6374383 98.44086343 26.72153313 93.6171875 26.7265625 C91.54035955 26.70623739 89.46353669 26.68538605 87.38671875 26.6640625 C84.15343944 26.64170704 80.92036412 26.62508338 77.68701172 26.61914062 C60.16884983 26.56499702 42.01730103 25.92775506 26 18 C24.92492187 17.47664063 23.84984375 16.95328125 22.7421875 16.4140625 C19.81470889 14.96730393 16.90248269 13.4961251 14 12 C14 11.34 14 10.68 14 10 C13.01 10 12.02 10 11 10 C11 9.34 11 8.68 11 8 C9.88625 7.7525 8.7725 7.505 7.625 7.25 C4 6 4 6 2.5625 3.875 C2.376875 3.25625 2.19125 2.6375 2 2 C1.34 2 0.68 2 0 2 C0 1.34 0 0.68 0 0 Z " fill="#CD6C21" transform="translate(72,389)"/>
<path d="M0 0 C0.33 0 0.66 0 1 0 C0.67 38.94 0.34 77.88 0 118 C-2.45316966 115.54683034 -2.25086569 114.90273427 -2.25396729 111.53445435 C-2.25960693 110.5951004 -2.26524658 109.65574646 -2.27105713 108.68792725 C-2.26700867 107.65411926 -2.26296021 106.62031128 -2.25878906 105.55517578 C-2.2622937 104.468909 -2.26579834 103.38264221 -2.26940918 102.26345825 C-2.27824208 98.65734546 -2.27237096 95.05142744 -2.265625 91.4453125 C-2.2669714 88.94668541 -2.26891171 86.44805857 -2.27142334 83.94943237 C-2.27437688 78.70536295 -2.27026009 73.46134452 -2.26074219 68.21728516 C-2.24986857 62.15631977 -2.25337443 56.09548904 -2.264395 50.03452694 C-2.27457029 44.20500788 -2.2734855 38.37553994 -2.26763153 32.54601669 C-2.26629548 30.06525529 -2.26794119 27.58449047 -2.27259064 25.10373306 C-2.27766072 21.6369335 -2.26993802 18.17039348 -2.25878906 14.70361328 C-2.26283752 13.67385376 -2.26688599 12.64409424 -2.27105713 11.58312988 C-2.26541748 10.63813629 -2.25977783 9.6931427 -2.25396729 8.71951294 C-2.25321323 7.89987123 -2.25245918 7.08022953 -2.25168228 6.2357502 C-1.97425478 3.77129941 -1.23218387 2.13479654 0 0 Z " fill="#FEE1D0" transform="translate(227,272)"/>
<path d="M0 0 C9.50009631 12.02613347 12.26435151 28.82320968 15.25 43.5 C15.49472046 44.69967407 15.49472046 44.69967407 15.74438477 45.92358398 C17.54916127 55.1991171 18.15329876 64.35435754 18.1328125 73.79296875 C18.13424759 75.27836906 18.13424759 75.27836906 18.13571167 76.79377747 C18.13638736 78.87025008 18.13457611 80.94672489 18.13037109 83.02319336 C18.12499688 86.18933869 18.13034578 89.35534329 18.13671875 92.52148438 C18.13605819 94.54947948 18.1347775 96.57747449 18.1328125 98.60546875 C18.13483673 99.54416306 18.13686096 100.48285736 18.13894653 101.44999695 C18.12135044 106.40785113 17.84313812 111.11239447 17 116 C16.67 116 16.34 116 16 116 C16.00523682 115.13012451 16.01047363 114.26024902 16.01586914 113.36401367 C16.18701628 93.04988241 16.18701628 93.04988241 15.5625 72.75 C15.52326416 72.00258545 15.48402832 71.2551709 15.44360352 70.48510742 C15.24096873 67.19822346 14.80662116 64.18131384 14 61 C13.84963217 58.81409727 13.72770806 56.62615993 13.625 54.4375 C13.26280494 48.95364049 12.41355516 44.09534175 10.8203125 38.8515625 C9.87125771 35.55246728 9.18425978 32.23867705 8.5 28.875 C6.99595161 21.73661489 5.22405888 15.21274182 1.8125 8.75 C0.20727405 5.69823964 -0.43889723 3.51117783 0 0 Z " fill="#BE463C" transform="translate(379,130)"/>
<path d="M0 0 C1.11153894 3.33461683 0.85795481 4.49527375 0.13119507 7.8553009 C-1.13123589 14.32322869 -1.66939571 20.74508002 -2.09912109 27.31518555 C-2.18312353 28.57500842 -2.26712597 29.8348313 -2.35367393 31.13283062 C-3.21920204 45.07082643 -3.35217504 58.99640338 -3.4140625 72.95703125 C-3.43183567 75.69570751 -3.45233255 78.43436173 -3.4727478 81.17301941 C-3.51880392 87.55397988 -3.55589182 93.93495669 -3.58942068 100.31599396 C-3.62817274 107.60315625 -3.6774358 114.89023702 -3.72740483 122.17732966 C-3.82963074 137.11815889 -3.91923194 152.05903813 -4 167 C-4.33 167 -4.66 167 -5 167 C-5.02342592 148.20575683 -5.0410266 129.41151666 -5.05181217 110.61726189 C-5.05695461 101.88953028 -5.06395794 93.16180779 -5.07543945 84.43408203 C-5.08544926 76.82140475 -5.09186833 69.20873406 -5.09408849 61.59605038 C-5.09538496 57.57030045 -5.09840275 53.54456938 -5.10573006 49.51882553 C-5.11258994 45.71858286 -5.11459699 41.91836657 -5.11310768 38.11811829 C-5.11350782 36.08115296 -5.11885049 34.04419042 -5.12442017 32.00723267 C-5.09676415 6.90529336 -5.09676415 6.90529336 0 0 Z " fill="#D59755" transform="translate(35,114)"/>
<path d="M0 0 C0.33 0 0.66 0 1 0 C1.03758423 1.58868896 1.03758423 1.58868896 1.07592773 3.20947266 C1.17043924 7.15685127 1.27055135 11.10407176 1.37231445 15.05126953 C1.41549846 16.7563099 1.45718447 18.46138892 1.49731445 20.16650391 C1.55541972 22.62414167 1.61899586 25.08158784 1.68359375 27.5390625 C1.70030624 28.29555084 1.71701874 29.05203918 1.73423767 29.83145142 C1.84906226 33.97818168 2.25984613 37.92187535 3 42 C3.04145116 44.08292092 3.04186759 46.1670874 3 48.25 C2.79842823 52.28035869 2.79842823 52.28035869 4 56 C4.15639441 58.01864637 4.27566105 60.04024281 4.375 62.0625 C4.71876985 67.0335212 5.49392992 71.13451935 7.25 75.76953125 C8.09236017 78.27467528 8.52066392 80.70355277 8.9375 83.3125 C9.79849844 88.58240423 11.41293406 93.38202642 13.29296875 98.37109375 C14.02692155 101.10010055 13.96912 102.38893146 13 105 C-1.48962317 72.78284903 -3.47599219 34.69785063 0 0 Z " fill="#CF7531" transform="translate(125,194)"/>
<path d="M0 0 C0.33 0 0.66 0 1 0 C0.96970703 0.56581787 0.93941406 1.13163574 0.90820312 1.71459961 C-0.44566614 27.71149305 -0.34750324 53.15486235 3 79 C2.67 78.01 2.34 77.02 2 76 C1.34 76 0.68 76 0 76 C-0.06058594 75.37351562 -0.12117188 74.74703125 -0.18359375 74.1015625 C-0.30927734 72.87566406 -0.30927734 72.87566406 -0.4375 71.625 C-0.51871094 70.81289062 -0.59992188 70.00078125 -0.68359375 69.1640625 C-0.89090114 66.95727195 -0.89090114 66.95727195 -2 65 C-2.20954922 62.2671289 -2.37507292 59.54932839 -2.5 56.8125 C-2.69204537 52.71197569 -2.89010886 48.6957079 -3.53125 44.63671875 C-4.74572366 35.21442729 -3.78330331 25.73860264 -3 16.3125 C-2.85691406 14.52682617 -2.85691406 14.52682617 -2.7109375 12.70507812 C-2.47784268 9.80304767 -2.24079601 6.90139983 -2 4 C-1.34 4 -0.68 4 0 4 C0 2.68 0 1.36 0 0 Z " fill="#FCE2C5" transform="translate(125,185)"/>
<path d="M0 0 C0.66 0.33 1.32 0.66 2 1 C-2.54222911 8.01980863 -10.66055736 11.49708419 -18 15 C-19.35351562 15.71542969 -19.35351562 15.71542969 -20.734375 16.4453125 C-31.22321539 21.4388035 -41.53381233 22.6360289 -53 22 C-53 21.34 -53 20.68 -53 20 C-52.13387085 19.87322876 -52.13387085 19.87322876 -51.25024414 19.74389648 C-34.07630958 17.14663016 -12.93106111 12.93106111 0 0 Z " fill="#C75953" transform="translate(435,391)"/>
<path d="M0 0 C2.475 0.99 2.475 0.99 5 2 C3.68 2.33 2.36 2.66 1 3 C1 52.17 1 101.34 1 152 C0.67 152 0.34 152 0 152 C0 101.84 0 51.68 0 0 Z " fill="#BF695B" transform="translate(339,92)"/>
<path d="M0 0 C-1.48669852 3.44042276 -3.46689868 5.69242086 -6.0625 8.375 C-17.70468396 21.17579617 -25.18159106 36.57383832 -29.39453125 53.3125 C-30 55 -30 55 -32 56 C-32.49638597 49.38152039 -30.08803654 44.49341708 -27.5 38.5625 C-26.02311075 35.05488802 -24.80775812 31.53928746 -23.6484375 27.91796875 C-23 26 -23 26 -22 24 C-21.34 24 -20.68 24 -20 24 C-19.814375 23.21625 -19.62875 22.4325 -19.4375 21.625 C-16.60636759 14.48562261 -12.19010069 8.55154463 -6 4 C-5.67 3.01 -5.34 2.02 -5 1 C-3 0 -3 0 0 0 Z " fill="#D27C27" transform="translate(65,61)"/>
<path d="M0 0 C0.33 0 0.66 0 1 0 C1.08636719 0.85078125 1.17273437 1.7015625 1.26171875 2.578125 C3.99166987 26.12082272 11.00103357 46.35603334 26 65 C24.515 65.495 24.515 65.495 23 66 C22.15801693 64.90241493 21.32669329 63.79664683 20.5 62.6875 C20.0359375 62.07261719 19.571875 61.45773437 19.09375 60.82421875 C18 59 18 59 18 56 C16.515 55.505 16.515 55.505 15 55 C11.12143291 50.4040101 9.37131159 45.94098539 9 40 C8.34 40 7.68 40 7 40 C5.70756464 35.8803623 4.73747375 32.33168317 5 28 C4.01 28 3.02 28 2 28 C1.77213542 25.94921875 1.54427083 23.8984375 1.31640625 21.84765625 C1.18113386 19.98859771 1.18113386 19.98859771 0 19 C-0.08651611 17.58429877 -0.10704904 16.164405 -0.09765625 14.74609375 C-0.09443359 13.89208984 -0.09121094 13.03808594 -0.08789062 12.15820312 C-0.07951172 11.26037109 -0.07113281 10.36253906 -0.0625 9.4375 C-0.05798828 8.53580078 -0.05347656 7.63410156 -0.04882812 6.70507812 C-0.03700225 4.46998686 -0.0205222 2.23502563 0 0 Z " fill="#CE8131" transform="translate(31,308)"/>
<path d="M0 0 C7.50355878 0.06781622 15.00662939 0.15792275 22.50976562 0.26245117 C25.05430267 0.295399 27.59890751 0.32352119 30.14355469 0.34643555 C44.69816992 0.48098844 58.73981059 0.92490168 73 4 C73 4.33 73 4.66 73 5 C15.62683991 3.6648419 15.62683991 3.6648419 0 1 C0 0.67 0 0.34 0 0 Z " fill="#F7DFC8" transform="translate(119,410)"/>
<path d="M0 0 C0.99 0 1.98 0 3 0 C-2.63899439 14.06351614 -21.04111844 24.15164127 -34.1875 29.875 C-50.07762456 36 -50.07762456 36 -55 36 C-55 35.34 -55 34.68 -55 34 C-53.23050388 33.49528803 -51.45934777 32.99639315 -49.6875 32.5 C-48.70136719 32.2215625 -47.71523438 31.943125 -46.69921875 31.65625 C-44 31 -44 31 -41 31 C-41 30.34 -41 29.68 -41 29 C-38.03 28.34 -35.06 27.68 -32 27 C-32 26.34 -32 25.68 -32 25 C-29.35261084 23.5393715 -28.10551666 23 -25 23 C-25 22.34 -25 21.68 -25 21 C-23.02 20.67 -21.04 20.34 -19 20 C-19 19.01 -19 18.02 -19 17 C-18.01 17 -17.02 17 -16 17 C-16 16.34 -16 15.68 -16 15 C-15.01 14.67 -14.02 14.34 -13 14 C-12.34 13.01 -11.68 12.02 -11 11 C-10.34 11 -9.68 11 -9 11 C-9 10.34 -9 9.68 -9 9 C-7.34997172 7.64613064 -5.6825613 6.31321858 -4 5 C-3.67 4.34 -3.34 3.68 -3 3 C-2.34 3 -1.68 3 -1 3 C-0.67 2.01 -0.34 1.02 0 0 Z " fill="#C84B36" transform="translate(366,316)"/>
<path d="M0 0 C0.66 0.99 1.32 1.98 2 3 C1.60167969 3.60585937 1.20335937 4.21171875 0.79296875 4.8359375 C-2.49486922 10.03568124 -4.76914626 14.7843079 -6.34375 20.7265625 C-7.19862608 23.68809749 -8.51264595 26.30859743 -10 29 C-10.66 29 -11.32 29 -12 29 C-12.06058594 29.99902344 -12.12117187 30.99804688 -12.18359375 32.02734375 C-12.26738281 33.31769531 -12.35117188 34.60804688 -12.4375 35.9375 C-12.51871094 37.22527344 -12.59992188 38.51304687 -12.68359375 39.83984375 C-13 43 -13 43 -14 44 C-14.2253331 46.0279979 -14.44767185 48.05674874 -14.62109375 50.08984375 C-15 52 -15 52 -17 54 C-17.68177998 56.65719837 -17.68177998 56.65719837 -18.125 59.625 C-18.29257813 60.62789062 -18.46015625 61.63078125 -18.6328125 62.6640625 C-18.75398438 63.43492187 -18.87515625 64.20578125 -19 65 C-19.33 65 -19.66 65 -20 65 C-20.14447948 59.91694912 -19.64886295 55.35239317 -18.625 50.375 C-18.36976562 49.10398438 -18.11453125 47.83296875 -17.8515625 46.5234375 C-17.12012838 43.49704496 -16.16203677 40.8722925 -15 38 C-14.60049231 36.10917937 -14.22769986 34.21260838 -13.875 32.3125 C-11.32475834 20.8429516 -5.94314724 10.0780886 0 0 Z " fill="#D07E3E" transform="translate(146,127)"/>
<path d="M0 0 C0.33 0 0.66 0 1 0 C1 35.31 1 70.62 1 107 C1.99 107.33 2.98 107.66 4 108 C2.68 109.65 1.36 111.3 0 113 C0 75.71 0 38.42 0 0 Z " fill="#C36D46" transform="translate(227,277)"/>
<path d="M0 0 C0.495 0.99 0.495 0.99 1 2 C-4.78761316 16.49419643 -17.75575699 28.79317122 -32 35 C-32.99 35 -33.98 35 -35 35 C-34 32 -34 32 -31.34765625 30.46484375 C-30.26355469 29.96082031 -29.17945313 29.45679688 -28.0625 28.9375 C-23.68785475 26.96017592 -23.68785475 26.96017592 -20 24 C-19.01 24 -18.02 24 -17 24 C-16.773125 23.278125 -16.54625 22.55625 -16.3125 21.8125 C-14.73664872 18.43567583 -12.79123384 16.44232961 -10 14 C-9.34 14 -8.68 14 -8 14 C-7.896875 13.46375 -7.79375 12.9275 -7.6875 12.375 C-6.21076779 7.27356145 -3.94861137 3.54013433 0 0 Z " fill="#CB5833" transform="translate(289,170)"/>
<path d="M0 0 C-1 3 -1 3 -3.0390625 4.10546875 C-3.89242188 4.46253906 -4.74578125 4.81960938 -5.625 5.1875 C-11.1762441 7.81661989 -14.31707101 11.18024854 -18 16 C-19.62703023 18.04676941 -21.27705649 20.0309217 -23 22 C-23.66 22 -24.32 22 -25 22 C-25.144375 22.78375 -25.28875 23.5675 -25.4375 24.375 C-26 27 -26 27 -27 29 C-27.66 29 -28.32 29 -29 29 C-29 29.99 -29 30.98 -29 32 C-30.485 32.495 -30.485 32.495 -32 33 C-27.58271327 20.63159715 -17.95895958 6.7403006 -6 1 C-4 0 -4 0 0 0 Z " fill="#C85A42" transform="translate(324,415)"/>
<path d="M0 0 C2.86088272 2.68796167 4.95280342 5.28282435 6.91796875 8.67578125 C7.44600098 9.57949463 7.9740332 10.48320801 8.51806641 11.41430664 C9.06897949 12.37071045 9.61989258 13.32711426 10.1875 14.3125 C11.34463624 16.29711752 12.50219018 18.28149155 13.66015625 20.265625 C14.22621582 21.23951172 14.79227539 22.21339844 15.37548828 23.21679688 C17.59401822 27.0177048 19.85334813 30.79317257 22.125 34.5625 C22.47844482 35.1500708 22.83188965 35.7376416 23.19604492 36.34301758 C24.13018303 37.89565416 25.06506373 39.4478439 26 41 C27.00032982 42.66646873 28.00045653 44.3330595 29 46 C27.68 45.67 26.36 45.34 25 45 C24.505 42.525 24.505 42.525 24 40 C23.34 40 22.68 40 22 40 C22 39.01 22 38.02 22 37 C21.34 37 20.68 37 20 37 C18.75766478 35.11012684 17.60490256 33.1608747 16.5 31.1875 C14.73367149 28.05526066 12.99509124 24.99263686 11 22 C11 20.68 11 19.36 11 18 C10.34 18 9.68 18 9 18 C7.54166682 15.96310519 6.22772949 13.95211133 4.9375 11.8125 C4.57333984 11.23435547 4.20917969 10.65621094 3.83398438 10.06054688 C1.80183943 6.73624323 0.4747908 3.87867557 0 0 Z " fill="#C8683A" transform="translate(207,428)"/>
<path d="M0 0 C6.10173836 0.09405524 12.20310407 0.20026167 18.30444336 0.31738281 C20.37697673 0.35549688 22.44957229 0.39037933 24.5222168 0.421875 C27.51373415 0.46790941 30.50482977 0.52583813 33.49609375 0.5859375 C34.41208847 0.59748871 35.32808319 0.60903992 36.27183533 0.62094116 C45.22807295 0.82311218 52.40152358 2.14990867 60 7 C60 7.33 60 7.66 60 8 C56.38613774 8.25813302 54.3293068 8.16815667 51.0625 6.5 C47.43117944 4.72139401 45.00151927 4.9285443 41 5 C40.08162354 4.679104 39.16324707 4.35820801 38.21704102 4.02758789 C34.67874832 2.89738572 31.73540952 2.69893435 28.02734375 2.62109375 C26.71572266 2.58693359 25.40410156 2.55277344 24.05273438 2.51757812 C22.68100168 2.49027101 21.3092565 2.46358395 19.9375 2.4375 C17.23808927 2.37930797 14.53905352 2.31380634 11.83984375 2.24609375 C10.64738037 2.22216553 9.45491699 2.1982373 8.22631836 2.17358398 C5.37280262 2.02005771 2.77682263 1.64931004 0 1 C0 0.67 0 0.34 0 0 Z " fill="#C76B31" transform="translate(141,413)"/>
<path d="M0 0 C0 23.43 0 46.86 0 71 C-0.33 71 -0.66 71 -1 71 C-1 47.9 -1 24.8 -1 1 C-4.3 1 -7.6 1 -11 1 C-11.33 1.99 -11.66 2.98 -12 4 C-15.3 4.33 -18.6 4.66 -22 5 C-14.15883103 -0.88087672 -10.71691998 0 0 0 Z " fill="#BC5A3C" transform="translate(283,229)"/>
<path d="M0 0 C0.495 0.99 0.495 0.99 1 2 C-1.37035038 8.15300012 -4.45510274 10.22431394 -10.26953125 12.9296875 C-20.15382631 15.76560043 -30.69998072 13.98144602 -40 10 C-40.99 9.34 -41.98 8.68 -43 8 C-42.67 7.01 -42.34 6.02 -42 5 C-41.20335937 5.52400391 -41.20335937 5.52400391 -40.390625 6.05859375 C-39.68421875 6.51363281 -38.9778125 6.96867187 -38.25 7.4375 C-37.55390625 7.88996094 -36.8578125 8.34242188 -36.140625 8.80859375 C-29.73351858 12.37459276 -21.13098442 11.94715941 -14.171875 10.3515625 C-8.13203252 8.18388897 -4.12442863 4.86190925 0 0 Z " fill="#C96D4B" transform="translate(279,469)"/>
<path d="M0 0 C0 0.33 0 0.66 0 1 C-0.85827393 1.06731323 -0.85827393 1.06731323 -1.73388672 1.13598633 C-25.87719351 2.75314725 -25.87719351 2.75314725 -49.03125 9.23046875 C-51 10 -51 10 -53 10 C-53 9.34 -53 8.68 -53 8 C-51.68 8 -50.36 8 -49 8 C-49 7.34 -49 6.68 -49 6 C-42.51332713 1.67555142 -34.52130411 1.48845613 -26.9375 0.875 C-25.93195068 0.79008301 -24.92640137 0.70516602 -23.89038086 0.61767578 C-15.90611843 -0.01667454 -8.00584298 -0.2276543 0 0 Z " fill="#D07D3A" transform="translate(150,31)"/>
<path d="M0 0 C1.55091131 3.94148797 0.41313339 7.20332127 -0.8125 11.0625 C-1.02825684 11.74844238 -1.24401367 12.43438477 -1.46630859 13.14111328 C-3.48688063 19.15975257 -6.18305573 24.75729502 -9.125 30.375 C-9.55659424 31.20136963 -9.98818848 32.02773926 -10.43286133 32.87915039 C-13.60370901 38.735806 -13.60370901 38.735806 -17 41 C-17 40.01 -17 39.02 -17 38 C-16.34 38 -15.68 38 -15 38 C-14.67 35.69 -14.34 33.38 -14 31 C-13.34 31 -12.68 31 -12 31 C-11.5978125 29.4221875 -11.5978125 29.4221875 -11.1875 27.8125 C-10 24 -10 24 -8.5625 21.625 C-6.79605583 18.6573738 -5.86587992 15.77105146 -4.828125 12.4921875 C-3.41871284 8.25065467 -1.69942709 4.13210951 0 0 Z " fill="#C6483C" transform="translate(389,271)"/>
<path d="M0 0 C0.33 0 0.66 0 1 0 C0.67 7.59 0.34 15.18 0 23 C-0.66 23 -1.32 23 -2 23 C-2 31.25 -2 39.5 -2 48 C-2.33 48 -2.66 48 -3 48 C-4.87193982 37.4703385 -3.88035896 26.90654942 -3 16.3125 C-2.85691406 14.52682617 -2.85691406 14.52682617 -2.7109375 12.70507812 C-2.47784268 9.80304767 -2.24079601 6.90139983 -2 4 C-1.34 4 -0.68 4 0 4 C0 2.68 0 1.36 0 0 Z " fill="#FFFBEE" transform="translate(125,185)"/>
<path d="M0 0 C0.66 0 1.32 0 2 0 C0.83282359 3.04796327 -0.45644488 6.01453746 -1.83984375 8.96875 C-5.57807534 17.0067463 -8.80473693 24.54664614 -10.4296875 33.30078125 C-11.00809942 36.03833355 -11.88907438 38.43740266 -13 41 C-13.33 41 -13.66 41 -14 41 C-14.72283946 31.78379684 -11.47233468 23.43057834 -8 15 C-7.34 15 -6.68 15 -6 15 C-6.061875 13.88625 -6.061875 13.88625 -6.125 12.75 C-5.99601866 9.91241048 -5.42948778 8.41226062 -4 6 C-3.34 6 -2.68 6 -2 6 C-1.855625 5.195625 -1.71125 4.39125 -1.5625 3.5625 C-1 1 -1 1 0 0 Z " fill="#FEEFD9" transform="translate(143,129)"/>
<path d="M0 0 C11.64488887 5.17550617 21.08956899 15.21983076 29 25 C28.34 25.33 27.68 25.66 27 26 C22.125 21.375 22.125 21.375 21 18 C20.4225 17.71125 19.845 17.4225 19.25 17.125 C16.23101222 15.61550611 14.35053367 13.40786376 12 11 C10.6078125 9.9171875 10.6078125 9.9171875 9.1875 8.8125 C8.465625 8.214375 7.74375 7.61625 7 7 C7 6.34 7 5.68 7 5 C6.401875 4.87625 5.80375 4.7525 5.1875 4.625 C3 4 3 4 0 2 C0 1.34 0 0.68 0 0 Z " fill="#C24B39" transform="translate(344,95)"/>
<path d="M0 0 C1.65 0 3.3 0 5 0 C2.67958574 2.61423295 0.420004 3.88009136 -2.75 5.3125 C-6.98201876 7.34188911 -10.23818595 9.63115342 -13.625 12.86328125 C-15 14 -15 14 -17 14 C-17.226875 14.556875 -17.45375 15.11375 -17.6875 15.6875 C-19.35896766 18.63246684 -21.55276352 20.68156544 -24 23 C-23.75 20.625 -23.75 20.625 -23 18 C-20.9375 16.6875 -20.9375 16.6875 -19 16 C-19 15.01 -19 14.02 -19 13 C-18.01 13 -17.02 13 -16 13 C-16 12.01 -16 11.02 -16 10 C-14.35 9.67 -12.7 9.34 -11 9 C-11 8.01 -11 7.02 -11 6 C-10.34 6 -9.68 6 -9 6 C-9 5.34 -9 4.68 -9 4 C-5.62902617 2.50178941 -3.79557881 2 0 2 C0 1.34 0 0.68 0 0 Z " fill="#CC6133" transform="translate(255,361)"/>
<path d="M0 0 C0.66 0.33 1.32 0.66 2 1 C-0.5218074 4.09494545 -3.14011925 5.6463896 -6.6875 7.3125 C-11.40119072 9.53357436 -15.09430661 12.30457299 -18.9921875 15.7421875 C-21 17 -21 17 -23.2578125 16.6953125 C-23.83273438 16.46585938 -24.40765625 16.23640625 -25 16 C-17.53130972 9.63839434 -9.41863419 3.13954473 0 0 Z " fill="#CD723C" transform="translate(190,90)"/>
<path d="M0 0 C1.32 0 2.64 0 4 0 C4.66 2.31 5.32 4.62 6 7 C6.66 7 7.32 7 8 7 C8 7.66 8 8.32 8 9 C8.66 9 9.32 9 10 9 C10 9.66 10 10.32 10 11 C10.66 11 11.32 11 12 11 C13.35386936 12.65002828 14.68678142 14.3174387 16 16 C16.66 16.33 17.32 16.66 18 17 C18 17.99 18 18.98 18 20 C18.66 20 19.32 20 20 20 C20 20.66 20 21.32 20 22 C21.65 22.66 23.3 23.32 25 24 C24.34 24.66 23.68 25.32 23 26 C3.55256065 8.65936658 3.55256065 8.65936658 0 0 Z " fill="#D06F2F" transform="translate(145,310)"/>
<path d="M0 0 C0.33 0 0.66 0 1 0 C1.07485856 4.25004671 1.12893167 8.49973134 1.16479492 12.75024414 C1.17976508 14.19236955 1.20014868 15.63445036 1.22631836 17.07641602 C1.37063064 25.23996381 1.25771556 32.34736108 -2 40 C-2.33 40 -2.66 40 -3 40 C-2.93941406 39.22398437 -2.87882812 38.44796875 -2.81640625 37.6484375 C-2.36019147 31.76677617 -1.91655121 25.88461233 -1.5 20 C-1.02793258 13.33111102 -0.5203788 6.6652774 0 0 Z " fill="#C64F2C" transform="translate(293,130)"/>
<path d="M0 0 C3.55201502 2.00568326 7.0793378 4.02859572 10.54296875 6.18359375 C18.1525687 10.9030538 25.5757243 14.87815482 34 18 C34 18.33 34 18.66 34 19 C28.73006278 19.45402536 25.15991509 17.95207309 20.625 15.5 C19.98433594 15.16613281 19.34367187 14.83226562 18.68359375 14.48828125 C17.11666329 13.66973549 15.55749759 12.83635487 14 12 C14 11.34 14 10.68 14 10 C13.01 10 12.02 10 11 10 C11 9.34 11 8.68 11 8 C9.88625 7.7525 8.7725 7.505 7.625 7.25 C4 6 4 6 2.5625 3.875 C2.376875 3.25625 2.19125 2.6375 2 2 C1.34 2 0.68 2 0 2 C0 1.34 0 0.68 0 0 Z " fill="#CA7930" transform="translate(72,389)"/>
<path d="M0 0 C0.66 0 1.32 0 2 0 C0.56242481 4.47516344 -1.72521114 7.17096448 -4.9375 10.5625 C-7.8069953 13.60948986 -10.56846288 16.58942813 -13 20 C-13.99 19.67 -14.98 19.34 -16 19 C-14.44505919 16.91064265 -12.88155426 14.82871869 -11.3125 12.75 C-10.87744141 12.16347656 -10.44238281 11.57695313 -9.99414062 10.97265625 C-7.29762421 7.41724942 -4.57170935 4.72725968 -1 2 C-0.67 1.34 -0.34 0.68 0 0 Z " fill="#D07538" transform="translate(163,107)"/>
<path d="M0 0 C6.18543578 7.73179472 11 19.0334547 11 29 C10.34 29 9.68 29 9 29 C7.58271774 24.83319014 6.18309038 20.69574346 5.0625 16.4375 C4.1906834 13.61691687 3.24621866 11.44904204 1.875 8.875 C0.24538903 5.77270357 -0.4461173 3.56893838 0 0 Z " fill="#C55147" transform="translate(379,130)"/>
<path d="M0 0 C0.99 0.495 0.99 0.495 2 1 C5.63612125 11.94315916 5.66721182 23.5933983 6 35 C5.01 35.495 5.01 35.495 4 36 C3.96261719 34.82824219 3.92523438 33.65648437 3.88671875 32.44921875 C3.57016934 24.39651069 3.09122666 17.01451396 0.6328125 9.28125 C-0.25619428 6.07643544 -0.22014317 3.30214752 0 0 Z " fill="#C73F33" transform="translate(389,159)"/>
<path d="M0 0 C0 0.33 0 0.66 0 1 C-4.19791375 1.59768845 -8.39707159 2.18537219 -12.59765625 2.76391602 C-14.02577213 2.96203146 -15.45351544 3.16285251 -16.88085938 3.36645508 C-18.93527199 3.65902289 -20.99083793 3.94176153 -23.046875 4.22265625 C-24.28276367 4.39547119 -25.51865234 4.56828613 -26.79199219 4.74633789 C-29.5934411 4.96785276 -31.38360105 4.91688217 -34 4 C-23.37147095 -0.88912336 -11.48867839 -0.18937382 0 0 Z " fill="#C55A3D" transform="translate(309,352)"/>
<path d="M0 0 C0 0.33 0 0.66 0 1 C-1.65 1 -3.3 1 -5 1 C-5 1.66 -5 2.32 -5 3 C-6.39025391 3.09087891 -6.39025391 3.09087891 -7.80859375 3.18359375 C-9.00613281 3.26738281 -10.20367187 3.35117187 -11.4375 3.4375 C-12.63246094 3.51871094 -13.82742188 3.59992188 -15.05859375 3.68359375 C-17.88570244 3.67656114 -17.88570244 3.67656114 -19 5 C-20.69141656 4.91036938 -22.37959602 4.75422324 -24.0625 4.5625 C-25.44115234 4.40974609 -25.44115234 4.40974609 -26.84765625 4.25390625 C-27.55792969 4.17011719 -28.26820313 4.08632813 -29 4 C-29 3.67 -29 3.34 -29 3 C-25.66805501 2.49045093 -22.33426366 1.99412986 -19 1.5 C-18.06542969 1.35691406 -17.13085938 1.21382813 -16.16796875 1.06640625 C-10.71059609 0.2649739 -5.51529539 -0.15609327 0 0 Z " fill="#F8D7C9" transform="translate(303,354)"/>
<path d="M0 0 C-3.90823148 3.67136897 -6.70975967 4.49132305 -12 5 C-12.33 5.33 -12.66 5.66 -13 6 C-14.68183948 6.23287008 -16.3712416 6.41264166 -18.0625 6.5625 C-18.98160156 6.64628906 -19.90070313 6.73007813 -20.84765625 6.81640625 C-21.55792969 6.87699219 -22.26820313 6.93757813 -23 7 C-22 5 -22 5 -20.21484375 4.21875 C-5.71590587 -0.35724412 -5.71590587 -0.35724412 0 0 Z " fill="#CE6C37" transform="translate(217,83)"/>
<path d="M0 0 C0.33 0 0.66 0 1 0 C1 4.95 1 9.9 1 15 C0.34 15 -0.32 15 -1 15 C-0.97679687 15.91523437 -0.95359375 16.83046875 -0.9296875 17.7734375 C-0.91164062 18.96195313 -0.89359375 20.15046875 -0.875 21.375 C-0.85179687 22.55835938 -0.82859375 23.74171875 -0.8046875 24.9609375 C-1 28 -1 28 -3 30 C-3.48741178 19.61993429 -2.03977033 10.13814418 0 0 Z " fill="#FCEDD2" transform="translate(36,111)"/>
<path d="M0 0 C0.7734375 1.6796875 0.7734375 1.6796875 1 4 C-0.8359375 6.5078125 -0.8359375 6.5078125 -3.375 9.125 C-6.56684379 12.29322361 -6.56684379 12.29322361 -9 16 C-9.66 16 -10.32 16 -11 16 C-9.95267119 9.19236273 -4.74928995 4.53341313 0 0 Z " fill="#CA6035" transform="translate(246,244)"/>
<path d="M0 0 C0 5.28 0 10.56 0 16 C-0.33 16 -0.66 16 -1 16 C-1 11.05 -1 6.1 -1 1 C-4.3 1 -7.6 1 -11 1 C-11.33 1.99 -11.66 2.98 -12 4 C-15.3 4.33 -18.6 4.66 -22 5 C-14.69638837 -0.47770873 -8.89138286 -0.19758629 0 0 Z " fill="#BE654A" transform="translate(283,229)"/>
<path d="M0 0 C5.59756187 4.55615501 10.57315833 9.26150154 15 15 C12.61435923 14.42415568 10.33317216 13.77772405 8 13 C8 12.01 8 11.02 8 10 C7.34 10 6.68 10 6 10 C6 9.34 6 8.68 6 8 C5.01 7.67 4.02 7.34 3 7 C3 6.34 3 5.68 3 5 C2.01 4.67 1.02 4.34 0 4 C0 2.68 0 1.36 0 0 Z " fill="#CF7B2D" transform="translate(57,374)"/>
<path d="M0 0 C0.33 0.66 0.66 1.32 1 2 C-0.37570015 5.7869827 -1.46677931 7.64451954 -4.84765625 9.8984375 C-5.90855469 10.38570313 -6.96945312 10.87296875 -8.0625 11.375 C-9.12597656 11.87773437 -10.18945312 12.38046875 -11.28515625 12.8984375 C-14 14 -14 14 -16 14 C-16 13.34 -16 12.68 -16 12 C-15.113125 11.773125 -14.22625 11.54625 -13.3125 11.3125 C-9.48374508 9.79544616 -7.75013653 8.03220182 -5 5 C-3.33333333 3.33333333 -1.66666667 1.66666667 0 0 Z " fill="#CA5028" transform="translate(279,469)"/>
<path d="M0 0 C0.99 0.33 1.98 0.66 3 1 C2.09507812 1.85271484 2.09507812 1.85271484 1.171875 2.72265625 C-3.46508319 7.20255618 -7.16075618 11.19806697 -10 17 C-11.125 13.25 -11.125 13.25 -10 11 C-9.34 11 -8.68 11 -8 11 C-8 9.68 -8 8.36 -8 7 C-6.125 4.75 -6.125 4.75 -4 3 C-3.34 3 -2.68 3 -2 3 C-2 2.34 -2 1.68 -2 1 C-1.34 0.67 -0.68 0.34 0 0 Z " fill="#CF6A32" transform="translate(199,150)"/>
<path d="M0 0 C2.14265515 3.21398272 3.26579078 6.17784342 4.5625 9.8125 C4.99691406 11.01519531 5.43132813 12.21789062 5.87890625 13.45703125 C6.89105629 16.65570752 7.5477614 19.68188983 8 23 C2.68143057 16.61771668 -0.17974593 9.25079096 -1 1 C-0.67 0.67 -0.34 0.34 0 0 Z " fill="#FDF0D9" transform="translate(37,332)"/>
<path d="M0 0 C-3.54082916 2.1244975 -6.94991891 2.46508363 -11 3 C-11.33 3.33 -11.66 3.66 -12 4 C-14.69235776 4.23678716 -17.36498156 4.42198025 -20.0625 4.5625 C-21.20041992 4.62727539 -21.20041992 4.62727539 -22.36132812 4.69335938 C-24.24065438 4.79973633 -26.12030244 4.90039934 -28 5 C-25.01800843 2.01800843 -21.39302631 2.00502652 -17.375 1.375 C-16.59253906 1.2409375 -15.81007813 1.106875 -15.00390625 0.96875 C-9.93838111 0.14549716 -5.1303614 -0.12913953 0 0 Z " fill="#F9E0C4" transform="translate(136,33)"/>
<path d="M0 0 C1.49080078 0.02707031 1.49080078 0.02707031 3.01171875 0.0546875 C3.77097656 0.07789063 4.53023437 0.10109375 5.3125 0.125 C2.66972044 1.88685304 1.36382516 2.50938582 -1.59375 3.1953125 C-2.33753906 3.36933594 -3.08132812 3.54335937 -3.84765625 3.72265625 C-5.00587891 3.98369141 -5.00587891 3.98369141 -6.1875 4.25 C-7.34572266 4.52263672 -7.34572266 4.52263672 -8.52734375 4.80078125 C-11.63758704 5.51770041 -14.48531695 6.125 -17.6875 6.125 C-17.6875 5.465 -17.6875 4.805 -17.6875 4.125 C-17.07261719 4.00382813 -16.45773438 3.88265625 -15.82421875 3.7578125 C-15.01597656 3.59023437 -14.20773438 3.42265625 -13.375 3.25 C-12.57449219 3.08757812 -11.77398437 2.92515625 -10.94921875 2.7578125 C-1.00783762 -0.02371383 -1.00783762 -0.02371383 0 0 Z " fill="#CC6333" transform="translate(233.6875,134.875)"/>
<path d="M0 0 C0 3 0 3 -1.57421875 4.71875 C-5.23478476 7.80418087 -8.74847128 10.74137537 -13 13 C-11.65157445 7.43774461 -7.43310121 4.26557159 -3 1 C-2.01 0.67 -1.02 0.34 0 0 Z " fill="#C43A39" transform="translate(448,382)"/>
<path d="M0 0 C0.33 0.66 0.66 1.32 1 2 C-1.79912938 5.58638452 -4.72965837 8.83515396 -8.0625 11.9375 C-8.71347656 12.54464844 -9.36445313 13.15179688 -10.03515625 13.77734375 C-12 15 -12 15 -14.24609375 14.69140625 C-14.82488281 14.46324219 -15.40367187 14.23507812 -16 14 C-15.43152344 13.57589844 -14.86304688 13.15179688 -14.27734375 12.71484375 C-9.12443923 8.80070091 -4.44499803 4.7022648 0 0 Z " fill="#F6D0C7" transform="translate(364,322)"/>
<path d="M0 0 C0 0.99 0 1.98 0 3 C-4.03328438 6.44978893 -8.91781973 8.60240043 -14 10 C-11.02160153 5.65650223 -5.69716881 0 0 0 Z " fill="#CA643D" transform="translate(261,234)"/>
<path d="M0 0 C0.33 0 0.66 0 1 0 C0.67 7.59 0.34 15.18 0 23 C-0.33 23 -0.66 23 -1 23 C-1.74507544 16.62694402 -2.10349817 10.41688675 -2 4 C-1.34 4 -0.68 4 0 4 C0 2.68 0 1.36 0 0 Z " fill="#F9DFC4" transform="translate(125,185)"/>
<path d="M0 0 C0.78375 0.04125 1.5675 0.0825 2.375 0.125 C-2.625 4.125 -7.625 8.125 -12.625 12.125 C-12.955 10.805 -13.285 9.485 -13.625 8.125 C-11.975 7.795 -10.325 7.465 -8.625 7.125 C-8.295 6.135 -7.965 5.145 -7.625 4.125 C-6.635 4.125 -5.645 4.125 -4.625 4.125 C-4.625 3.465 -4.625 2.805 -4.625 2.125 C-2.625 0.125 -2.625 0.125 0 0 Z " fill="#FCEBD6" transform="translate(177.625,94.875)"/>
<path d="M0 0 C0 5.28 0 10.56 0 16 C-0.33 16 -0.66 16 -1 16 C-1 11.71 -1 7.42 -1 3 C-4.3 3 -7.6 3 -11 3 C-7.4144509 0.60963393 -4.2914923 0 0 0 Z " fill="#FCE1CE" transform="translate(238,136)"/>
<path d="M0 0 C0.33 0.99 0.66 1.98 1 3 C-4.04615385 8.78461538 -4.04615385 8.78461538 -8.875 9.875 C-10.421875 9.936875 -10.421875 9.936875 -12 10 C-7.25 6 -7.25 6 -5 6 C-5 5.34 -5 4.68 -5 4 C-3.37373596 2.61767557 -1.7074998 1.28062485 0 0 Z " fill="#C6563E" transform="translate(323,282)"/>
<path d="M0 0 C0.33 1.32 0.66 2.64 1 4 C0.67 4 0.34 4 0 4 C-0.2475 4.886875 -0.495 5.77375 -0.75 6.6875 C-2.03934768 10.10427135 -3.59980129 12.2797748 -6 15 C-5.48640535 9.8640535 -3.7815677 3.7815677 0 0 Z " fill="#CE734A" transform="translate(234,260)"/>
<path d="M0 0 C0.99 0 1.98 0 3 0 C3 0.66 3 1.32 3 2 C3.66 2 4.32 2 5 2 C5.99 3.485 5.99 3.485 7 5 C7.99 5.33 8.98 5.66 10 6 C10.6875 8.0625 10.6875 8.0625 11 10 C11.66 10 12.32 10 13 10 C12.67 10.66 12.34 11.32 12 12 C11.46890625 11.52949219 10.9378125 11.05898438 10.390625 10.57421875 C9.68421875 9.95160156 8.9778125 9.32898438 8.25 8.6875 C7.55390625 8.07261719 6.8578125 7.45773437 6.140625 6.82421875 C4.03021317 4.97083835 4.03021317 4.97083835 1.734375 3.39453125 C1.16203125 2.93433594 0.5896875 2.47414063 0 2 C0 1.34 0 0.68 0 0 Z " fill="#FAE8CE" transform="translate(63,379)"/>
<path d="M0 0 C1.72141768 2.58212652 2.57158383 4.36383668 3.5 7.25 C3.75394531 8.03761719 4.00789063 8.82523437 4.26953125 9.63671875 C5.23035644 12.74527083 6.13262226 15.86409586 7 19 C6.34 18.67 5.68 18.34 5 18 C5 17.34 5 16.68 5 16 C4.34 16 3.68 16 3 16 C2.49411853 14.08487728 1.99551609 12.16783078 1.5 10.25 C1.2215625 9.18265625 0.943125 8.1153125 0.65625 7.015625 C0 4 0 4 0 0 Z " fill="#D18D47" transform="translate(35,332)"/>
<path d="M0 0 C0.33 0 0.66 0 1 0 C0.92928 3.53599998 0.80836985 6.1041863 -1.625 8.80078125 C-3.37220916 10.27675028 -5.13784833 11.67266996 -7 13 C-6.36276989 9.52709591 -4.97562783 7.15645247 -3 4.25 C-2.46375 3.45078125 -1.9275 2.6515625 -1.375 1.828125 C-0.92125 1.22484375 -0.4675 0.6215625 0 0 Z " fill="#C75D3E" transform="translate(292,48)"/>
<path d="M0 0 C1.1171875 3.71875 1.1171875 3.71875 0.0625 6.25 C-0.4634375 7.11625 -0.4634375 7.11625 -1 8 C-1.66 8 -2.32 8 -3 8 C-3.33 9.65 -3.66 11.3 -4 13 C-4.66 13 -5.32 13 -6 13 C-6 13.99 -6 14.98 -6 16 C-6.66 16 -7.32 16 -8 16 C-6.57250019 12.20950293 -4.83763458 8.72877544 -2.875 5.1875 C-2.33617187 4.21167969 -1.79734375 3.23585938 -1.2421875 2.23046875 C-0.83226562 1.49441406 -0.42234375 0.75835937 0 0 Z " fill="#C25F43" transform="translate(291,448)"/>
<path d="M0 0 C0.66 0 1.32 0 2 0 C0.62712658 3.69876091 -1.06355453 6.9514476 -3.125 10.3125 C-3.66382813 11.19550781 -4.20265625 12.07851563 -4.7578125 12.98828125 C-5.37269531 13.98408203 -5.37269531 13.98408203 -6 15 C-6.33 13.68 -6.66 12.36 -7 11 C-6.34 11 -5.68 11 -5 11 C-5 10.01 -5 9.02 -5 8 C-4.34 8 -3.68 8 -3 8 C-3 6.68 -3 5.36 -3 4 C-2.34 4 -1.68 4 -1 4 C-0.67 2.68 -0.34 1.36 0 0 Z " fill="#FBE5D8" transform="translate(288,450)"/>
<path d="M0 0 C0.66 0 1.32 0 2 0 C1.85950482 1.47968324 1.71245174 2.95874516 1.5625 4.4375 C1.48128906 5.26121094 1.40007812 6.08492187 1.31640625 6.93359375 C1 9 1 9 0 10 C-0.23075082 11.34747084 -0.41153063 12.70377565 -0.5625 14.0625 C-0.706875 15.361875 -0.85125 16.66125 -1 18 C-1.33 18 -1.66 18 -2 18 C-2.054348 15.9377952 -2.09294961 13.87517184 -2.125 11.8125 C-2.14820313 10.66394531 -2.17140625 9.51539063 -2.1953125 8.33203125 C-2.00484152 5.08259628 -1.39360127 2.91339479 0 0 Z " fill="#D06D23" transform="translate(132,161)"/>
<path d="M0 0 C-2.97812597 1.98541731 -5.49843969 2.98825276 -8.875 4.125 C-9.90367187 4.47820312 -10.93234375 4.83140625 -11.9921875 5.1953125 C-14.82719431 5.95376887 -17.08640824 6.16126892 -20 6 C-16.92604658 4.39431139 -13.80983498 3.09106164 -10.5625 1.875 C-9.63566406 1.52179688 -8.70882812 1.16859375 -7.75390625 0.8046875 C-5.01230859 0.00359655 -2.83699273 -0.15446421 0 0 Z " fill="#FBE2D4" transform="translate(264,73)"/>
<path d="M0 0 C0 3.74016583 -0.9341591 4.45276193 -3.375 7.1875 C-4.00148438 7.90292969 -4.62796875 8.61835937 -5.2734375 9.35546875 C-7 11 -7 11 -9 11 C-9 11.66 -9 12.32 -9 13 C-9.66 12.67 -10.32 12.34 -11 12 C-3.70159453 3.55353075 -3.70159453 3.55353075 0 0 Z " fill="#FCE9CE" transform="translate(66,61)"/>
<path d="M0 0 C0.66 0.99 1.32 1.98 2 3 C1.01 3.33 0.02 3.66 -1 4 C-1.144375 4.78375 -1.28875 5.5675 -1.4375 6.375 C-2 9 -2 9 -3 11 C-3.66 11 -4.32 11 -5 11 C-5 11.99 -5 12.98 -5 14 C-5.99 14.33 -6.98 14.66 -8 15 C-6.62712658 11.30123909 -4.93644547 8.0485524 -2.875 4.6875 C-2.33617187 3.80449219 -1.79734375 2.92148437 -1.2421875 2.01171875 C-0.83226562 1.34785156 -0.42234375 0.68398438 0 0 Z " fill="#C7694D" transform="translate(300,433)"/>
<path d="M0 0 C5.28137429 0.51525603 8.57221156 2.25477117 13 5 C13 5.33 13 5.66 13 6 C9.05272412 6.17942163 6.4019487 6.09350689 3 4 C3 3.01 3 2.02 3 1 C2.01 0.67 1.02 0.34 0 0 Z " fill="#CE7544" transform="translate(188,415)"/>
<path d="M0 0 C-0.75 1.9375 -0.75 1.9375 -2 4 C-4.0625 4.625 -4.0625 4.625 -6 5 C-6.33 5.66 -6.66 6.32 -7 7 C-9.4375 8.6875 -9.4375 8.6875 -12 10 C-12.66 9.67 -13.32 9.34 -14 9 C-12.37680325 7.68527053 -10.751385 6.37328338 -9.125 5.0625 C-8.22007813 4.33160156 -7.31515625 3.60070313 -6.3828125 2.84765625 C-2.71035941 0 -2.71035941 0 0 0 Z " fill="#FBE7CB" transform="translate(86,47)"/>
<path d="M0 0 C0 0.33 0 0.66 0 1 C-1.175625 1.12375 -2.35125 1.2475 -3.5625 1.375 C-6.48411821 1.72662839 -8.8928529 2.26785587 -11.75 3.125 C-14.979584 3.99450339 -15.95927503 3.93865858 -19 3 C-12.47059106 0.04328652 -7.12600133 -0.35368021 0 0 Z " fill="#CA502C" transform="translate(294,353)"/>
<path d="M0 0 C0.33 0 0.66 0 1 0 C1 5.61 1 11.22 1 17 C-3 16 -3 16 -5 13 C-2.525 13.495 -2.525 13.495 0 14 C0 9.38 0 4.76 0 0 Z " fill="#C46A35" transform="translate(181,327)"/>
<path d="M0 0 C0 0.33 0 0.66 0 1 C-5.30094216 2.80304155 -10.60308488 4.50723624 -16 6 C-16.33 5.34 -16.66 4.68 -17 4 C-15.35 4 -13.7 4 -12 4 C-12 3.34 -12 2.68 -12 2 C-7.8794254 0.00214565 -4.54805635 -0.17835515 0 0 Z " fill="#FCE9D8" transform="translate(204,85)"/>
<path d="M0 0 C0.66 0.33 1.32 0.66 2 1 C0.68 5.29 -0.64 9.58 -2 14 C-2.33 14 -2.66 14 -3 14 C-3.32374517 8.49633208 -3.53286034 4.56327794 0 0 Z " fill="#CC692E" transform="translate(186,168)"/>
<path d="M0 0 C10.55808656 0.77904328 10.55808656 0.77904328 15 3 C15 3.99 15 4.98 15 6 C10 4.33333333 5 2.66666667 0 1 C0 0.67 0 0.34 0 0 Z " fill="#C4514B" transform="translate(407,38)"/>
<path d="M0 0 C1.65 0 3.3 0 5 0 C5 0.66 5 1.32 5 2 C6.98 2.66 8.96 3.32 11 4 C11 4.66 11 5.32 11 6 C11.66 6 12.32 6 13 6 C12.67 6.99 12.34 7.98 12 9 C11.13375 8.236875 10.2675 7.47375 9.375 6.6875 C6.46399345 4.24779927 3.47056439 2.57001723 0 1 C0 0.67 0 0.34 0 0 Z " fill="#FCE9D7" transform="translate(192,415)"/>
<path d="M0 0 C0.66 0.33 1.32 0.66 2 1 C-0.64 3.97 -3.28 6.94 -6 10 C-6.99 9.67 -7.98 9.34 -9 9 C-6.31941902 5.42589203 -3.57410797 2.68058098 0 0 Z " fill="#FCE4D4" transform="translate(243,371)"/>
<path d="M0 0 C0.309375 0.639375 0.61875 1.27875 0.9375 1.9375 C1.8345163 3.93610821 1.8345163 3.93610821 3 5 C3.23363881 6.84891946 3.41303635 8.70488031 3.5625 10.5625 C3.64628906 11.57441406 3.73007813 12.58632813 3.81640625 13.62890625 C3.87699219 14.41136719 3.93757812 15.19382812 4 16 C0.42530375 12.42530375 0.03082717 7.97105579 -0.125 3.0625 C-0.08375 2.051875 -0.0425 1.04125 0 0 Z " fill="#CD6D28" transform="translate(130,267)"/>
<path d="M0 0 C-1.4317521 5.01113235 -3.98445693 6.94469549 -8 10 C-6.83833955 5.74057835 -5.25202969 0 0 0 Z " fill="#CE6E30" transform="translate(165,107)"/>
<path d="M0 0 C0.66 0.33 1.32 0.66 2 1 C-1.87564767 4.61139896 -1.87564767 4.61139896 -4 6 C-6.375 5.8125 -6.375 5.8125 -8 5 C-5.31158141 2.74754119 -3.35358125 1.11786042 0 0 Z " fill="#CE692A" transform="translate(173,101)"/>
<path d="M0 0 C1.2238892 2.44777839 1.016364 3.73390541 0.75 6.4375 C0.68296875 7.21996094 0.6159375 8.00242187 0.546875 8.80859375 C-0.08974532 11.35962232 -1.00971125 12.33607581 -3 14 C-3.40652968 8.57960425 -2.03993514 4.92984325 0 0 Z " fill="#D57614" transform="translate(36,103)"/>
<path d="M0 0 C0.99 0 1.98 0 3 0 C1.50902342 3.7952131 -0.75700849 5.61042731 -4 8 C-2.25 2.25 -2.25 2.25 0 0 Z " fill="#C94E33" transform="translate(310,421)"/>
<path d="M0 0 C0 0.99 0 1.98 0 3 C-1.32 3 -2.64 3 -4 3 C-4 3.66 -4 4.32 -4 5 C-6.31 5 -8.62 5 -11 5 C-8.12934225 2.12934225 -4.13678472 0 0 0 Z " fill="#C95B40" transform="translate(311,292)"/>
<path d="M0 0 C0.33 0 0.66 0 1 0 C2.43484866 6.69596042 1.59058175 10.20575649 -2 16 C-3.58272601 12.83454798 -2.33086619 10.25581122 -1.5625 6.875 C-1.27503906 5.59367187 -0.98757813 4.31234375 -0.69140625 2.9921875 C-0.46324219 2.00476563 -0.23507812 1.01734375 0 0 Z " fill="#F5C9C5" transform="translate(393,257)"/>
<path d="M0 0 C0.33 0 0.66 0 1 0 C1 2.31 1 4.62 1 7 C0.34 7 -0.32 7 -1 7 C-1.33 8.32 -1.66 9.64 -2 11 C-2.95465783 8.83032311 -3.14401212 7.43671207 -2.3984375 5.17578125 C-1.64129615 3.4315257 -0.82390802 1.71372869 0 0 Z " fill="#F6DCBC" transform="translate(40,99)"/>
<path d="M0 0 C-1.77444972 2.24606427 -2.58352485 2.95081002 -5.48046875 3.29296875 C-6.37378906 3.25816406 -7.26710937 3.22335938 -8.1875 3.1875 C-9.08855469 3.16042969 -9.98960937 3.13335937 -10.91796875 3.10546875 C-11.94857422 3.05326172 -11.94857422 3.05326172 -13 3 C-8.72352613 0.14901742 -5.0682068 -0.14480591 0 0 Z " fill="#CF7B4F" transform="translate(217,83)"/>
<path d="M0 0 C1.43739513 -0.02712066 2.87493863 -0.04645067 4.3125 -0.0625 C5.51326172 -0.07990234 5.51326172 -0.07990234 6.73828125 -0.09765625 C9 0 9 0 12 1 C12 1.66 12 2.32 12 3 C3.96428571 2.19642857 3.96428571 2.19642857 0 0 Z " fill="#F6DEC2" transform="translate(106,407)"/>
<path d="M0 0 C6.93 0.495 6.93 0.495 14 1 C14 1.33 14 1.66 14 2 C12.23186888 2.24915939 10.46025018 2.47366632 8.6875 2.6875 C7.70136719 2.81511719 6.71523437 2.94273437 5.69921875 3.07421875 C3 3 3 3 0 0 Z " fill="#C57231" transform="translate(119,411)"/>
<path d="M0 0 C-3.3340947 2.19097652 -6.04179141 3.43454163 -10 4 C-10 3.34 -10 2.68 -10 2 C-8.71211992 1.46987262 -7.41953322 0.9511671 -6.125 0.4375 C-5.40570313 0.14746094 -4.68640625 -0.14257812 -3.9453125 -0.44140625 C-2 -1 -2 -1 0 0 Z " fill="#C6332B" transform="translate(418,405)"/>
<path d="M0 0 C0.33 0 0.66 0 1 0 C0.67 2.31 0.34 4.62 0 7 C-0.99 7.33 -1.98 7.66 -3 8 C-3 8.66 -3 9.32 -3 10 C-3.66 9.67 -4.32 9.34 -5 9 C-3.35 6.03 -1.7 3.06 0 0 Z " fill="#C35153" transform="translate(467,354)"/>
<path d="M0 0 C2.21399303 3.79541663 3.00980198 7.75629421 4 12 C3.34 12 2.68 12 2 12 C2 10.68 2 9.36 2 8 C1.34 8 0.68 8 0 8 C0 5.36 0 2.72 0 0 Z " fill="#F9E1C6" transform="translate(133,285)"/>
<path d="M0 0 C0.33 0.99 0.66 1.98 1 3 C-1.31 4.98 -3.62 6.96 -6 9 C-4.68775452 5.06326356 -3.08089673 2.77280706 0 0 Z " fill="#FAE1C9" transform="translate(197,155)"/>
<path d="M0 0 C0.99 0 1.98 0 3 0 C1.54744301 3.82946843 -0.42895561 5.12050295 -4 7 C-3.6875 5.0625 -3.6875 5.0625 -3 3 C-2.01 2.67 -1.02 2.34 0 2 C0 1.34 0 0.68 0 0 Z " fill="#FBEAD7" transform="translate(160,107)"/>
<path d="M0 0 C0.33 0 0.66 0 1 0 C0.67 3.3 0.34 6.6 0 10 C-0.66 10 -1.32 10 -2 10 C-2.17942163 6.05272412 -2.09350689 3.4019487 0 0 Z " fill="#FEF0E1" transform="translate(227,272)"/>
<path d="M0 0 C-0.33 0.66 -0.66 1.32 -1 2 C-3.28515625 2.4140625 -3.28515625 2.4140625 -6.0625 2.625 C-6.98160156 2.69976562 -7.90070313 2.77453125 -8.84765625 2.8515625 C-9.55792969 2.90054688 -10.26820313 2.94953125 -11 3 C-7.24528933 -0.16492205 -4.90567888 -0.28301994 0 0 Z " fill="#C65F39" transform="translate(272,231)"/>
<path d="M0 0 C-3.36423277 2.96052484 -6.69159287 3.92289822 -11 5 C-11 4.34 -11 3.68 -11 3 C-7.14243493 0.84694043 -4.44870215 -0.39253254 0 0 Z " fill="#FEE8D9" transform="translate(268,230)"/>
<path d="M0 0 C2.475 0.99 2.475 0.99 5 2 C3.68 2.33 2.36 2.66 1 3 C1 5.64 1 8.28 1 11 C0.67 11 0.34 11 0 11 C0 7.37 0 3.74 0 0 Z " fill="#B76356" transform="translate(339,92)"/>
<path d="M0 0 C1.5 1 1.5 1 3 3 C3.27345479 5.71846235 3.13491285 8.25677199 3 11 C0.87953208 7.46588679 0.46800711 4.05606165 0 0 Z " fill="#C43B3D" transform="translate(470,91)"/>
<path d="M0 0 C0 0.66 0 1.32 0 2 C-1.96147874 3.38938077 -3.96166576 4.7260411 -6 6 C-6 4.35 -6 2.7 -6 1 C-3 0 -3 0 0 0 Z " fill="#D17D2D" transform="translate(77,51)"/>
<path d="M0 0 C0 0.66 0 1.32 0 2 C-3.3 2.66 -6.6 3.32 -10 4 C-6.58908673 0.88145073 -4.68377325 -0.53528837 0 0 Z " fill="#D57118" transform="translate(97,39)"/>
<path d="M0 0 C2.97 1.65 5.94 3.3 9 5 C5 6 5 6 2.25 4.75 C1.5075 4.1725 0.765 3.595 0 3 C0 2.01 0 1.02 0 0 Z " fill="#C55D32" transform="translate(236,474)"/>
<path d="M0 0 C1 2 1 2 0.375 4.0625 C-1 6 -1 6 -3.625 6.75 C-4.800625 6.87375 -4.800625 6.87375 -6 7 C-4.02 4.69 -2.04 2.38 0 0 Z " fill="#C76B4A" transform="translate(279,469)"/>
<path d="M0 0 C3.08089673 2.77280706 4.68775452 5.06326356 6 9 C4.125 8.4375 4.125 8.4375 2 7 C0.75 3.375 0.75 3.375 0 0 Z " fill="#C77043" transform="translate(207,428)"/>
<path d="M0 0 C1.65 0 3.3 0 5 0 C2.47043472 3.0916909 -0.22454612 3.90931332 -4 5 C-4 4.01 -4 3.02 -4 2 C-2.68 2 -1.36 2 0 2 C0 1.34 0 0.68 0 0 Z " fill="#CD663F" transform="translate(255,361)"/>
<path d="M0 0 C0.66 0.33 1.32 0.66 2 1 C1.44271087 4.34373475 0.64826111 7.03312999 -1 10 C-1.125 2.25 -1.125 2.25 0 0 Z " fill="#F9E1C7" transform="translate(130,160)"/>
<path d="M0 0 C1.98 1.65 3.96 3.3 6 5 C5.01 5.33 4.02 5.66 3 6 C2.01 5.34 1.02 4.68 0 4 C0 2.68 0 1.36 0 0 Z " fill="#CE853A" transform="translate(57,374)"/>
<path d="M0 0 C0.66 0.33 1.32 0.66 2 1 C-0.25 3.5625 -0.25 3.5625 -3 6 C-4.32 5.67 -5.64 5.34 -7 5 C-4.69 3.35 -2.38 1.7 0 0 Z " fill="#FCE1DA" transform="translate(355,331)"/>
<path d="M0 0 C2.01136276 2.55991624 3.62845496 5.04590299 5 8 C3.68 8 2.36 8 1 8 C0.67 5.36 0.34 2.72 0 0 Z " fill="#FBE5CC" transform="translate(140,303)"/>
<path d="M0 0 C0.99 0.33 1.98 0.66 3 1 C1.38405168 3.04119788 -0.2856382 5.04072937 -2 7 C-2.66 7 -3.32 7 -4 7 C-3.43628586 3.73045798 -2.50037734 2.17424117 0 0 Z " fill="#CE5829" transform="translate(239,253)"/>
</svg>
