<?xml version="1.0" encoding="UTF-8"?>
<svg version="1.1" xmlns="http://www.w3.org/2000/svg" width="1254" height="1254">
<path d="M0 0 C413.82 0 827.64 0 1254 0 C1254 413.82 1254 827.64 1254 1254 C840.18 1254 426.36 1254 0 1254 C0 840.18 0 426.36 0 0 Z " fill="#FDFDFC" transform="translate(0,0)"/>
<path d="M0 0 C413.82 0 827.64 0 1254 0 C1254 413.82 1254 827.64 1254 1254 C840.18 1254 426.36 1254 0 1254 C0 840.18 0 426.36 0 0 Z M229 85 C227.60748662 85.30556099 226.21437992 85.60842982 224.82071161 85.90867919 C200.8995054 91.12621991 178.30325751 102.03997543 159 117 C158.071875 117.71671875 157.14375 118.4334375 156.1875 119.171875 C144.65773872 128.35546393 133.89831195 138.21446981 125 150 C124.11986854 151.12896619 123.23965602 152.25786917 122.359375 153.38671875 C112.35590064 166.42181526 103.33601954 181.3087578 97.7746582 196.83789062 C97.23486157 198.34448973 96.67160692 199.84280212 96.09057617 201.33398438 C93.28537098 208.6588027 91.45204974 216.02633123 89.8125 223.6875 C89.55275391 224.85861328 89.29300781 226.02972656 89.02539062 227.23632812 C86.76979919 237.57008425 85.8532941 247.16344518 85.87415886 257.72636032 C85.87270542 259.00502968 85.87125198 260.28369903 85.86975449 261.60111594 C85.8658635 265.15004499 85.86818883 268.69894679 85.87153245 272.24787539 C85.87406974 276.10905094 85.87080898 279.97022233 85.86828911 283.83139729 C85.86467651 290.5986692 85.86478757 297.36593314 85.86733627 304.13320541 C85.87111606 314.19653398 85.86918639 324.25985581 85.86612797 334.32318434 C85.86085899 352.29657974 85.86131996 370.2699716 85.86420688 388.24336734 C85.86672127 403.97457488 85.86737968 419.70578113 85.86618423 435.43698883 C85.86610785 436.48000289 85.86603146 437.52301695 85.86595276 438.59763749 C85.86564143 442.83149037 85.86532303 447.06534324 85.864993 451.29919612 C85.86193287 491.03005394 85.86470909 530.76090949 85.8700899 570.49176696 C85.87483423 605.79138752 85.87441217 641.09100447 85.86962891 676.390625 C85.8642739 716.04223475 85.86215128 755.69384249 85.86524117 795.34545255 C85.86556189 799.5728844 85.86587473 803.80031625 85.86618423 808.02774811 C85.86626331 809.06866249 85.86634239 810.10957687 85.86642386 811.18203412 C85.86756132 826.90070182 85.86623106 842.61936808 85.86370468 858.33803558 C85.8608459 876.21406247 85.86155918 894.09008525 85.86698543 911.96611163 C85.86992209 921.9705519 85.87011283 931.97498326 85.86633925 941.9794233 C85.86409631 948.66313579 85.86549348 955.34684115 85.86984402 962.03055258 C85.87222151 965.83800582 85.87303879 969.64544138 85.86943804 973.45289406 C85.86559479 977.55870242 85.86951298 981.6644676 85.87415886 985.77027512 C85.87181769 986.94614064 85.86947653 988.12200615 85.86706442 989.33350396 C85.88805992 998.60646442 86.03657759 1008.02584365 88.234375 1017.078125 C88.59716553 1018.59031616 88.59716553 1018.59031616 88.96728516 1020.13305664 C89.22558105 1021.16164795 89.48387695 1022.19023926 89.75 1023.25 C90.01731934 1024.33466553 90.28463867 1025.41933105 90.56005859 1026.53686523 C94.41344139 1042.80561403 94.41344139 1042.80561403 100.98144531 1058.08520508 C102.03659364 1060.06879288 102.92073972 1062.07766406 103.80078125 1064.14453125 C109.70096418 1077.51546897 117.68704709 1089.78147364 127 1101 C127.45407227 1101.55413574 127.90814453 1102.10827148 128.37597656 1102.67919922 C137.91940078 1114.31663669 148.02036627 1123.93753691 160 1133 C160.83942139 1133.64654541 160.83942139 1133.64654541 161.69580078 1134.30615234 C175.41907931 1144.84098957 190.49077957 1152.80225834 207 1158 C208.68823577 1158.56028785 210.37583271 1159.122508 212.0625 1159.6875 C212.76632813 1159.91695312 213.47015625 1160.14640625 214.1953125 1160.3828125 C216 1161 216 1161 218.4375 1162.0625 C221.55589026 1163.20337448 224.63472579 1163.81580821 227.89996922 1164.40207028 C229.93959757 1164.79547102 231.96969257 1165.24271641 233.98474967 1165.7470901 C247.57701622 1168.8688724 261.34674039 1168.41916989 275.21360221 1168.37299994 C279.07454761 1168.36351173 282.93546511 1168.37161609 286.79641235 1168.37739825 C293.55094654 1168.38512634 300.30540364 1168.38179935 307.05993271 1168.37107468 C317.10427496 1168.35517092 327.14856386 1168.35656338 337.19291491 1168.36136696 C354.09578715 1168.36894457 370.99862666 1168.36246154 387.90149307 1168.34775543 C404.64037456 1168.33320938 421.37924171 1168.32446806 438.11812973 1168.32357025 C439.68139057 1168.32347861 439.68139057 1168.32347861 441.27623243 1168.32338512 C445.50693229 1168.32315559 449.73763215 1168.32296842 453.96833202 1168.32283698 C492.50607849 1168.32162625 531.04380494 1168.30594062 569.58154297 1168.28125 C605.94742996 1168.25795582 642.31330482 1168.24378289 678.67919922 1168.24023438 C679.79965007 1168.24012286 680.92010092 1168.24001134 682.07450483 1168.23989645 C686.59181055 1168.23944759 691.10911628 1168.23900561 695.626422 1168.23856402 C697.87768939 1168.23834364 700.12895678 1168.23812235 702.38022417 1168.23790014 C704.62603154 1168.23767878 706.87183891 1168.23746001 709.11764628 1168.23724384 C744.89336668 1168.23372745 780.6690848 1168.22226677 816.44480292 1168.2094375 C826.91415327 1168.20572066 837.38350347 1168.20245532 847.85285425 1168.20018864 C869.86697842 1168.19537728 891.88109532 1168.18827772 913.89521445 1168.17204097 C922.99860897 1168.16539869 932.10199763 1168.16024457 941.20539474 1168.15958023 C948.75476251 1168.15902715 956.30411894 1168.15515879 963.85348228 1168.14680431 C967.65184565 1168.14269553 971.45019238 1168.14011226 975.24855794 1168.14191952 C979.34789765 1168.14382474 983.44719104 1168.13797905 987.54652596 1168.13142776 C988.71485067 1168.13319724 989.88317538 1168.13496671 991.08690387 1168.1367898 C1005.88783056 1168.52594504 1005.88783056 1168.52594504 1020 1165 C1021.55851715 1164.60265366 1023.12728998 1164.24375043 1024.703125 1163.921875 C1058.93882256 1156.69002987 1087.60193574 1141.25929236 1113 1117 C1113.86625 1116.18660156 1114.7325 1115.37320312 1115.625 1114.53515625 C1145.01521725 1086.20114993 1162.68835301 1045.1081679 1167 1005 C1167.16796198 1003.72403269 1167.33592395 1002.44806538 1167.50897568 1001.13343239 C1168.16539447 995.18399505 1168.14180844 989.2603008 1168.13422108 983.28060913 C1168.13657331 982.01481093 1168.13892554 980.74901273 1168.14134905 979.444857 C1168.14771837 975.93660235 1168.14791314 972.42837069 1168.14707164 968.92011136 C1168.14724175 965.10109095 1168.15315474 961.28207862 1168.1583125 957.46306229 C1168.16762297 949.8905751 1168.17155793 942.31809376 1168.17383147 934.74560156 C1168.17679765 925.67378467 1168.18549759 916.60197551 1168.19424575 907.53016268 C1168.21507572 885.6021928 1168.22555826 863.6742216 1168.23437535 841.74624414 C1168.23858453 831.36737258 1168.2438062 820.9885016 1168.24905988 810.60963053 C1168.26695015 775.06470619 1168.28194446 739.51978168 1168.28938007 703.97485352 C1168.28985483 701.74387566 1168.29033072 699.51289781 1168.29080774 697.28191996 C1168.29104411 696.17558052 1168.29128049 695.06924109 1168.29152403 693.92937621 C1168.29272519 688.32433674 1168.29394065 682.71929728 1168.29516602 677.11425781 C1168.29552624 675.44576674 1168.29552624 675.44576674 1168.29589374 673.74356878 C1168.30378237 637.69909148 1168.32720516 601.65464714 1168.35972196 565.61018422 C1168.39405641 527.4810649 1168.41373462 489.35196485 1168.41702431 451.22282982 C1168.41744183 447.03309503 1168.41792139 442.84336026 1168.41844749 438.65362549 C1168.41857069 437.62203301 1168.41869388 436.59044053 1168.4188208 435.52758767 C1168.42114847 418.95872673 1168.43678431 402.38990419 1168.45728934 385.82105692 C1168.47759308 369.14966328 1168.4830032 352.47831554 1168.47351871 335.80691183 C1168.46832121 325.91623374 1168.47409794 316.02570896 1168.49605338 306.13505308 C1168.5096404 299.51061898 1168.50841537 292.88628947 1168.49565142 286.26185413 C1168.48880682 282.49885651 1168.48790306 278.73615023 1168.50521151 274.97317958 C1168.61941116 248.48761254 1167.18583423 219.60003782 1155.171875 195.38671875 C1154.02130311 193.04338733 1153.09708312 190.69550198 1152.1875 188.25 C1145.12720976 170.5295087 1134.04367659 154.8064647 1121 141 C1119.87037767 139.67058052 1118.74520688 138.33736282 1117.625 137 C1105.73883653 123.4584576 1090.51659014 112.95329313 1075 104 C1074.42314453 103.66371582 1073.84628906 103.32743164 1073.25195312 102.98095703 C1060.00370648 95.32473632 1046.22775558 90.74243441 1031.5 86.75 C1030.16775391 86.38044189 1030.16775391 86.38044189 1028.80859375 86.00341797 C1010.97847923 81.3630986 992.85701096 81.70648211 974.57791806 81.73686353 C970.70404799 81.74107118 966.83019624 81.73361097 962.95633078 81.72771102 C956.18058196 81.71898385 949.40486337 81.71762445 942.62911034 81.72121429 C932.55305408 81.72653849 922.47702691 81.72040885 912.40097381 81.71213136 C893.35646811 81.6969155 874.31197574 81.69518373 855.26746523 81.69765439 C840.56072938 81.69948895 825.85399788 81.69772403 811.14726257 81.69342995 C809.03237688 81.69282754 806.91749118 81.69222634 804.80260548 81.69162634 C801.61548276 81.69071907 798.42836004 81.6898104 795.24123732 81.68889399 C765.62180541 81.68046833 736.00237514 81.67612618 706.3829422 81.68030071 C705.26706797 81.68045709 704.15119374 81.68061346 703.00150513 81.68077458 C697.34613674 81.68158033 691.69076836 81.6824261 686.03539997 81.68328788 C684.35071218 81.68354451 684.35071218 81.68354451 682.63199029 81.68380633 C680.36076175 81.68415299 678.08953322 81.68450152 675.81830468 81.68485192 C640.47016852 81.69021029 605.12205729 81.68227381 569.77392578 81.66381836 C530.03796587 81.64309618 490.3020214 81.63237591 450.56605577 81.63639385 C446.32828299 81.63678918 442.09051021 81.63715073 437.85273743 81.63749123 C436.80932921 81.63758196 435.76592099 81.63767269 434.69089435 81.63776617 C418.95096143 81.63893134 403.21104413 81.63229007 387.47111511 81.62167931 C369.56982116 81.60962364 351.66856158 81.60807275 333.76726711 81.62046947 C323.75491839 81.62709305 313.74265192 81.6254785 303.7303098 81.61188096 C297.03526116 81.60362345 290.340274 81.60635089 283.64523034 81.61785623 C279.83552279 81.62409963 276.02597546 81.62574736 272.2162773 81.61399289 C257.53323769 81.57176414 243.35221797 81.5870913 229 85 Z " fill="#E54B14" transform="translate(0,0)"/>
<path d="M0 0 C4.01188186 0.36767705 7.51488423 1.42365386 11.24609375 2.8984375 C12.23593262 3.28918457 13.22577148 3.67993164 14.24560547 4.08251953 C15.29893066 4.50903809 16.35225586 4.93555664 17.4375 5.375 C18.54496582 5.82343262 19.65243164 6.27186523 20.79345703 6.73388672 C54.06710329 20.38352005 84.55542041 38.3486718 112.14160156 61.45019531 C113.85071389 62.87550338 115.57482067 64.27971682 117.3046875 65.6796875 C125.23879724 72.19042988 132.54122376 79.33111287 139.8125 86.5625 C140.30082306 87.04555603 140.78914612 87.52861206 141.29226685 88.02630615 C147.99052441 94.66860277 154.1524027 101.59471045 160 109 C160.95381371 110.18018348 161.90814282 111.35995087 162.86328125 112.5390625 C176.45364913 129.66249253 188.65632964 147.55393464 198.65625 167.02734375 C199.1210527 167.93205414 199.1210527 167.93205414 199.59524536 168.8550415 C201.11741679 171.82795584 202.62081573 174.80808616 204.10498047 177.80029297 C209.27505471 188.06630225 214.33603464 194.00638179 223.9375 200.25 C225.64721168 201.38986237 227.3555309 202.53181589 229.0625 203.67578125 C229.90296875 204.2373291 230.7434375 204.79887695 231.609375 205.37744141 C234.95068337 207.64524527 238.19977125 210.02509221 241.4375 212.4375 C247.99858136 217.30874118 254.67814628 221.99657298 261.38427734 226.66552734 C266.98728385 230.57304129 272.53948899 234.5428874 278.0625 238.5625 C284.98782526 243.59937821 292.02003838 248.4579117 299.10571289 253.26586914 C304.59051817 257.00040861 309.95844337 260.86289797 315.2800293 264.82543945 C321.19329579 269.20248246 327.27484784 273.32501064 333.39257812 277.41015625 C350.7352071 289.09982616 363.03975822 305.81676126 367.34375 326.5859375 C369.50147468 339.24806917 368.97035276 352.78352995 365 365 C364.67128906 366.0621875 364.34257813 367.124375 364.00390625 368.21875 C361.03501519 376.84805273 356.50411975 383.8362053 351 391 C350.41863281 391.77859375 349.83726562 392.5571875 349.23828125 393.359375 C343.34833602 400.61261093 335.613432 405.81750173 328.17529297 411.35791016 C324.89329155 413.83543446 321.69576176 416.4127915 318.5 419 C312.52391058 423.82112045 306.44911606 428.49895693 300.3359375 433.14453125 C295.67035571 436.69885629 291.06563035 440.3183534 286.5 444 C281.22851734 448.25083389 275.89165874 452.40270448 270.5 456.5 C264.38961607 461.14369798 258.36255868 465.87602619 252.38500977 470.68920898 C248.43863594 473.86238139 244.4586677 476.98472013 240.4375 480.0625 C217.49691192 497.07468828 217.49691192 497.07468828 201.45092773 520.28857422 C184.01537352 556.25192275 155.21882745 592.05669458 123.71875 616.83984375 C121.24418997 618.80598125 118.85538878 620.84744918 116.47412109 622.92480469 C108.41955809 629.91444379 99.82784642 636.02957232 91 642 C90.3301709 642.45342773 89.6603418 642.90685547 88.97021484 643.37402344 C72.65432817 654.33669772 55.54789163 664.06006378 38.25 673.375 C30.52866444 677.54214541 23.09153984 681.80837426 16 687 C15.19304687 687.58523438 14.38609375 688.17046875 13.5546875 688.7734375 C-0.86016408 699.75838871 -11.67171882 713.25395792 -22 728 C-23.16651331 729.65245202 -24.33317994 731.30479582 -25.5 732.95703125 C-28.43208688 737.12200175 -31.3439301 741.30073532 -34.25 745.48388672 C-37.15661646 749.66295888 -40.07896765 753.83099764 -43 758 C-46.51629387 763.02025976 -50.03041392 768.04197945 -53.53515625 773.0703125 C-59.34417421 781.39881754 -65.18612035 789.70092498 -71.125 797.9375 C-71.65746338 798.67693848 -72.18992676 799.41637695 -72.73852539 800.17822266 C-80.6782988 811.14820044 -80.6782988 811.14820044 -85.0625 813.75 C-86.06990234 814.36101562 -86.06990234 814.36101562 -87.09765625 814.984375 C-92.1803734 817.69794062 -97.38594643 817.43306164 -103 817 C-111.76957374 814.26849343 -116.61860749 808.6405074 -121.5625 801.3125 C-122.61222885 799.79094007 -123.66304762 798.27013163 -124.71484375 796.75 C-125.25351074 795.96753906 -125.79217773 795.18507813 -126.34716797 794.37890625 C-129.05284747 790.48464613 -131.83908455 786.64956451 -134.625 782.8125 C-138.8349195 776.99992309 -143.03267376 771.17951317 -147.1875 765.32739258 C-149.50411334 762.07058918 -151.85090284 758.83904572 -154.2265625 755.625 C-166.58792383 738.85153969 -176.66842947 723.85584828 -176.52139282 702.21334839 C-176.52904392 700.99466446 -176.53669501 699.77598053 -176.54457796 698.52036679 C-176.56150417 695.17704307 -176.56082576 691.83461045 -176.55221677 688.49131489 C-176.54724595 684.8701052 -176.56535551 681.24899511 -176.58029175 677.62782288 C-176.60569242 670.54786288 -176.60938468 663.46805493 -176.60469122 656.38805704 C-176.60111317 650.62669017 -176.60464913 644.86536913 -176.61314011 639.10400772 C-176.61433048 638.28142181 -176.61552086 637.45883591 -176.61674731 636.61132316 C-176.61917104 634.93974899 -176.62159931 633.26817482 -176.62403207 631.59660067 C-176.64574834 615.94574263 -176.64147526 600.29497093 -176.62926237 584.64410807 C-176.61893371 570.36340446 -176.64141528 556.0829741 -176.67945881 541.80232452 C-176.71831815 527.10146413 -176.7347093 512.40073266 -176.72721231 497.69982064 C-176.72340285 489.46149013 -176.72821935 481.22339191 -176.75664139 472.98510361 C-176.78060281 465.96930829 -176.78313134 458.95388814 -176.75906105 451.93808703 C-176.74737431 448.36687916 -176.74482576 444.79635512 -176.76906586 441.22519493 C-176.93014826 415.74169976 -172.84395472 394.89936976 -156 375 C-155.26136719 374.07960938 -155.26136719 374.07960938 -154.5078125 373.140625 C-138.00284797 352.97780347 -110.2085812 339.77942596 -84.5625 336.875 C-81.08314542 336.5692245 -79.4732745 336.74974702 -76.3748045 338.38812256 C-72.77055936 342.35217374 -73.31061875 345.98578541 -73.3742218 351.17285156 C-73.36727726 352.2188364 -73.36033271 353.26482124 -73.35317773 354.34250259 C-73.33586923 357.85890941 -73.3542491 361.374235 -73.37231445 364.890625 C-73.36713836 367.40686575 -73.35974049 369.92310277 -73.35028076 372.43933105 C-73.33469 377.8632695 -73.33426009 383.28687632 -73.34728432 388.71081543 C-73.36592425 396.55721215 -73.35514867 404.40335555 -73.33680775 412.24974298 C-73.30765192 424.98552222 -73.29930648 437.72122308 -73.30541992 450.45703125 C-73.31128259 462.8190195 -73.31235467 475.18098141 -73.3034668 487.54296875 C-73.30292423 488.30432711 -73.30238165 489.06568547 -73.30182264 489.8501153 C-73.29565735 498.16039635 -73.28692501 506.47067077 -73.27447033 514.78094482 C-73.27337784 515.51113634 -73.27228536 516.24132785 -73.27115976 516.99364638 C-73.26674066 519.91251687 -73.26226684 522.83138718 -73.25743415 525.75025702 C-73.24330448 534.29959164 -73.23729377 542.84883751 -73.24597003 551.39818096 C-73.25175951 557.39279363 -73.2481395 563.38736015 -73.2411499 569.38197327 C-73.24006127 571.84428503 -73.24244409 574.30660107 -73.2484951 576.76890564 C-73.25634094 580.12173021 -73.25208618 583.47432768 -73.24482727 586.82714844 C-73.2501726 587.80885136 -73.25551794 588.79055428 -73.26102525 589.80200577 C-73.25664325 590.69925243 -73.25226125 591.5964991 -73.24774647 592.52093506 C-73.24839453 593.68190516 -73.24839453 593.68190516 -73.24905568 594.86632919 C-72.9631992 597.31527406 -72.29932233 598.91249671 -71 601 C-56.30052858 608.34973571 -29.11353311 596.99240998 -14.7421875 592.296875 C-4.48441208 588.86368417 5.35652731 584.89727949 15 580 C15.94117676 579.52626953 15.94117676 579.52626953 16.90136719 579.04296875 C45.08700204 564.75807355 70.39339944 543.74931546 90 519 C91.49924862 517.20770453 92.99925592 515.41604345 94.5 513.625 C103.07254981 503.11767332 110.30388842 491.76858407 117 480 C117.39832031 479.30197266 117.79664063 478.60394531 118.20703125 477.88476562 C132.18142431 453.10794491 142.30244939 425.49538722 147.53076172 397.50683594 C147.85676851 395.76519297 148.19805926 394.02636943 148.55126953 392.29003906 C154.89055924 360.38460293 154.99453901 323.97087475 149 292 C148.70996094 290.44925781 148.70996094 290.44925781 148.4140625 288.8671875 C140.17593783 246.65951173 122.77275494 207.6297248 96 174 C95.56937256 173.44610596 95.13874512 172.89221191 94.69506836 172.3215332 C92.5009732 169.56649214 91.33346243 168.11569105 87.9375 166.9375 C85.04668627 166.79990728 85.04668627 166.79990728 82.84758091 168.01299953 C80.08702859 170.98186477 80.45151379 174.00607573 80.50120544 177.85450745 C80.49582089 178.66360359 80.49043634 179.47269973 80.48488861 180.30631393 C80.47157402 183.02816302 80.48678909 185.74911719 80.50170898 188.47094727 C80.49788693 190.41933101 80.49226887 192.36771194 80.48498535 194.31608582 C80.47300657 198.52149547 80.473547 202.72665556 80.48357964 206.93206978 C80.49914636 213.6059222 80.48545168 220.27951911 80.46754456 226.95335388 C80.43666744 239.95185147 80.4352217 252.95027166 80.43719482 265.94879913 C80.43858493 282.40958571 80.42789483 298.87031046 80.3886171 315.3310532 C80.37623664 320.86513005 80.37038108 326.3990524 80.38012505 331.93313789 C80.47537144 386.98983522 75.61539801 443.64052169 35.8125 485.6875 C27.97605931 493.32214394 17.75955478 501.98152094 6.5 502.375 C5.5409375 502.42398437 4.581875 502.47296875 3.59375 502.5234375 C1 502 1 502 -0.63868874 499.98855084 C-2.37806669 496.17001236 -2.41325268 492.77293747 -2.37473011 488.65974903 C-2.37879084 487.81883403 -2.38285156 486.97791903 -2.38703534 486.11152175 C-2.39701722 483.28087084 -2.38553321 480.45071156 -2.3742218 477.62007141 C-2.37696113 475.57540323 -2.38101212 473.53073646 -2.38626546 471.4860732 C-2.39687941 465.85739715 -2.38870575 460.22887928 -2.37751496 454.60021007 C-2.36869199 448.53407458 -2.37711088 442.46796021 -2.38337708 436.40182495 C-2.39232828 425.20256022 -2.38769042 414.00334775 -2.37621326 402.80409033 C-2.36568488 392.46052175 -2.36113677 382.11697134 -2.36250877 371.77339745 C-2.3625928 371.08778974 -2.36267683 370.40218203 -2.36276341 369.69579833 C-2.36311565 366.91285847 -2.36349965 364.12991861 -2.36392899 361.34697876 C-2.36789526 335.23419346 -2.35516969 309.12144031 -2.33440243 283.0086642 C-2.31602641 259.79344707 -2.31022157 236.57826074 -2.31567383 213.36303711 C-2.31602026 211.87200844 -2.31636636 210.38097976 -2.31671212 208.88995109 C-2.31688311 208.15282472 -2.31705411 207.41569836 -2.31723029 206.65623483 C-2.31808379 202.94587619 -2.31890758 199.23551754 -2.31969929 195.52515888 C-2.31985637 194.79320945 -2.32001345 194.06126003 -2.32017529 193.30713031 C-2.32416194 173.92346466 -2.3186945 154.53980198 -2.310188 135.15613812 C-2.30928093 133.0714454 -2.30837528 130.98675268 -2.30747276 128.90205996 C-2.30687165 127.51905926 -2.30626303 126.13605856 -2.30564686 124.75305786 C-2.30141991 115.09821361 -2.30084953 105.44337518 -2.30275235 95.7885303 C-2.30519134 83.35080558 -2.30093961 70.91310831 -2.28554235 58.47539011 C-2.27827472 52.47422973 -2.27424143 46.4731127 -2.27878571 40.47194862 C-2.28283842 34.98673872 -2.27776478 29.50161863 -2.26515963 24.01642241 C-2.26221249 22.02395398 -2.26269233 20.03147717 -2.26680271 18.0390108 C-2.27185562 15.34680685 -2.26479461 12.65490974 -2.25447559 9.96272755 C-2.25887208 9.17525982 -2.26326856 8.38779209 -2.26779827 7.5764617 C-2.22830539 2.22830539 -2.22830539 2.22830539 0 0 Z " fill="#E43C1B" transform="translate(719,247)"/>
<path d="M0 0 C1.63697682 -0.01055515 3.27393203 -0.02543723 4.91082764 -0.04486084 C7.21256226 -0.06863268 9.51332064 -0.07102835 11.81515503 -0.06674194 C12.49312134 -0.07585602 13.17108765 -0.08497009 13.86959839 -0.09436035 C19.3536424 -0.04217625 23.89892845 1.14808504 28.21434361 4.66149306 C30.58649986 7.59211634 29.95096844 11.44601801 29.92549133 15.06027222 C29.93356964 16.42031549 29.93356964 16.42031549 29.94181114 17.80783439 C29.9561674 20.85921874 29.94896784 23.91017393 29.94186401 26.96157837 C29.94756401 29.14455516 29.95452682 31.32752897 29.96266174 33.51049805 C29.98066084 39.45332948 29.97941068 45.39601378 29.97371936 51.33886433 C29.97063357 56.30329764 29.97671401 61.26770245 29.9827581 66.23213172 C29.99763256 78.62642299 29.99397182 91.02064886 29.9818948 103.41493699 C29.97260513 113.48555581 29.98187802 123.55602146 30.00436401 133.62661743 C30.03040496 145.33238328 30.04278628 157.03804537 30.03617626 168.74384093 C30.03281411 174.93541398 30.03517093 181.12684456 30.05242729 187.31839752 C30.06797553 193.15267188 30.06385366 198.98661909 30.04512215 204.82088089 C30.04145629 206.95283321 30.04448566 209.08481015 30.05500793 211.21673965 C30.180993 238.87383782 21.79395221 261.51393984 2.23312378 281.67153931 C-14.95853085 297.90497056 -40.60680393 310.91236146 -64.58718872 311.60903931 C-65.43539185 311.64642212 -66.28359497 311.68380493 -67.15750122 311.72232056 C-69.46218872 311.29653931 -69.46218872 311.29653931 -71.08299351 309.75150299 C-72.96899258 306.39442984 -72.87296192 303.33938158 -72.83399963 299.59133911 C-72.8378242 298.81078517 -72.84164876 298.03023124 -72.84558922 297.22602415 C-72.85488198 294.60807177 -72.84287816 291.99064716 -72.83108521 289.37271118 C-72.83355281 287.49685954 -72.83739081 285.62100927 -72.84249878 283.74516296 C-72.85084171 279.70454826 -72.85002507 275.66407446 -72.84231377 271.62345886 C-72.83074607 265.23703469 -72.84288014 258.85079241 -72.8589325 252.46438599 C-72.89515111 236.60239763 -72.9013542 220.74041338 -72.89883423 204.87838745 C-72.89712469 192.5506972 -72.90419398 180.22315506 -72.93881279 167.89550638 C-72.95564046 161.54404496 -72.95378334 155.19294424 -72.93799007 148.84148407 C-72.93220584 144.89374576 -72.94291019 140.94617966 -72.95823669 136.99847221 C-72.96197268 135.16505963 -72.95882682 133.33161844 -72.94836617 131.49823189 C-72.93505409 128.99896317 -72.94615363 126.50095665 -72.96339417 124.0017395 C-72.95358739 123.27294822 -72.94378061 122.54415694 -72.93367666 121.79328108 C-72.98218216 118.40294304 -73.24289508 116.58914267 -75.30098057 113.84304047 C-78.54828843 111.51935621 -80.50916097 111.84375226 -84.46218872 112.29653931 C-88.10946145 113.17779375 -91.65213612 114.3026019 -95.21218872 115.48403931 C-96.19646851 115.80429077 -97.18074829 116.12454224 -98.19485474 116.45449829 C-103.9233375 118.35195426 -109.45581366 120.41031845 -114.87625122 123.07778931 C-117.94909154 124.52601617 -121.09204468 125.6715886 -124.27468872 126.85903931 C-138.70217066 132.42249146 -152.74931379 140.53705841 -165.46218872 149.29653931 C-165.99714966 149.66456665 -166.5321106 150.03259399 -167.08328247 150.41177368 C-179.68593114 159.12696836 -191.33480067 168.76664441 -202.46218872 179.29653931 C-203.85630981 180.60944946 -203.85630981 180.60944946 -205.27859497 181.94888306 C-211.91981001 188.38226491 -217.62458655 195.25036523 -223.18630981 202.61929321 C-224.34765684 204.14597788 -225.53819556 205.65034482 -226.73171997 207.15200806 C-237.53800721 220.95679662 -245.98485169 236.48581497 -253.46218872 252.29653931 C-253.93140747 253.26720337 -254.40062622 254.23786743 -254.88406372 255.23794556 C-262.97091827 272.38507234 -270.05116386 292.26345744 -272.17312622 311.16372681 C-272.46218872 313.29653931 -272.46218872 313.29653931 -273.46218872 314.29653931 C-276.49243668 328.38012697 -276.74486381 342.51993044 -276.71218872 356.85903931 C-276.71123199 357.72135162 -276.71027527 358.58366394 -276.70928955 359.47210693 C-277.66333957 375.8305644 -277.66333957 375.8305644 -274.46218872 391.29653931 C-274.32934198 393.00288195 -274.23120743 394.71197557 -274.14968872 396.42153931 C-273.5967652 403.56701245 -271.92378009 410.26802566 -270.04470825 417.15054321 C-269.45754643 419.31364147 -268.89406563 421.48193689 -268.33328247 423.65200806 C-262.08496493 447.46124828 -252.33546726 470.15774472 -240.02468872 491.48403931 C-239.46910278 492.44696899 -238.91351685 493.40989868 -238.34109497 494.40200806 C-236.53066156 496.62218145 -236.53066156 496.62218145 -233.30203247 496.65982056 C-230.56579773 496.60403736 -230.56579773 496.60403736 -229.46218872 495.29653931 C-229.3599684 493.42248434 -229.32864425 491.54454469 -229.32415771 489.66770935 C-229.31870438 488.44441925 -229.31325104 487.22112915 -229.30763245 485.96076965 C-229.30651242 484.59198003 -229.30546193 483.22319036 -229.30447388 481.85440063 C-229.29980735 480.42198531 -229.29466405 478.98957146 -229.28907776 477.55715942 C-229.27776923 474.46112519 -229.26934751 471.36510073 -229.26295853 468.26905251 C-229.25226879 463.35237185 -229.23201238 458.43575986 -229.20983887 453.51911926 C-229.14797642 439.53309344 -229.09419589 425.54706843 -229.06082153 411.5609436 C-229.04232713 403.84447283 -229.01319318 396.12811422 -228.97281682 388.41172618 C-228.95195943 384.33653203 -228.93632068 380.26147807 -228.93400955 376.1862278 C-228.91839693 354.7168148 -228.50402099 333.46829765 -222.77468872 312.60903931 C-222.3934082 311.19352783 -222.3934082 311.19352783 -222.00442505 309.74942017 C-213.18523452 278.32923914 -194.19157877 246.80484432 -165.59890747 229.75357056 C-161.0130133 227.62338559 -158.41583333 227.25787189 -153.46218872 228.29653931 C-151.25111234 229.87278879 -151.25111234 229.87278879 -149.46218872 232.29653931 C-149.07172599 234.96586015 -148.92754638 237.22190109 -148.96441078 239.88904762 C-148.95919621 240.66127383 -148.95398164 241.43350004 -148.94860905 242.22912705 C-148.93595606 244.83229869 -148.95196597 247.43451498 -148.9677124 250.03765869 C-148.9645376 251.91647334 -148.95961177 253.79528572 -148.95307958 255.6740917 C-148.94021754 260.84901979 -148.95241555 266.02363633 -148.96860814 271.19854403 C-148.98173571 276.77457991 -148.97187102 282.3505802 -148.96484375 287.92662048 C-148.95474734 298.85427679 -148.96605821 309.7818123 -148.98454435 320.7094536 C-149.00528239 333.42378621 -149.00517278 346.1380925 -149.00419919 358.85243885 C-149.00316704 382.21574391 -149.02325729 405.5789763 -149.05320407 428.94225608 C-149.0804592 450.28431801 -149.0929264 471.62633512 -149.09158325 492.96841431 C-149.09150243 494.33902167 -149.09142171 495.70962903 -149.09134109 497.08023639 C-149.09130039 497.75782923 -149.09125969 498.43542208 -149.09121776 499.13354804 C-149.09101617 502.54424049 -149.09083501 505.95493293 -149.09067726 509.36562538 C-149.09064383 510.0384584 -149.09061041 510.71129143 -149.09057597 511.40451333 C-149.08968964 533.04515333 -149.10392409 554.68578543 -149.11940295 576.32641912 C-149.12544627 585.19867854 -149.12756332 594.07093409 -149.12846756 602.94319534 C-149.12982907 613.74709528 -149.13871992 624.55095956 -149.15713318 635.35484435 C-149.16639373 640.87195835 -149.17245115 646.38902661 -149.16994476 651.90614891 C-149.16776477 656.949154 -149.17472917 661.99205769 -149.18924181 667.03504162 C-149.1928871 668.86670503 -149.19311112 670.69837884 -149.18970723 672.53004272 C-149.18561397 675.00538886 -149.19363888 677.48039675 -149.20491982 679.95571327 C-149.20080918 680.67929303 -149.19669854 681.40287279 -149.19246334 682.14837921 C-149.23387878 687.06822937 -149.23387878 687.06822937 -151.46218872 689.29653931 C-155.87350212 688.98644698 -158.93280362 687.73162167 -162.67312622 685.44497681 C-163.65869507 684.84846313 -164.64426392 684.25194946 -165.65969849 683.63735962 C-166.70827026 682.98863892 -167.75684204 682.33991821 -168.83718872 681.67153931 C-169.93410034 681.0021936 -171.03101196 680.3328479 -172.16116333 679.64321899 C-175.0348759 677.88784014 -177.90038833 676.11952797 -180.76351929 674.34695435 C-182.41306983 673.32691321 -184.06527614 672.31117074 -185.71755981 671.29556274 C-241.29388653 637.12774848 -286.77053257 596.08632755 -321.23318481 540.27749634 C-322.21806074 538.69003442 -323.22183716 537.11430498 -324.23171997 535.54263306 C-331.09949594 524.66392456 -336.09282534 512.48698105 -341.34500122 500.76919556 C-342.13560155 499.01937035 -342.94478476 497.27788599 -343.76687622 495.54263306 C-346.20123611 490.3642166 -348.21915362 485.31576241 -349.68875122 479.78091431 C-350.44977876 477.15939084 -350.44977876 477.15939084 -351.83718872 474.24575806 C-354.07420405 469.12767573 -355.40568203 463.74584646 -356.83718872 458.35903931 C-357.14100464 457.22256958 -357.44482056 456.08609985 -357.75784302 454.91519165 C-360.76496033 443.46802978 -363.28798949 431.92974285 -365.46218872 420.29653931 C-365.63460083 419.38847534 -365.80701294 418.48041138 -365.98464966 417.54483032 C-367.5618108 408.74201808 -368.36834873 399.88920228 -369.08718872 390.98403931 C-369.15255829 390.1802887 -369.21792786 389.37653809 -369.28527832 388.5484314 C-371.18384138 364.71663114 -371.18117713 341.07385895 -368.46218872 317.29653931 C-368.31741089 315.92272095 -368.31741089 315.92272095 -368.16970825 314.52114868 C-361.40418456 250.75414378 -335.70582287 188.2233687 -295.46218872 138.29653931 C-294.7274231 137.36970337 -293.99265747 136.44286743 -293.23562622 135.48794556 C-288.43095871 129.5033332 -283.36527443 123.81519578 -278.14187622 118.19888306 C-275.74368136 115.60142127 -273.41282466 112.95866836 -271.08718872 110.29653931 C-266.0715193 104.70662509 -260.5679813 99.70085358 -254.99197388 94.68228149 C-253.64985328 93.46653357 -252.32594327 92.23074469 -251.00515747 90.99185181 C-243.29975141 83.82464276 -234.89510005 77.57150741 -226.46218872 71.29653931 C-225.54880737 70.61325562 -225.54880737 70.61325562 -224.61697388 69.91616821 C-159.98454111 21.78407976 -79.73131003 0.5099711 0 0 Z " fill="#E96706" transform="translate(615.4621887207031,226.70346069335938)"/>
<path d="M0 0 C0.66 0 1.32 0 2 0 C2 241.89 2 483.78 2 733 C1.34 732.67 0.68 732.34 0 732 C-0.28899516 614.37676208 -0.56839195 496.75349705 -1.12283063 151.6196183 C-1.12409548 143.44158058 -1.12781635 135.26354662 -1.13256836 127.08551025 C-1.18004234 39.91694715 -1.18004234 39.91694715 0 0 Z " fill="#E9740B" transform="translate(84,257)"/>
<path d="M0 0 C2.85368392 1.42684196 2.9606425 3.0118472 4 6 C4.66925515 8.33259221 5.33558372 10.66602487 6 13 C6.34160156 14.12019531 6.68320313 15.24039063 7.03515625 16.39453125 C9.11848673 23.32576382 10.5062882 29.79447648 11 37 C11.45449628 39.95422581 11.97863184 42.88472244 12.52334376 45.82334943 C12.97017993 48.80126572 13.12556657 51.56926024 13.12649983 54.57640904 C13.13063945 56.21667652 13.13063945 56.21667652 13.13486269 57.89008072 C13.13177971 59.67966598 13.13177971 59.67966598 13.12863445 61.50540447 C13.13038749 62.78446251 13.13214053 64.06352054 13.13394669 65.38133791 C13.1386787 68.94061846 13.13717438 72.49987344 13.13466892 76.05915525 C13.13303714 79.92794418 13.13717557 83.79672759 13.14057809 87.66551477 C13.14573548 94.44898455 13.14714871 101.23244719 13.14612198 108.01591873 C13.14459895 118.10288582 13.14875451 128.18984499 13.1539966 138.27681054 C13.16367514 157.33711904 13.16648101 176.39742484 13.16705366 195.4577355 C13.16751283 210.17105115 13.16956923 224.88436574 13.17275429 239.59768105 C13.17365179 243.82957675 13.17454161 248.06147245 13.17542917 252.29336816 C13.17565021 253.34535076 13.17587126 254.39733336 13.17609901 255.48119422 C13.18225422 285.07597227 13.18619946 314.67074996 13.18575573 344.26552868 C13.18574015 345.38163356 13.18572457 346.49773845 13.18570852 347.64766469 C13.18562541 353.304854 13.18552637 358.96204331 13.18542381 364.61923262 C13.18540387 365.74282149 13.18538392 366.86641037 13.18536337 368.0240474 C13.18532294 370.29621608 13.18528114 372.56838476 13.18523798 374.84055344 C13.18462485 410.213612 13.19213835 445.58666098 13.20581055 480.9597168 C13.22115535 520.67678169 13.22977778 560.39384029 13.22884732 600.11090833 C13.22877269 604.34186097 13.22872399 608.57281361 13.22869301 612.80376625 C13.22868135 613.84558044 13.2286697 614.88739463 13.22865769 615.96077895 C13.22862686 632.75822564 13.23502452 649.55566405 13.24362527 666.35310828 C13.25208245 683.21827514 13.2531069 700.08342982 13.24651595 716.94859763 C13.2428077 726.97937027 13.24469052 737.01010601 13.25445829 747.04087478 C13.26042476 753.73072278 13.2592003 760.42054384 13.25198779 767.11039057 C13.24807794 770.92878097 13.24741119 774.74709959 13.25544515 778.56548514 C13.26400139 782.66775379 13.25727981 786.76985008 13.24888897 790.87211895 C13.25634124 792.67223945 13.25634124 792.67223945 13.26394406 794.50872603 C13.25919325 795.59472713 13.25444244 796.68072823 13.24954766 797.79963845 C13.24963588 798.7387032 13.2497241 799.67776794 13.249815 800.64528919 C13 803 13 803 11 806 C10 805 10 805 9.87721951 802.90098155 C9.87827045 801.96460805 9.87932139 801.02823455 9.88040417 800.0634861 C9.87918178 798.98541445 9.87795939 797.9073428 9.87669995 796.79660231 C9.88047036 795.5950947 9.88424076 794.39358709 9.88812542 793.15567017 C9.88816996 791.8872841 9.8882145 790.61889804 9.88826039 789.31207603 C9.88851684 785.75925853 9.89506485 782.2064751 9.90253925 778.65366645 C9.90954264 774.80026143 9.91073988 770.94685418 9.91262513 767.09344387 C9.91672583 760.32856139 9.92450335 753.56369081 9.93462753 746.79881477 C9.94964105 736.73824162 9.95889153 726.67766914 9.96675082 716.61708815 C9.97924014 700.72971935 9.9950434 684.84235606 10.01301279 668.95499258 C10.04147969 643.71402958 10.05957987 618.47306705 10.07414533 593.23209257 C10.07725961 587.86206445 10.08047509 582.49203639 10.08368748 577.12200832 C10.0843275 576.05139108 10.08496752 574.98077384 10.08562694 573.87771365 C10.08692436 571.70808334 10.08822255 569.53845304 10.08952148 567.36882273 C10.09082393 565.19105287 10.0921234 563.013283 10.0934199 560.83551314 C10.10872709 535.13269119 10.1257909 509.42987063 10.14428711 483.72705078 C10.14509303 482.60199641 10.14589895 481.47694204 10.1467293 480.31779511 C10.17290893 443.88034578 10.20957023 407.44291463 10.25065581 371.0054794 C10.29281936 333.54399905 10.32155311 296.08252919 10.33456795 258.62102695 C10.33642075 253.32415381 10.33844079 248.02728075 10.34057045 242.73040771 C10.34098664 241.68796118 10.34140283 240.64551464 10.34183164 239.57147881 C10.34893933 222.82364454 10.37035558 206.0758579 10.39736693 189.32804515 C10.42428752 172.47196735 10.4367091 155.61592846 10.43449231 138.75982887 C10.43362787 128.75809697 10.44384889 118.75652294 10.47032697 108.75482528 C10.48694814 102.05609244 10.48874832 95.35745659 10.47900309 88.65871061 C10.47387925 84.85312792 10.47473187 81.04783828 10.49385395 77.2422936 C10.60373473 54.05600439 8.45695535 32.1962399 2.05078125 9.86328125 C1.12631204 6.6016258 0.4814827 3.35979684 0 0 Z " fill="#D80A15" transform="translate(1157,198)"/>
<path d="M0 0 C0.66 0.33 1.32 0.66 2 1 C-0.32462005 9.40439557 -2.93211387 17.26802526 -7 25 C-7.45890625 25.9178125 -7.9178125 26.835625 -8.390625 27.78125 C-13.26303185 37.52606369 -17.98787858 46.60214982 -25 55 C-25.96625929 56.28574824 -26.92466981 57.57743378 -27.875 58.875 C-35.89955458 69.59580492 -44.04487351 79.2318194 -55 87 C-53.6691181 84.02449371 -52.23701371 82.02117301 -49.875 79.78515625 C-49.2557666 79.18823975 -48.6365332 78.59132324 -47.99853516 77.97631836 C-47.00926025 77.02897827 -47.00926025 77.02897827 -46 76.0625 C-27.06860948 57.4987312 -13.87471681 34.4616845 -4 10 C-3.58621094 8.98035156 -3.17242188 7.96070313 -2.74609375 6.91015625 C-1.8204721 4.61061535 -0.90408423 2.30807386 0 0 Z " fill="#E0363C" transform="translate(1160,1039)"/>
<path d="M0 0 C0.33 0 0.66 0 1 0 C1.00423194 0.97036823 1.00846388 1.94073647 1.01282406 2.9405098 C1.11594252 26.53382502 1.22468129 50.12710921 1.33933926 73.72037125 C1.39465599 85.12981386 1.44813548 96.53925961 1.49731445 107.94873047 C1.54017524 117.89131222 1.58645806 127.8338711 1.63687855 137.77641749 C1.66346418 143.04262112 1.68831693 148.30882026 1.70907402 153.57505035 C1.72865541 158.52929317 1.75280378 163.48349251 1.78049088 168.43769646 C1.78985333 170.25819802 1.79753151 172.07870912 1.80341911 173.89922523 C1.81169394 176.38080163 1.82597455 178.86227287 1.84178162 181.34381104 C1.84275972 182.0675489 1.84373783 182.79128676 1.84474558 183.53695607 C1.79123523 188.38104212 1.79123523 188.38104212 3 193 C3.99 193.33 4.98 193.66 6 194 C3.5625 193.625 3.5625 193.625 1 193 C-0.51526435 189.96947129 -0.13338479 186.83213801 -0.12025452 183.50839233 C-0.12110894 182.72672498 -0.12196337 181.94505763 -0.12284368 181.13970339 C-0.12449786 178.50636137 -0.11897811 175.8730823 -0.11352539 173.23974609 C-0.11324348 171.35770163 -0.11340133 169.47565707 -0.1139679 167.59361267 C-0.11425572 162.47198405 -0.10836144 157.35037868 -0.10139394 152.22875547 C-0.09515787 146.88090856 -0.0945564 141.53306117 -0.09336853 136.18521118 C-0.09025596 126.05276438 -0.08204358 115.92032832 -0.07201904 105.78788626 C-0.06085559 94.25480804 -0.05534687 82.72172931 -0.05032361 71.18864703 C-0.03986091 47.45909206 -0.0222629 23.72954663 0 0 Z " fill="#E74E00" transform="translate(543,343)"/>
<path d="M0 0 C3.15684535 1.51647516 5.60551397 3.18852333 8.25 5.5 C8.95640625 6.1084375 9.6628125 6.716875 10.390625 7.34375 C12 9 12 9 12 11 C12.66 11 13.32 11 14 11 C15.00739746 12.66220581 16.00522955 14.33020674 17 16 C18.55750943 17.85626444 20.16089583 19.65830661 21.79296875 21.44921875 C23 23 23 23 23 25 C23.99 25.33 24.98 25.66 26 26 C27.99396257 28.66083969 30 31.61242325 30 35 C30.66 35 31.32 35 32 35 C34.88131868 40.51208791 34.88131868 40.51208791 35.5625 43.3125 C35.706875 43.869375 35.85125 44.42625 36 45 C36.99 45.495 36.99 45.495 38 46 C41.29229697 51.09775015 43.26459862 56.20218175 45 62 C44.34 62 43.68 62 43 62 C42.5153125 60.99582031 42.030625 59.99164063 41.53125 58.95703125 C32.44967352 40.34060072 21.0750415 24.28969541 7.47509766 8.69677734 C4.96709012 5.81186302 2.48409768 2.90550222 0 0 Z " fill="#DF2A2E" transform="translate(1110,129)"/>
<path d="M0 0 C2.85368392 1.42684196 2.9606425 3.0118472 4 6 C4.66925515 8.33259221 5.33558372 10.66602487 6 13 C6.34160156 14.12019531 6.68320313 15.24039063 7.03515625 16.39453125 C9.11848673 23.32576382 10.5062882 29.79447648 11 37 C11.45485165 39.9565357 11.97592072 42.87960361 12.5625 45.8125 C13.11623441 49.8468507 13.47888995 53.94161059 13 58 C12.34 58.66 11.68 59.32 11 60 C10.90501221 59.1656543 10.81002441 58.33130859 10.7121582 57.47167969 C8.89061237 41.75341478 6.89002481 26.38265512 2.56933594 11.11816406 C1.58131348 7.44231381 0.7911869 3.72239794 0 0 Z " fill="#DE222A" transform="translate(1157,198)"/>
<path d="M0 0 C0.99 0.33 1.98 0.66 3 1 C1.2126038 2.33905267 -0.58004953 3.67109066 -2.375 5 C-3.37273437 5.7425 -4.37046875 6.485 -5.3984375 7.25 C-8 9 -8 9 -10 9 C-10 9.66 -10 10.32 -10 11 C-13.46594321 14.24233397 -17.36770788 16.39793041 -21.515625 18.625 C-25.07615277 20.59560657 -28.4994387 22.77898609 -31.93359375 24.9609375 C-32.61550781 25.30382813 -33.29742188 25.64671875 -34 26 C-36 25 -36 25 -37 23 C-36.030625 22.55011719 -35.06125 22.10023437 -34.0625 21.63671875 C-22.68011594 16.22267424 -11.80583269 9.87471031 -2.23046875 1.609375 C-1.12638672 0.81273437 -1.12638672 0.81273437 0 0 Z " fill="#E33938" transform="translate(1101,1127)"/>
<path d="M0 0 C0 0.33 0 0.66 0 1 C-1.63195312 1.45439453 -1.63195312 1.45439453 -3.296875 1.91796875 C-12.13453284 4.42008773 -20.62237061 7.1899611 -29 11 C-30.19625 11.54398438 -31.3925 12.08796875 -32.625 12.6484375 C-35.75632784 14.08587894 -38.88098469 15.53607507 -42 17 C-42 16.34 -42 15.68 -42 15 C-40.02 14.34 -38.04 13.68 -36 13 C-36 12.34 -36 11.68 -36 11 C-34.824375 10.5875 -33.64875 10.175 -32.4375 9.75 C-29.53645395 8.6717351 -26.90977369 7.45586332 -24.25 5.875 C-19.80733945 3.31192661 -19.80733945 3.31192661 -17 3 C-16.34 3.33 -15.68 3.66 -15 4 C-15 3.34 -15 2.68 -15 2 C-10.13948404 -0.59227518 -5.34728867 -0.18689553 0 0 Z " fill="#E97313" transform="translate(221,87)"/>
<path d="M0 0 C0.33 1.32 0.66 2.64 1 4 C1.66 4 2.32 4 3 4 C2.67 5.98 2.34 7.96 2 10 C2.66 10 3.32 10 4 10 C4.061875 10.9075 4.12375 11.815 4.1875 12.75 C5.07570139 19.04464464 7.69825292 26.18270323 11.7265625 31.11328125 C13 33 13 33 12.6875 35.25 C12.460625 35.8275 12.23375 36.405 12 37 C4.81450111 25.36716564 -1.14770203 14.1231111 0 0 Z " fill="#EB6A20" transform="translate(543,952)"/>
<path d="M0 0 C1.90495539 2.85743308 3.08849021 5.45379435 4.375 8.625 C7.57278274 16.39505104 10.79579327 23.8922132 15.046875 31.15234375 C16 33 16 33 16 35 C15.34 35 14.68 35 14 35 C14 34.34 14 33.68 14 33 C13.34 33 12.68 33 12 33 C10.87327825 30.60496313 9.74857442 28.2090129 8.625 25.8125 C8.30789062 25.13896484 7.99078125 24.46542969 7.6640625 23.77148438 C3 13.81176758 3 13.81176758 3 10 C2.34 10 1.68 10 1 10 C0.67 6.7 0.34 3.4 0 0 Z " fill="#EE8226" transform="translate(95,1043)"/>
<path d="M0 0 C0.66 0.33 1.32 0.66 2 1 C1.360625 1.103125 0.72125 1.20625 0.0625 1.3125 C-0.618125 1.539375 -1.29875 1.76625 -2 2 C-2.33 2.99 -2.66 3.98 -3 5 C-6.69726695 6.96417307 -10.73077085 7.64678619 -14.796875 8.48828125 C-17.1989747 8.99666279 -17.1989747 8.99666279 -20.1875 10.1875 C-23.49031383 11.14164622 -25.68804235 10.78856134 -29 10 C-26.1068762 8.44856652 -23.31977009 7.42861455 -20.15625 6.5625 C-18.78146484 6.17964844 -18.78146484 6.17964844 -17.37890625 5.7890625 C-15.45963542 5.26302083 -13.54036458 4.73697917 -11.62109375 4.2109375 C-10.70457031 3.95570312 -9.78804687 3.70046875 -8.84375 3.4375 C-8.01037109 3.20933594 -7.17699219 2.98117187 -6.31835938 2.74609375 C-3.96788317 2.06404876 -3.96788317 2.06404876 -1.82226562 0.84765625 C-1.22091797 0.56792969 -0.61957031 0.28820313 0 0 Z " fill="#E3312E" transform="translate(1055,1154)"/>
<path d="M0 0 C0.66 0.33 1.32 0.66 2 1 C2.0494009 6.78408559 2.08572 12.56804864 2.10986328 18.35229492 C2.11992707 20.32041564 2.13357934 22.28852138 2.15087891 24.2565918 C2.17511059 27.08385918 2.18647923 29.91092905 2.1953125 32.73828125 C2.20563507 33.61962234 2.21595764 34.50096344 2.22659302 35.40901184 C2.22674408 36.22963608 2.22689514 37.05026031 2.22705078 37.89575195 C2.231492 38.61745071 2.23593323 39.33914948 2.24050903 40.0827179 C2 42 2 42 0 45 C-1 44 -1 44 -1.08229065 42.20933533 C-1.06230515 41.42990067 -1.04231964 40.650466 -1.02172852 39.84741211 C-1.00163223 38.96657455 -0.98153595 38.085737 -0.96083069 37.1782074 C-0.93379562 36.22092239 -0.90676056 35.26363739 -0.87890625 34.27734375 C-0.85529526 33.30213272 -0.83168427 32.32692169 -0.80735779 31.32215881 C-0.73051362 28.19379866 -0.64657909 25.06567328 -0.5625 21.9375 C-0.50930007 19.82227728 -0.45655956 17.70704296 -0.40429688 15.59179688 C-0.27487061 10.39438459 -0.13961577 5.197148 0 0 Z " fill="#D90C16" transform="translate(1168,959)"/>
<path d="M0 0 C0.66 0.33 1.32 0.66 2 1 C-5.35878434 10.14317894 -13.20041177 18.23565745 -22 26 C-22 23 -22 23 -20.62646484 21.30175781 C-19.99434082 20.69170898 -19.3622168 20.08166016 -18.7109375 19.453125 C-18.01613281 18.7725 -17.32132813 18.091875 -16.60546875 17.390625 C-15.86941406 16.68421875 -15.13335938 15.9778125 -14.375 15.25 C-9.31779057 10.34825632 -4.50004722 5.42276983 0 0 Z " fill="#DE2C30" transform="translate(1128,1100)"/>
<path d="M0 0 C6.22572756 1.72200975 12.50796073 3.47782904 18.4375 6.0625 C22.50579198 7.5508995 26.74645782 8.22362531 31 9 C28 11 28 11 24.875 10.8125 C17.66591606 9.30091788 10.86777365 6.62224085 4 4 C4 3.34 4 2.68 4 2 C2.68 2 1.36 2 0 2 C0 1.34 0 0.68 0 0 Z " fill="#EB7E24" transform="translate(200,1155)"/>
<path d="M0 0 C1.51171875 1.2421875 1.51171875 1.2421875 3 3 C3.14453125 4.9453125 3.14453125 4.9453125 2.8125 7.125 C2.69390625 7.9190625 2.5753125 8.713125 2.453125 9.53125 C-0.53275109 25.79912664 -0.53275109 25.79912664 -4 31 C-4.14869395 25.97026558 -3.63816 21.53495045 -2.5625 16.625 C-1.38408179 11.08979738 -0.49467906 5.63934132 0 0 Z " fill="#DE2933" transform="translate(1166,1005)"/>
<path d="M0 0 C0 0.33 0 0.66 0 1 C-1.134375 1.26554688 -2.26875 1.53109375 -3.4375 1.8046875 C-4.95834048 2.16142786 -6.47917341 2.51820042 -8 2.875 C-8.74378906 3.04902344 -9.48757813 3.22304688 -10.25390625 3.40234375 C-11.36572266 3.66337891 -11.36572266 3.66337891 -12.5 3.9296875 C-13.24507812 4.10209961 -13.99015625 4.27451172 -14.7578125 4.45214844 C-16.26074958 4.81937305 -17.756114 5.21899643 -19.2421875 5.64941406 C-21.13793039 6.19018687 -23.06869949 6.60458287 -25 7 C-25.99 6.34 -26.98 5.68 -28 5 C-24.84147559 3.95272355 -21.67229668 2.94220913 -18.5 1.9375 C-17.1696875 1.49567383 -17.1696875 1.49567383 -15.8125 1.04492188 C-10.04194951 -0.75837515 -5.93927722 -1.21422139 0 0 Z " fill="#E65A1E" transform="translate(635,586)"/>
<path d="M0 0 C0 0.99 0 1.98 0 3 C-1.8359375 4.5078125 -1.8359375 4.5078125 -4.375 6.125 C-11.2196927 10.70111034 -17.23119464 16.13844857 -23 22 C-23.33 21.34 -23.66 20.68 -24 20 C-17.68566901 11.31779489 -8.92148795 5.72462143 0 0 Z " fill="#E55B1A" transform="translate(589,600)"/>
<path d="M0 0 C0.66 0.33 1.32 0.66 2 1 C1.05508335 5.14901078 0.09184683 9.29354953 -0.875 13.4375 C-1.14441406 14.62150391 -1.41382812 15.80550781 -1.69140625 17.02539062 C-1.95566406 18.15009766 -2.21992187 19.27480469 -2.4921875 20.43359375 C-2.73308105 21.47572021 -2.97397461 22.51784668 -3.22216797 23.59155273 C-3.60719482 24.78373413 -3.60719482 24.78373413 -4 26 C-4.66 26.33 -5.32 26.66 -6 27 C-6.38312268 17.99661708 -4.42439506 7.90070547 0 0 Z " fill="#EA7712" transform="translate(93,206)"/>
<path d="M0 0 C1.078125 1.76953125 1.078125 1.76953125 2 4 C1.34267783 5.93910039 0.6699169 7.87649613 -0.12890625 9.76171875 C-1.54406452 13.39797746 -2.24848849 17.18055328 -3 21 C-3.66 21 -4.32 21 -5 21 C-5 22.98 -5 24.96 -5 27 C-5.33 27 -5.66 27 -6 27 C-6.36722391 20.38996962 -5.12572063 15.23353211 -3 9 C-2.71382812 8.12988281 -2.42765625 7.25976562 -2.1328125 6.36328125 C-1.43232208 4.23846032 -0.72129034 2.11783122 0 0 Z " fill="#E86F2B" transform="translate(549,644)"/>
<path d="M0 0 C4.11332505 4.05371164 8.01767279 8.26040079 11.89453125 12.5390625 C14.84764771 15.78333129 17.87515388 18.9204415 21 22 C20.34 22.33 19.68 22.66 19 23 C18.29101562 22.28972656 17.58203125 21.57945313 16.8515625 20.84765625 C14.978018 18.97345158 13.09671677 17.10810269 11.2109375 15.24609375 C10.27507812 14.31925781 9.33921875 13.39242188 8.375 12.4375 C7.65957031 11.73463867 7.65957031 11.73463867 6.9296875 11.01757812 C1.91186012 6.03459677 1.91186012 6.03459677 0 3 C0 2.01 0 1.02 0 0 Z " fill="#E8730E" transform="translate(127,1101)"/>
<path d="M0 0 C0.33 0.99 0.66 1.98 1 3 C-0.29296875 5.3046875 -0.29296875 5.3046875 -2.1875 7.875 C-3.15429688 9.19757812 -3.15429688 9.19757812 -4.140625 10.546875 C-6.05144546 13.06787342 -7.97466399 15.56959679 -10 18 C-10.33 17.01 -10.66 16.02 -11 15 C-9.453125 12.1875 -9.453125 12.1875 -7.25 9 C-6.53328125 7.948125 -5.8165625 6.89625 -5.078125 5.8125 C-3.4794571 3.6488893 -1.97756925 1.8023416 0 0 Z " fill="#E7631F" transform="translate(564,621)"/>
<path d="M0 0 C4.17546467 2.96889432 6.7463928 6.26213084 9.3125 10.625 C9.67150391 11.21023438 10.03050781 11.79546875 10.40039062 12.3984375 C13 16.71626488 13 16.71626488 13 19 C10 18 10 18 8.8125 16.125 C8 14 8 14 8 11 C7.34 10.67 6.68 10.34 6 10 C1 4.4047619 1 4.4047619 1 2 C0.34 1.67 -0.32 1.34 -1 1 C-0.67 0.67 -0.34 0.34 0 0 Z " fill="#E12E38" transform="translate(1067,538)"/>
<path d="M0 0 C5.66129431 4.69766975 10.85228904 9.74723372 16 15 C15.34 15.66 14.68 16.32 14 17 C9.7428045 12.83580149 5.64382544 8.72347743 2 4 C1.01769502 2.9826127 0.02530403 1.97403883 -1 1 C-0.67 0.67 -0.34 0.34 0 0 Z " fill="#E33427" transform="translate(852,328)"/>
<path d="M0 0 C0.99 0.33 1.98 0.66 3 1 C2.3709375 1.53367188 1.741875 2.06734375 1.09375 2.6171875 C-5.01578623 7.93542838 -10.15306896 13.51486043 -15 20 C-15.33 19.01 -15.66 18.02 -16 17 C-14.6875 14.8125 -14.6875 14.8125 -13 13 C-12.34 13 -11.68 13 -11 13 C-10.76539063 12.43796875 -10.53078125 11.8759375 -10.2890625 11.296875 C-8.69337 8.45364109 -6.71075457 6.51901873 -4.375 4.25 C-3.55773437 3.45078125 -2.74046875 2.6515625 -1.8984375 1.828125 C-0.95871094 0.92320312 -0.95871094 0.92320312 0 0 Z " fill="#EB7714" transform="translate(142,129)"/>
<path d="M0 0 C3.563579 -0.08099043 6.56581379 0.1137584 10 1 C11.66623639 1.03786901 13.33397597 1.04627845 15 1 C15 1.99 15 2.98 15 4 C9.72 3.67 4.44 3.34 -1 3 C-0.67 2.01 -0.34 1.02 0 0 Z " fill="#E33930" transform="translate(1004,80)"/>
<path d="M0 0 C1.09699219 0.55429688 2.19398438 1.10859375 3.32421875 1.6796875 C4.77859187 2.41156558 6.23302196 3.14333045 7.6875 3.875 C8.40873047 4.23980469 9.12996094 4.60460938 9.87304688 4.98046875 C13.53125364 6.8179242 17.1611695 8.56138502 21 10 C20.01 10.66 19.02 11.32 18 12 C12.125 9.25 12.125 9.25 11 7 C9.68 7 8.36 7 7 7 C7 6.34 7 5.68 7 5 C4.69 4.34 2.38 3.68 0 3 C0 2.01 0 1.02 0 0 Z " fill="#EB7515" transform="translate(177,1144)"/>
<path d="M0 0 C11.385 1.485 11.385 1.485 23 3 C19.30390389 5.46406408 17.84549517 5.09366678 13.5 4.6875 C12.3553125 4.58824219 11.210625 4.48898437 10.03125 4.38671875 C7 4 7 4 4 3 C2.66893378 2.65772583 1.33599921 2.32248257 0 2 C0 1.34 0 0.68 0 0 Z " fill="#E76A09" transform="translate(233,1165)"/>
<path d="M0 0 C4.26029191 0.57999024 7.35161535 3.12387893 10.75 5.5625 C11.35199219 5.98724609 11.95398437 6.41199219 12.57421875 6.84960938 C14.05329714 7.89435522 15.52717259 8.94646016 17 10 C15.68 10.33 14.36 10.66 13 11 C13 10.34 13 9.68 13 9 C12.13375 8.8453125 12.13375 8.8453125 11.25 8.6875 C8.64617649 7.89188726 7.05370602 6.77043622 5 5 C4.67 4.34 4.34 3.68 4 3 C3.01 3 2.02 3 1 3 C0.67 2.01 0.34 1.02 0 0 Z " fill="#E12D32" transform="translate(1019,503)"/>
<path d="M0 0 C0.66 0 1.32 0 2 0 C1.979375 1.093125 1.95875 2.18625 1.9375 3.3125 C1.81455548 6.94384191 1.81455548 6.94384191 3 10 C3.11632729 11.51766539 3.17496239 13.0404346 3.1875 14.5625 C3.20167969 15.34753906 3.21585938 16.13257813 3.23046875 16.94140625 C3 19 3 19 1 21 C0.14626761 13.97195301 -0.12109311 7.07721931 0 0 Z " fill="#DB1B23" transform="translate(1167,237)"/>
<path d="M0 0 C6.26802091 1.95875653 11.50005617 6.31838142 16 11 C11.25 10.25 11.25 10.25 9 8 C8.01 7.34 7.02 6.68 6 6 C6 5.34 6 4.68 6 4 C5.01 4 4.02 4 3 4 C3 3.34 3 2.68 3 2 C2.01 1.67 1.02 1.34 0 1 C0 0.67 0 0.34 0 0 Z " fill="#DF2B33" transform="translate(1049,524)"/>
<path d="M0 0 C0.66 0.66 1.32 1.32 2 2 C-1.3 5.3 -4.6 8.6 -8 12 C-8.66 11.34 -9.32 10.68 -10 10 C-6.7 6.7 -3.4 3.4 0 0 Z " fill="#E34328" transform="translate(798,779)"/>
<path d="M0 0 C0.33 0 0.66 0 1 0 C2.50676164 6.86413636 1.3890389 12.46996034 -1 19 C-1.33 19 -1.66 19 -2 19 C-2.24794402 12.4294834 -1.32388229 6.43028541 0 0 Z " fill="#E9872F" transform="translate(251,517)"/>
<path d="M0 0 C1.65 0 3.3 0 5 0 C0.74276476 3.88704087 -5.27543399 6 -11 6 C-11 5.34 -11 4.68 -11 4 C-9.54494642 3.47007308 -8.08581873 2.9513211 -6.625 2.4375 C-5.81289063 2.14746094 -5.00078125 1.85742188 -4.1640625 1.55859375 C-2 1 -2 1 0 2 C0 1.34 0 0.68 0 0 Z " fill="#EB7236" transform="translate(584,527)"/>
<path d="M0 0 C4.47531555 1.40652774 6.76271706 3.6797098 10 7 C12.16620544 8.29519995 12.16620544 8.29519995 14 9 C13.67 9.99 13.34 10.98 13 12 C10.82737873 10.38247153 8.66200042 8.75661363 6.5 7.125 C5.87996094 6.66480469 5.25992187 6.20460938 4.62109375 5.73046875 C3.04364108 4.53437826 1.51738202 3.27143274 0 2 C0 1.34 0 0.68 0 0 Z " fill="#E23534" transform="translate(1090,112)"/>
<path d="M0 0 C0 0.33 0 0.66 0 1 C-10.37357631 3.48063781 -10.37357631 3.48063781 -16 2 C-16 1.67 -16 1.34 -16 1 C-10.10106757 -0.79074734 -6.06820868 -1.08360869 0 0 Z " fill="#E8652D" transform="translate(635,586)"/>
<path d="M0 0 C0.99 0.33 1.98 0.66 3 1 C0.69 5.29 -1.62 9.58 -4 14 C-4.66 13.01 -5.32 12.02 -6 11 C-5.34 9.68 -4.68 8.36 -4 7 C-3.34 7 -2.68 7 -2 7 C-1.34 4.69 -0.68 2.38 0 0 Z " fill="#E87716" transform="translate(109,169)"/>
<path d="M0 0 C6.18160604 0.53753096 11.326858 2.54582388 17 5 C15.24609375 6.109375 15.24609375 6.109375 13 7 C11.03515625 6.390625 11.03515625 6.390625 9.0625 5.25 C8.37285156 4.8684375 7.68320313 4.486875 6.97265625 4.09375 C6.32167969 3.7328125 5.67070313 3.371875 5 3 C3.34302621 2.30959426 1.68076231 1.63028587 0 1 C0 0.67 0 0.34 0 0 Z " fill="#E33A36" transform="translate(1050,92)"/>
<path d="M0 0 C1.99825961 2.99738941 2.27550398 3.63347508 2.25 7 C2.25515625 7.680625 2.2603125 8.36125 2.265625 9.0625 C2 11 2 11 0 14 C-0.33 13.67 -0.66 13.34 -1 13 C-0.90982004 10.80949979 -0.75333792 8.621534 -0.5625 6.4375 C-0.46066406 5.23996094 -0.35882812 4.04242187 -0.25390625 2.80859375 C-0.17011719 1.88175781 -0.08632812 0.95492187 0 0 Z " fill="#DD222A" transform="translate(1168,990)"/>
<path d="M0 0 C1.67666168 3.35332335 0.53482999 7.01064875 0.0625 10.625 C-0.03740234 11.42679688 -0.13730469 12.22859375 -0.24023438 13.0546875 C-0.4880418 15.03714691 -0.74331807 17.01867009 -1 19 C-3.33139999 14.64371874 -3.69683164 11.46106435 -2.32421875 6.61328125 C-1.58852602 4.39225627 -0.81827397 2.19180526 0 0 Z " fill="#E76E07" transform="translate(87,235)"/>
<path d="M0 0 C3.625 0.375 3.625 0.375 6.0625 2.375 C6.8359375 3.365 6.8359375 3.365 7.625 4.375 C6.635 4.87 6.635 4.87 5.625 5.375 C5.625 4.715 5.625 4.055 5.625 3.375 C1.995 3.045 -1.635 2.715 -5.375 2.375 C-3.375 0.375 -3.375 0.375 0 0 Z " fill="#E55318" transform="translate(636.375,583.625)"/>
<path d="M0 0 C-1.40751221 0.86916887 -2.8264521 1.71985149 -4.25 2.5625 C-5.03890625 3.03816406 -5.8278125 3.51382813 -6.640625 4.00390625 C-9.30844625 5.13022151 -10.34501768 5.0169313 -13 4 C-11.59248779 3.13083113 -10.1735479 2.28014851 -8.75 1.4375 C-7.96109375 0.96183594 -7.1721875 0.48617187 -6.359375 -0.00390625 C-3.69155375 -1.13022151 -2.65498232 -1.0169313 0 0 Z " fill="#E85A16" transform="translate(599,522)"/>
<path d="M0 0 C0.66 0.99 1.32 1.98 2 3 C1.34 3 0.68 3 0 3 C-0.103125 4.051875 -0.20625 5.10375 -0.3125 6.1875 C-0.97733415 9.87430754 -1.88566296 11.96638599 -4 15 C-5 13 -5 13 -4.00390625 9.9609375 C-3.52824219 8.77757812 -3.05257813 7.59421875 -2.5625 6.375 C-2.08941406 5.18648438 -1.61632812 3.99796875 -1.12890625 2.7734375 C-0.75636719 1.85820312 -0.38382812 0.94296875 0 0 Z " fill="#E8862E" transform="translate(271,449)"/>
<path d="M0 0 C-0.33 0.99 -0.66 1.98 -1 3 C-5.49885947 3.86516528 -8.01647791 4.30903272 -12 2 C-10.56342755 1.66269158 -9.12569907 1.33030409 -7.6875 1 C-6.88699219 0.814375 -6.08648438 0.62875 -5.26171875 0.4375 C-3 0 -3 0 0 0 Z " fill="#E6443F" transform="translate(1038,1161)"/>
<path d="M0 0 C0.99 0 1.98 0 3 0 C1.68938409 4.23429756 0.05643741 8.07407404 -2 12 C-3.40907283 9.18185434 -2.50872691 7.82722796 -1.5625 4.875 C-1.27503906 3.96492187 -0.98757812 3.05484375 -0.69140625 2.1171875 C-0.46324219 1.41851562 -0.23507813 0.71984375 0 0 Z " fill="#E97B1D" transform="translate(97,193)"/>
<path d="M0 0 C1.1875 1.5 1.1875 1.5 2 4 C1.27101296 6.78824238 0.1843275 9.37665092 -1 12 C-1.33 12 -1.66 12 -2 12 C-2.17835515 7.45194365 -1.99785435 4.1205746 0 0 Z " fill="#DE1E28" transform="translate(1164,1024)"/>
<path d="M0 0 C0.66 0.33 1.32 0.66 2 1 C0.92289822 5.30840713 -0.03947516 8.63576723 -3 12 C-2.14285714 3.42857143 -2.14285714 3.42857143 0 0 Z " fill="#DF252E" transform="translate(1160,1039)"/>
<path d="M0 0 C1.0161846 1.32103998 2.01133494 2.65824027 3 4 C3.7425 4.99 4.485 5.98 5.25 7 C7 10 7 10 6.609375 12.1875 C6.30773437 13.0846875 6.30773437 13.0846875 6 14 C4.9923048 12.2335343 3.99408286 10.46166177 3 8.6875 C2.443125 7.70136719 1.88625 6.71523438 1.3125 5.69921875 C0 3 0 3 0 0 Z " fill="#E75C10" transform="translate(549,975)"/>
<path d="M0 0 C0.33 0 0.66 0 1 0 C2.10228696 4.40914783 2.07654536 8.48382401 2 13 C1.690625 12.360625 1.38125 11.72125 1.0625 11.0625 C0.1654837 9.06389179 0.1654837 9.06389179 -1 8 C-0.82364548 5.30917128 -0.38164079 2.67148554 0 0 Z " fill="#E9750E" transform="translate(85,994)"/>
<path d="M0 0 C1 3 1 3 0.00390625 5.26171875 C-0.47175781 6.06222656 -0.94742188 6.86273437 -1.4375 7.6875 C-2.14712891 8.89986328 -2.14712891 8.89986328 -2.87109375 10.13671875 C-3.24363281 10.75160156 -3.61617187 11.36648438 -4 12 C-4.66 12 -5.32 12 -6 12 C-4.43358249 7.69235185 -2.31663844 3.93828536 0 0 Z " fill="#F9D7D6" transform="translate(928,752)"/>
<path d="M0 0 C3.63094642 2.64960955 5.89851796 5.01824456 8 9 C7.01 9 6.02 9 5 9 C5 8.34 5 7.68 5 7 C4.34 7 3.68 7 3 7 C0 2.61538462 0 2.61538462 0 0 Z " fill="#E33A2F" transform="translate(876,354)"/>
<path d="M0 0 C0.66 0.66 1.32 1.32 2 2 C0.7391988 3.03319813 -0.53403258 4.05124379 -1.8125 5.0625 C-2.87404297 5.91521484 -2.87404297 5.91521484 -3.95703125 6.78515625 C-4.63121094 7.18605469 -5.30539062 7.58695313 -6 8 C-6.99 7.67 -7.98 7.34 -9 7 C-6.03 4.69 -3.06 2.38 0 0 Z " fill="#E44629" transform="translate(779,797)"/>
<path d="M0 0 C-2.57089417 2.11180592 -4.63060567 3.66306057 -8 4 C-8.66 3.34 -9.32 2.68 -10 2 C-3.375 -1.125 -3.375 -1.125 0 0 Z " fill="#E86426" transform="translate(608,593)"/>
<path d="M0 0 C3.99455527 0.61454696 6.74466336 2.70646737 10 5 C9.34 5.66 8.68 6.32 8 7 C5.5 5.625 5.5 5.625 3 4 C3 3.34 3 2.68 3 2 C2.01 1.67 1.02 1.34 0 1 C0 0.67 0 0.34 0 0 Z " fill="#E22F37" transform="translate(1039,517)"/>
<path d="M0 0 C2.96404505 2.80804268 5.44499019 5.18315774 7 9 C6.01 9.495 6.01 9.495 5 10 C2.08772731 6.71195019 0.50298788 4.40114397 0 0 Z " fill="#E4372F" transform="translate(890,372)"/>
<path d="M0 0 C0 0.33 0 0.66 0 1 C-4.873261 2.5912689 -8.80790596 3.21192221 -14 3 C-10.07503936 -0.92496064 -5.24412188 -0.08740203 0 0 Z " fill="#E9793C" transform="translate(576,229)"/>
<path d="M0 0 C0.33 0.66 0.66 1.32 1 2 C-0.76227632 5.61730402 -2.64326421 7.80075931 -6 10 C-6.66 9.67 -7.32 9.34 -8 9 C-5.36 6.03 -2.72 3.06 0 0 Z " fill="#FBE9D7" transform="translate(135,138)"/>
<path d="M0 0 C0.33 0.66 0.66 1.32 1 2 C1.99 2.33 2.98 2.66 4 3 C0.7 3.33 -2.6 3.66 -6 4 C-5.67 3.01 -5.34 2.02 -5 1 C-3.35 0.67 -1.7 0.34 0 0 Z " fill="#E97519" transform="translate(242,80)"/>
<path d="M0 0 C2.97 0 5.94 0 9 0 C9 0.66 9 1.32 9 2 C5.62182575 2.84454356 3.32534757 3.10844919 0 2 C0 1.34 0 0.68 0 0 Z " fill="#E96738" transform="translate(651,850)"/>
<path d="M0 0 C1 3 1 3 0.22265625 4.82421875 C-0.8515625 6.54947917 -1.92578125 8.27473958 -3 10 C-3.66 10 -4.32 10 -5 10 C-3.84414715 6.08788267 -2.64465038 3.1254959 0 0 Z " fill="#E22E27" transform="translate(923,758)"/>
<path d="M0 0 C0.99 0.66 1.98 1.32 3 2 C1.35 3.65 -0.3 5.3 -2 7 C-2.99 6.67 -3.98 6.34 -5 6 C-3.35 4.02 -1.7 2.04 0 0 Z " fill="#EC7816" transform="translate(343,338)"/>
<path d="M0 0 C0.33 0.66 0.66 1.32 1 2 C-0.65 3.98 -2.3 5.96 -4 8 C-4.99 7.67 -5.98 7.34 -7 7 C-4.69 4.69 -2.38 2.38 0 0 Z " fill="#EA862D" transform="translate(351,330)"/>
<path d="M0 0 C0.66 0.33 1.32 0.66 2 1 C1.360625 1.103125 0.72125 1.20625 0.0625 1.3125 C-0.618125 1.539375 -1.29875 1.76625 -2 2 C-2.33 2.99 -2.66 3.98 -3 5 C-5.31 5 -7.62 5 -10 5 C-6.76527494 2.84351662 -3.62848922 1.38542316 0 0 Z " fill="#E54945" transform="translate(1055,1154)"/>
<path d="M0 0 C0.33 0.66 0.66 1.32 1 2 C-1.64 3.98 -4.28 5.96 -7 8 C-7.66 7.34 -8.32 6.68 -9 6 C-6.03 4.02 -3.06 2.04 0 0 Z " fill="#FBE6DB" transform="translate(610,514)"/>
<path d="M0 0 C3.3 0 6.6 0 10 0 C10 0.99 10 1.98 10 3 C6.7 2.34 3.4 1.68 0 1 C0 0.67 0 0.34 0 0 Z " fill="#E23D37" transform="translate(1036,88)"/>
<path d="M0 0 C1.21236328 0.01353516 1.21236328 0.01353516 2.44921875 0.02734375 C3.37154297 0.04474609 3.37154297 0.04474609 4.3125 0.0625 C0.67633344 2.0414756 -2.57175629 2.5876065 -6.6875 3.0625 C-7.0175 2.4025 -7.3475 1.7425 -7.6875 1.0625 C-4.80538698 0.10179566 -2.98899956 -0.04331883 0 0 Z " fill="#E8751A" transform="translate(228.6875,83.9375)"/>
<path d="M0 0 C0 0.66 0 1.32 0 2 C-2.64 2.99 -5.28 3.98 -8 5 C-8.33 4.34 -8.66 3.68 -9 3 C-3.375 0 -3.375 0 0 0 Z " fill="#E12825" transform="translate(1062,1153)"/>
<path d="M0 0 C0.66 0.66 1.32 1.32 2 2 C-0.97 4.475 -0.97 4.475 -4 7 C-4.33 6.01 -4.66 5.02 -5 4 C-3.35 2.68 -1.7 1.36 0 0 Z " fill="#FDF2F2" transform="translate(1114,1112)"/>
<path d="M0 0 C2.72426311 2.35277269 3.8141763 4.62496331 5 8 C4.34 8 3.68 8 3 8 C3 7.34 3 6.68 3 6 C2.01 5.67 1.02 5.34 0 5 C0 3.35 0 1.7 0 0 Z " fill="#EF8324" transform="translate(112,1080)"/>
<path d="M0 0 C1.37432457 3.81756824 0.67975039 7.07255329 0 11 C-0.66 11 -1.32 11 -2 11 C-1.125 3.375 -1.125 3.375 0 0 Z " fill="#EB903C" transform="translate(259,483)"/>
<path d="M0 0 C0 0.66 0 1.32 0 2 C-2.31 2.33 -4.62 2.66 -7 3 C-7.33 2.34 -7.66 1.68 -8 1 C-5.29120665 -0.35439668 -2.99066732 -0.06501451 0 0 Z " fill="#DF2824" transform="translate(1030,1164)"/>
<path d="M0 0 C2.64752004 2.57784846 4.94432065 4.91648098 7 8 C4.24542282 7.62005832 3.17979426 7.1926367 1.25 5.125 C0 3 0 3 0 0 Z " fill="#ED842B" transform="translate(127,1101)"/>
<path d="M0 0 C4.875 4.75 4.875 4.75 6 7 C5.34 7.66 4.68 8.32 4 9 C4 8.01 4 7.02 4 6 C3.34 6 2.68 6 2 6 C1.34 4.02 0.68 2.04 0 0 Z " fill="#E2372D" transform="translate(884,364)"/>
</svg>
