<?xml version="1.0" encoding="UTF-8"?>
<svg version="1.1" xmlns="http://www.w3.org/2000/svg" width="512" height="512">
<path d="M0 0 C168.96 0 337.92 0 512 0 C512 168.96 512 337.92 512 512 C343.04 512 174.08 512 0 512 C0 343.04 0 174.08 0 0 Z " fill="#FEFDFD" transform="translate(0,0)"/>
<path d="M0 0 C168.96 0 337.92 0 512 0 C512 168.96 512 337.92 512 512 C343.04 512 174.08 512 0 512 C0 343.04 0 174.08 0 0 Z M186 26 C184.72068604 26.28085449 184.72068604 26.28085449 183.41552734 26.56738281 C166.00805464 30.50831212 149.46255648 36.71854159 133.71484375 45.09179688 C132.19437154 45.89705835 130.66055134 46.67700394 129.125 47.453125 C111.51723786 56.57143039 96.35935407 69.48774451 82 83 C81.34128906 83.61617187 80.68257812 84.23234375 80.00390625 84.8671875 C74.85385509 89.83883043 70.40850469 95.37122121 66 101 C65.57702637 101.53592773 65.15405273 102.07185547 64.71826172 102.62402344 C51.53448504 119.46207884 41.70164366 138.09421332 34 158 C33.70899414 158.7425 33.41798828 159.485 33.11816406 160.25 C22.94497094 186.70749164 21.64550774 213.99928173 22 242 C22.00725098 242.80083008 22.01450195 243.60166016 22.02197266 244.42675781 C22.39791385 270.36032852 31.62181405 297.91566551 43 321 C43.34788574 321.71349609 43.69577148 322.42699219 44.05419922 323.16210938 C54.25450521 343.87083128 68.17672408 361.31240376 84 378 C84.72316406 378.76570313 85.44632813 379.53140625 86.19140625 380.3203125 C91.0908034 385.36817623 96.40856518 389.73985918 102 394 C102.86625 394.66 103.7325 395.32 104.625 396 C120.0021008 407.44342385 137.0677903 417.17109081 155 424 C155.94488281 424.36867188 156.88976562 424.73734375 157.86328125 425.1171875 C162.83700953 427.00211357 167.69738897 428.53297361 172.9296875 429.5078125 C175 430 175 430 177.31567383 430.96606445 C179.91059775 431.96556448 182.28739235 432.54752562 185.01953125 433.03515625 C185.95990234 433.20466797 186.90027344 433.37417969 187.86914062 433.54882812 C188.84044922 433.71833984 189.81175781 433.88785156 190.8125 434.0625 C191.77220703 434.23587891 192.73191406 434.40925781 193.72070312 434.58789062 C201.97570456 436.05857689 209.99726624 437.1550819 218.3828125 437.16796875 C219.15954315 437.17129715 219.9362738 437.17462555 220.73654175 437.17805481 C222.37188125 437.18308577 224.00723089 437.18546433 225.64257812 437.18530273 C228.09783624 437.18747596 230.55263435 437.2056362 233.0078125 437.22460938 C242.51593697 437.25968518 251.61583575 436.69817443 261 435 C262.0612207 434.81236084 263.12244141 434.62472168 264.21582031 434.43139648 C280.52103685 431.44244239 295.81765712 427.7758905 311 421 C311.62358398 420.72704102 312.24716797 420.45408203 312.88964844 420.17285156 C328.22780462 413.42465937 342.59853318 405.17127857 355.6171875 394.58203125 C358 393 358 393 362 393 C363.74043846 394.25662708 363.74043846 394.25662708 365.51571655 396.05488586 C366.19409073 396.73209686 366.8724649 397.40930786 367.57139587 398.10704041 C368.30499832 398.85973709 369.03860077 399.61243378 369.79443359 400.38793945 C370.57541916 401.17315979 371.35640472 401.95838013 372.16105652 402.76739502 C373.85865313 404.4768815 375.55157679 406.19101802 377.24039841 407.90917397 C379.91336134 410.62846375 382.59812239 413.33558168 385.2862854 416.0398407 C390.50869284 421.29788908 395.71754468 426.56917587 400.92401886 431.84298706 C407.99241456 439.00165967 415.06977609 446.1513136 422.15974808 453.28862572 C424.80408696 455.95615143 427.43879725 458.63293663 430.0730896 461.31037903 C431.69723722 462.94862317 433.32177888 464.58647678 434.94677734 466.22387695 C435.67633133 466.97050095 436.40588531 467.71712494 437.157547 468.4863739 C442.70100458 474.04325746 447.24257738 477.42765445 455.375 477.4375 C461.95782289 477.26505703 466.67025483 476.11629997 471.5234375 471.57421875 C475.91951853 466.65721482 477.29787967 462.11853137 477.375 455.625 C477.40335937 454.54476563 477.43171875 453.46453125 477.4609375 452.3515625 C476.35777213 444.33024139 470.62750838 439.20684499 465.11035156 433.76977539 C463.92441658 432.58318329 463.92441658 432.58318329 462.71452332 431.37261963 C460.11360859 428.77378585 457.50224808 426.18572497 454.890625 423.59765625 C453.07964748 421.79227712 451.26933354 419.98623213 449.45965576 418.17955017 C445.19059254 413.92074983 440.91492226 409.66869579 436.63593364 405.41987652 C431.7617827 400.57934245 426.8962216 395.73021277 422.03133821 390.8803674 C412.03037374 380.91069908 402.01875132 370.95179148 392 361 C393.2947221 358.35734105 394.62521323 356.01439192 396.3984375 353.6640625 C419.90726404 321.86412301 435.84648728 282.87498066 437 243 C437.04624512 241.72286133 437.09249023 240.44572266 437.14013672 239.12988281 C437.80256796 219.51813181 437.00087805 201.10224221 432 182 C431.70528809 180.865625 431.41057617 179.73125 431.10693359 178.5625 C423.97359398 151.73550465 413.03067735 127.04218333 396 105 C395.50628906 104.35820801 395.01257813 103.71641602 394.50390625 103.05517578 C383.98269489 89.4871423 372.55233154 77.57463616 359 67 C358.06414062 66.22398438 357.12828125 65.44796875 356.1640625 64.6484375 C309.84679646 27.14216809 243.8175027 13.13300811 186 26 Z " fill="#E44917" transform="translate(0,0)"/>
<path d="M0 0 C2.48340344 0.01071167 4.96608138 0.00004877 7.44946289 -0.01269531 C9.07641756 -0.01137311 10.70337179 -0.00880947 12.33032227 -0.00488281 C13.04848618 -0.00893127 13.76665009 -0.01297974 14.50657654 -0.01715088 C21.60830993 0.045225 28.54721153 1.16530421 35.55297852 2.26074219 C35.6462679 12.54542043 35.71703929 22.82999558 35.7602272 33.11501312 C35.78097075 37.89242151 35.80904179 42.66953729 35.85473633 47.44677734 C35.8986722 52.0698681 35.92221468 56.69268008 35.93248749 61.31596375 C35.93979426 63.06675089 35.95405837 64.81752536 35.97589874 66.56819153 C36.23339292 88.09345844 31.39635202 106.90604339 16.55297852 123.26074219 C15.80274414 124.10378906 15.05250977 124.94683594 14.27954102 125.81542969 C4.33806913 136.40036254 -9.02926269 144.6393315 -23.44702148 147.26074219 C-27.07702148 147.26074219 -30.70702148 147.26074219 -34.44702148 147.26074219 C-34.44702148 117.56074219 -34.44702148 87.86074219 -34.44702148 57.26074219 C-61.12947972 63.5745258 -61.12947972 63.5745258 -83.44702148 78.26074219 C-84.19209961 78.95296875 -84.93717773 79.64519531 -85.70483398 80.35839844 C-90.35751066 85.08204815 -93.74662127 90.08970647 -96.75952148 95.94824219 C-97.07284424 96.54628662 -97.38616699 97.14433105 -97.70898438 97.76049805 C-105.27128579 113.37605446 -105.07644138 129.08930437 -105.05018663 146.10167003 C-105.04802117 148.88700352 -105.05787901 151.67224836 -105.06739748 154.45756251 C-105.08945289 161.0387541 -105.0905386 167.61971724 -105.07836914 174.20092773 C-105.06629176 180.94328202 -105.09093539 187.68480135 -105.13350928 194.42701334 C-105.1689657 200.26111644 -105.1807094 206.09495642 -105.17423379 211.92916304 C-105.17064411 215.39382803 -105.17551143 218.85789683 -105.20366287 222.32246208 C-105.33390329 242.53658736 -103.72518198 257.5433383 -91.44702148 274.26074219 C-90.97651367 274.91429687 -90.50600586 275.56785156 -90.02124023 276.24121094 C-81.6007995 286.98616771 -68.7335888 292.03494012 -56.07983398 295.90917969 C-55.34321533 296.13694092 -54.60659668 296.36470215 -53.84765625 296.59936523 C-52.04814205 297.1554195 -50.24767806 297.70839846 -48.44702148 298.26074219 C-48.45812454 297.47972641 -48.4692276 296.69871063 -48.48066711 295.89402771 C-48.58162085 288.46710257 -48.65736237 281.04051864 -48.70608234 273.61308193 C-48.73197357 269.79619578 -48.76698589 265.97988514 -48.82421875 262.16333008 C-48.87928409 258.46740788 -48.90859509 254.7720326 -48.9214077 251.07573128 C-48.93051628 249.6785428 -48.94829505 248.28137796 -48.97567177 246.88442802 C-49.33476767 227.76834192 -42.15653008 211.15699411 -29.11987305 197.27783203 C-17.84717067 185.81906422 -5.17647253 178.19310495 10.55297852 174.26074219 C14.18297852 174.26074219 17.81297852 174.26074219 21.55297852 174.26074219 C21.55297852 203.96074219 21.55297852 233.66074219 21.55297852 264.26074219 C45.51433427 259.21624624 65.97340023 252.69474474 79.92407227 231.90917969 C87.65098391 219.3459996 91.63470198 203.83220121 91.7111969 189.12332153 C91.71613488 188.42807464 91.72107285 187.73282774 91.72616047 187.01651275 C91.7414514 184.6996501 91.74987313 182.38281497 91.75830078 180.06591797 C91.76788592 178.40002706 91.77789638 176.73413856 91.78829956 175.06825256 C91.81528575 170.5543044 91.83632927 166.04034585 91.85630155 161.52636194 C91.87819995 156.805794 91.90556975 152.08525785 91.93235779 147.36471558 C91.98223261 138.42948426 92.02719074 129.49423524 92.07038015 120.55896938 C92.1197971 110.38487948 92.17469868 100.21082149 92.23005974 90.03676248 C92.34379978 69.11145212 92.45065615 48.18611129 92.55297852 27.26074219 C96.94948667 28.90506697 100.33568517 31.17078057 103.99047852 34.07324219 C104.53768555 34.49927734 105.08489258 34.9253125 105.64868164 35.36425781 C111.22629294 39.727336 116.61483102 44.17052856 121.55297852 49.26074219 C122.66866211 50.39769531 122.66866211 50.39769531 123.80688477 51.55761719 C154.47675121 84.14759372 168.46237812 126.58357621 167.86938477 170.83886719 C167.25149111 190.91136229 162.6886468 212.28650053 153.55297852 230.26074219 C152.93519399 231.53847154 152.31946255 232.81719474 151.70532227 234.09667969 C146.09256228 245.69117143 139.6791006 256.2345665 131.55297852 266.26074219 C130.86333008 267.13601563 130.17368164 268.01128906 129.46313477 268.91308594 C109.62757621 293.76853981 83.33944801 309.94125634 53.55297852 320.26074219 C52.86373291 320.51114258 52.1744873 320.76154297 51.46435547 321.01953125 C45.60005317 323.08859608 39.73529713 324.32401099 33.61547852 325.38574219 C32.69057617 325.55460937 31.76567383 325.72347656 30.81274414 325.89746094 C-1.13194078 331.58348054 -33.94936501 328.00548984 -63.44702148 314.26074219 C-64.6787207 313.69613281 -64.6787207 313.69613281 -65.93530273 313.12011719 C-76.54338303 308.04448068 -86.22972658 301.53773285 -95.75952148 294.69824219 C-96.50008789 294.1684375 -97.2406543 293.63863281 -98.00366211 293.09277344 C-129.09925389 270.48792068 -149.57658425 235.52174936 -157.44702148 198.26074219 C-157.84116107 196.55201728 -158.23660425 194.84359133 -158.63452148 193.13574219 C-159.95472822 186.83937158 -160.61569016 180.71964585 -160.68530273 174.29199219 C-160.70006149 173.16821167 -160.70006149 173.16821167 -160.71511841 172.02172852 C-161.04035624 140.79567266 -156.7163358 112.93105911 -141.44702148 85.26074219 C-140.58270508 83.66166016 -140.58270508 83.66166016 -139.70092773 82.03027344 C-133.34457436 70.68278809 -125.38181373 60.67516285 -116.44702148 51.26074219 C-115.96168945 50.73754395 -115.47635742 50.2143457 -114.97631836 49.67529297 C-85.24039997 17.75616124 -43.54247253 -0.22287711 0 0 Z " fill="#E45314" transform="translate(226.447021484375,65.7392578125)"/>
<path d="M0 0 C3.96 0.33 7.92 0.66 12 1 C11.67 2.32 11.34 3.64 11 5 C10.21625 4.814375 9.4325 4.62875 8.625 4.4375 C6.02910225 3.74037734 6.02910225 3.74037734 4 5 C3.34 4.34 2.68 3.68 2 3 C1.01 3 0.02 3 -1 3 C-0.67 2.01 -0.34 1.02 0 0 Z " fill="#DD5C1B" transform="translate(198,435)"/>
<path d="M0 0 C-0.33 0.99 -0.66 1.98 -1 3 C-3.0625 3.6875 -3.0625 3.6875 -5 4 C-5 3.34 -5 2.68 -5 2 C-7.64 2.33 -10.28 2.66 -13 3 C-8.72352613 0.14901742 -5.0682068 -0.14480591 0 0 Z " fill="#E07236" transform="translate(202,68)"/>
<path d="M0 0 C0.66 0.33 1.32 0.66 2 1 C1.360625 1.28875 0.72125 1.5775 0.0625 1.875 C-2.15206079 2.82823451 -2.15206079 2.82823451 -3 5 C-5.0625 5.625 -5.0625 5.625 -7 6 C-7 5.01 -7 4.02 -7 3 C-4.69631264 1.93347808 -2.35981813 0.93578995 0 0 Z " fill="#DC583A" transform="translate(303,423)"/>
</svg>
