<?xml version="1.0" encoding="UTF-8"?>
<svg version="1.1" xmlns="http://www.w3.org/2000/svg" width="512" height="512">
<path d="M0 0 C168.96 0 337.92 0 512 0 C512 168.96 512 337.92 512 512 C343.04 512 174.08 512 0 512 C0 343.04 0 174.08 0 0 Z " fill="#E54A17" transform="translate(0,0)"/>
<path d="M0 0 C4.94128483 2.77704991 9.9354598 5.45553617 14.92529297 8.14404297 C23.50606071 12.78514787 32.07430319 17.4487618 40.63623047 22.12451172 C48.3893765 26.35652983 56.15569627 30.563973 63.92480469 34.76660156 C68.99520875 37.510692 74.06162695 40.26174912 79.12060547 43.02685547 C80.11705078 43.57148437 81.11349609 44.11611328 82.14013672 44.67724609 C84.02608712 45.70882299 85.91153589 46.74131772 87.79638672 47.77490234 C88.64587891 48.23960938 89.49537109 48.70431641 90.37060547 49.18310547 C91.10811035 49.5873877 91.84561523 49.99166992 92.60546875 50.40820312 C95.3535915 51.87221043 98.13567546 53.26102275 100.92529297 54.64404297 C101.76587643 87.7500994 101.76587643 87.7500994 96.92529297 100.64404297 C96.67859863 101.31032715 96.4319043 101.97661133 96.17773438 102.66308594 C92.66621705 111.94306265 88.332506 119.99599642 81.92529297 127.64404297 C81.08998047 128.64177734 80.25466797 129.63951172 79.39404297 130.66748047 C67.09084619 144.91281513 50.52064461 155.7292321 31.92529297 159.64404297 C27.63529297 159.64404297 23.34529297 159.64404297 18.92529297 159.64404297 C18.92529297 124.66404297 18.92529297 89.68404297 18.92529297 53.64404297 C16.45029297 54.63404297 16.45029297 54.63404297 13.92529297 55.64404297 C12.38080293 56.05057382 10.82652277 56.42148136 9.26513672 56.75732422 C8.39493896 56.95052246 7.52474121 57.1437207 6.62817383 57.34277344 C5.71559814 57.54531738 4.80302246 57.74786133 3.86279297 57.95654297 C-13.53628442 61.98511347 -28.30236784 68.91499984 -41.07470703 81.64404297 C-41.77337891 82.31951172 -42.47205078 82.99498047 -43.19189453 83.69091797 C-52.49535066 93.32017607 -57.89795745 105.77977982 -61.07470703 118.64404297 C-61.24128008 119.28152558 -61.40785313 119.9190082 -61.57947385 120.57580847 C-62.98688316 126.30922208 -63.36612119 131.6831667 -63.35317993 137.57191467 C-63.35897233 138.5310722 -63.36476474 139.49022972 -63.37073267 140.47845262 C-63.38764541 143.67048429 -63.39060164 146.86237061 -63.39355469 150.05444336 C-63.40285888 152.35131176 -63.41302828 154.64817679 -63.42399597 156.94503784 C-63.45125456 163.16537375 -63.46643317 169.38568707 -63.479424 175.60606694 C-63.49507261 182.11235849 -63.52185734 188.61860403 -63.54745483 195.12486267 C-63.58890227 206.04034075 -63.62350534 216.95582077 -63.65283203 227.87133789 C-63.68304828 239.11093965 -63.71741261 250.3505162 -63.75732422 261.59008789 C-63.76101654 262.63049608 -63.76101654 262.63049608 -63.76478346 263.69192261 C-63.77715866 267.17177575 -63.78961507 270.65162859 -63.80211186 274.13148129 C-63.90556762 302.96896582 -63.9946612 331.80648432 -64.07470703 360.64404297 C-63.40648926 360.44125732 -62.73827148 360.23847168 -62.04980469 360.02954102 C-61.16341309 359.76181885 -60.27702148 359.49409668 -59.36376953 359.21826172 C-58.48930176 358.95360107 -57.61483398 358.68894043 -56.71386719 358.41625977 C-54.30280798 357.71078518 -51.88435021 357.07438375 -49.44970703 356.45654297 C-29.89632187 350.53501308 -15.55733699 338.50263311 -5.19970703 321.08154297 C0.9243176 308.7226048 1.49624477 297.67900088 1.48779297 284.14404297 C1.51774131 261.76265057 1.51774131 261.76265057 4.92529297 251.64404297 C5.20429443 250.79688721 5.4832959 249.94973145 5.77075195 249.0769043 C12.27417465 230.34468428 26.35822339 214.18443122 42.92529297 203.64404297 C43.72064453 203.10521484 44.51599609 202.56638672 45.33544922 202.01123047 C57.47180294 194.15713489 69.55805119 191.64404297 83.92529297 191.64404297 C83.92529297 226.62404297 83.92529297 261.60404297 83.92529297 297.64404297 C85.90529297 296.98404297 87.88529297 296.32404297 89.92529297 295.64404297 C92.08670182 295.18126607 94.25391348 294.74501827 96.42529297 294.33154297 C112.4100226 290.94338412 128.51299855 284.7762203 140.28857422 273.11279297 C141.92529297 271.64404297 141.92529297 271.64404297 143.92529297 271.64404297 C144.16892578 271.09232422 144.41255859 270.54060547 144.66357422 269.97216797 C146.18930566 267.15688642 148.09483084 264.88089475 150.11279297 262.39404297 C165.682394 242.18220189 166.53994255 218.08029249 166.53279781 193.56817007 C166.53597039 189.97270522 166.56167669 186.37739501 166.58477783 182.78201294 C166.62501411 176.00399806 166.6456014 169.22607857 166.65875173 162.44796288 C166.67473287 154.71846649 166.71319378 146.98912995 166.75334501 139.25972724 C166.83529974 123.38788028 166.88966773 107.51606576 166.92529297 91.64404297 C169.45896525 92.90588534 171.99208294 94.16882078 174.52490234 95.43237305 C175.58907379 95.9621513 175.58907379 95.9621513 176.67474365 96.50263214 C182.99238953 99.65612459 189.22091326 102.96078767 195.42529297 106.33154297 C196.53348389 106.93111816 197.6416748 107.53069336 198.78344727 108.1484375 C201.06355847 109.38241054 203.34310488 110.61742779 205.62207031 111.85351562 C208.71709534 113.53118847 211.8147561 115.20385799 214.91357422 116.87451172 C225.42882387 122.5480684 235.91873577 128.26740995 246.38632202 134.02838135 C247.64089928 134.7187119 248.89579142 135.40847059 250.15103149 136.09759521 C271.6552137 147.90873247 289.59246098 159.28198147 297.96044922 183.65966797 C301.35920091 196.24295331 301.55840238 210.38211885 296.92529297 222.64404297 C296.57337891 223.62759766 296.22146484 224.61115234 295.85888672 225.62451172 C293.1292215 232.73245184 289.55637826 238.62471666 284.92529297 244.64404297 C283.84248047 246.15998047 283.84248047 246.15998047 282.73779297 247.70654297 C271.22226364 260.83571335 252.81105915 268.29892193 237.44091797 275.85888672 C232.6514469 278.29087369 227.97606027 280.90936553 223.29101562 283.53540039 C216.94945639 287.08691152 210.56995614 290.56414287 204.17529297 294.01904297 C196.45763054 298.18968044 188.74764876 302.37354285 181.05029297 306.58154297 C172.94379634 311.01211185 164.81397953 315.39791757 156.67529297 319.76904297 C149.43822092 323.65655264 142.21767596 327.56693319 135.05029297 331.58154297 C126.7848994 336.21117276 118.4305791 340.67186284 110.07330322 345.13253784 C102.29484131 349.28557647 94.54974175 353.48847526 86.85961914 357.80297852 C79.43542061 361.95142191 71.92045963 365.92957339 64.41470337 369.92764282 C56.24782332 374.28197176 48.14885773 378.73910907 40.11279297 383.33154297 C31.67767913 388.14867967 23.14323296 392.72326571 14.51171875 397.17797852 C6.70261246 401.21391234 -1.02147037 405.39281443 -8.71948242 409.63647461 C-22.98521919 417.48418826 -22.98521919 417.48418826 -28.76220703 419.33154297 C-29.46732422 419.56228516 -30.17244141 419.79302734 -30.89892578 420.03076172 C-37.20614391 421.80855929 -43.24799015 421.86228567 -49.76220703 421.89404297 C-51.3197168 421.92498047 -51.3197168 421.92498047 -52.90869141 421.95654297 C-59.83478044 421.99128197 -65.57700557 421.00938587 -72.07470703 418.64404297 C-73.11240234 418.30244141 -74.15009766 417.96083984 -75.21923828 417.60888672 C-91.77377582 411.23429906 -104.35338799 398.47150284 -112.07470703 382.64404297 C-118.5128963 367.71726214 -117.78974226 352.06300224 -117.71367133 336.13139439 C-117.70016647 332.14500725 -117.71578062 328.15871099 -117.72749329 324.17233276 C-117.74577546 316.38635017 -117.73742193 308.60062021 -117.71940506 300.81464574 C-117.70532569 294.48362329 -117.70149767 288.15266899 -117.70484734 281.82163239 C-117.70532478 280.91737062 -117.70580222 280.01310886 -117.70629413 279.08144523 C-117.70732055 277.2439698 -117.70837591 275.40649439 -117.70945989 273.56901899 C-117.71800737 257.35895067 -117.70141341 241.14900364 -117.67163086 224.93896484 C-117.64277908 209.23513703 -117.63572152 193.53148379 -117.65112305 177.82763672 C-117.6679067 160.69126664 -117.67189885 143.55497925 -117.65441269 126.418607 C-117.65256845 124.58946817 -117.65073372 122.76032934 -117.64890862 120.93119049 C-117.64799653 120.03140637 -117.64708444 119.13162225 -117.64614471 118.20457195 C-117.64055423 111.88409602 -117.64383238 105.56366066 -117.65045357 99.24318695 C-117.65820687 91.53677102 -117.65136194 83.83052652 -117.62627853 76.124145 C-117.61383186 72.19736418 -117.60757791 68.27084962 -117.61882019 64.34405899 C-117.62893854 60.74170303 -117.62024392 57.13987549 -117.59723901 53.53758326 C-117.58972284 51.63427047 -117.60155751 49.73091068 -117.61434275 47.82762599 C-117.4435578 29.9269547 -109.90869405 14.22748523 -97.37548828 1.65966797 C-67.98442846 -26.12441129 -31.69257861 -17.95286629 0 0 Z " fill="#FEFEFD" transform="translate(166.07470703125,53.35595703125)"/>
<path d="M0 0 C2.765625 0.05859375 2.765625 0.05859375 6 1 C7.60723424 3.43232204 8.66542476 5.41216473 9.75 8.0625 C10.04003906 8.70638672 10.33007812 9.35027344 10.62890625 10.01367188 C14.35824808 18.55369438 15.3222853 26.19100493 15.25 35.4375 C15.25773437 36.42298828 15.26546875 37.40847656 15.2734375 38.42382812 C15.25719933 44.54967771 14.62903158 50.09607184 13 56 C12.62681641 57.39992188 12.62681641 57.39992188 12.24609375 58.828125 C6.82646223 75.06083775 -5.26379841 87.82970958 -20.26171875 95.71484375 C-22.02941572 96.58780496 -23.79732025 97.46042758 -25.5715332 98.32006836 C-30.14003446 100.53835992 -34.53185768 102.98088391 -38.92285156 105.53588867 C-46.16430469 109.71777906 -53.55090537 113.6313519 -60.91894531 117.58422852 C-68.84753465 121.83846946 -76.75463621 126.12970366 -84.64794922 130.44897461 C-89.6637309 133.19011524 -94.68936494 135.91166763 -99.7265625 138.61328125 C-100.87382812 139.22880859 -102.02109375 139.84433594 -103.203125 140.47851562 C-105.40781716 141.66014002 -107.61347361 142.83996789 -109.8203125 144.01757812 C-116.00098187 147.33032326 -122.08372663 150.77348412 -128.12841797 154.32788086 C-132.45543611 156.84749889 -136.84710141 159.24122017 -141.25 161.625 C-142.17530518 162.12789551 -143.10061035 162.63079102 -144.05395508 163.14892578 C-147.03479421 164.76812857 -150.01721519 166.3843845 -153 168 C-154.04526855 168.56654297 -155.09053711 169.13308594 -156.16748047 169.71679688 C-160.3164415 171.96549455 -164.46555233 174.2139096 -168.61621094 176.45947266 C-173.20123051 178.94006149 -177.78253225 181.42688674 -182.35546875 183.9296875 C-186.42386715 186.15118286 -190.50796792 188.3409121 -194.6015625 190.515625 C-211.31232131 199.37287226 -211.31232131 199.37287226 -227.67431641 208.85449219 C-231.42929038 211.12550693 -235.23857629 213.1661129 -239.17822266 215.09985352 C-241.42680653 216.21088658 -243.62001492 217.40736774 -245.8125 218.625 C-249.23007768 220.50490213 -252.66089835 222.35241086 -256.12109375 224.15234375 C-266.13408666 229.36233877 -276.01369144 234.76620697 -285.81933594 240.35766602 C-288.54305466 241.91078686 -291.27029753 243.45742169 -294 245 C-294.95624268 245.54229248 -295.91248535 246.08458496 -296.89770508 246.64331055 C-305.95607785 251.69884207 -315.51696641 255.55232597 -326 256 C-327.01320313 256.0515625 -328.02640625 256.103125 -329.0703125 256.15625 C-347.20117133 256.64298447 -364.19518151 252.0216961 -378 240 C-378.99 239.278125 -379.98 238.55625 -381 237.8125 C-386.66468353 233.04140035 -393.16299636 225.46442587 -394 218 C-391.45711478 219.4966176 -388.9668258 221.0225878 -386.52734375 222.68359375 C-379.94158321 227.14363369 -373.60517944 229.7805078 -366 232 C-365.13503906 232.35964844 -364.27007812 232.71929687 -363.37890625 233.08984375 C-358.34477402 234.44585856 -353.43922792 234.28824984 -348.25 234.25 C-347.21617187 234.25773438 -346.18234375 234.26546875 -345.1171875 234.2734375 C-335.70474538 234.24972858 -327.55066803 233.21992219 -319.125 228.8125 C-318.47337891 228.47500732 -317.82175781 228.13751465 -317.15039062 227.78979492 C-314.75823986 226.54240543 -312.37908069 225.27214118 -310 224 C-308.98518555 223.46117187 -307.97037109 222.92234375 -306.92480469 222.3671875 C-299.17956679 218.25330858 -291.45525948 214.10157205 -283.73736572 209.93670654 C-281.0491769 208.48736055 -278.35835164 207.04292433 -275.66796875 205.59765625 C-265.90167442 200.34034124 -256.19542493 194.99805289 -246.5625 189.5 C-237.49265747 184.32603873 -228.29068863 179.45643903 -219.00878906 174.67504883 C-208.62335571 169.31684997 -198.39268219 163.70341119 -188.27734375 157.8515625 C-182.67441566 154.6109915 -177.06004663 151.48338303 -171.25 148.625 C-165.18558855 145.63985734 -159.28307738 142.42772545 -153.38916016 139.12036133 C-146.83780301 135.44871405 -140.23654139 131.87444496 -133.625 128.3125 C-127.48675143 125.00376446 -121.36825711 121.69050724 -115.375 118.125 C-111.5536874 115.85316624 -107.68356489 113.8233772 -103.6875 111.875 C-95.22895659 107.71567215 -87.09215277 103.01197292 -78.90234375 98.3515625 C-67.95825478 92.1249076 -57.00275194 85.90577337 -45.6875 80.375 C-24.08811318 69.72849373 -9.39639016 57.59436212 -1.25 34.125 C0.73660528 28.04968385 1.15628133 22.47511057 1.125 16.125 C1.12886719 15.34769531 1.13273437 14.57039062 1.13671875 13.76953125 C1.12883117 9.07641994 0.77762682 4.62873105 0 0 Z " fill="#E97354" transform="translate(464,240)"/>
<path d="M0 0 C0.99 0.495 0.99 0.495 2 1 C1.319375 1.763125 0.63875 2.52625 -0.0625 3.3125 C-1.0215625 4.6428125 -1.0215625 4.6428125 -2 6 C-1.505 7.485 -1.505 7.485 -1 9 C-1.969375 9.28875 -2.93875 9.5775 -3.9375 9.875 C-7.10664203 10.64214682 -7.10664203 10.64214682 -8 13 C-11.96942353 15.80764104 -16.11317185 18.32468209 -20.265625 20.8515625 C-22.14790114 22.01511482 -22.14790114 22.01511482 -24 24 C-24.99 24 -25.98 24 -27 24 C-28.6825613 25.31321858 -30.34997172 26.64613064 -32 28 C-32.66 28 -33.32 28 -34 28 C-34.33 28.66 -34.66 29.32 -35 30 C-36.33076989 30.34342449 -37.66431979 30.67619874 -39 31 C-39.66 31.66 -40.32 32.32 -41 33 C-42.32 33 -43.64 33 -45 33 C-45.33 33.66 -45.66 34.32 -46 35 C-47.32 35 -48.64 35 -50 35 C-52.0302589 35.93704257 -54.03696582 36.92925408 -56 38 C-56.33 36.68 -56.66 35.36 -57 34 C-58.65 34.66 -60.3 35.32 -62 36 C-62.33 35.34 -62.66 34.68 -63 34 C-62.4237085 33.70456299 -61.84741699 33.40912598 -61.25366211 33.10473633 C-50.09615912 27.370332 -39.023597 21.52698388 -28.125 15.3125 C-21.17751248 11.35711262 -14.22565632 7.41740462 -7.1875 3.625 C-6.48189941 3.23739502 -5.77629883 2.84979004 -5.04931641 2.45043945 C-3.39845815 1.57027199 -1.70263269 0.77528683 0 0 Z " fill="#E78553" transform="translate(235,420)"/>
<path d="M0 0 C-0.99 2.31 -1.98 4.62 -3 7 C-3.33 6.34 -3.66 5.68 -4 5 C-4.66 5 -5.32 5 -6 5 C-6.33 5.66 -6.66 6.32 -7 7 C-7.33 6.34 -7.66 5.68 -8 5 C-8.66 5.66 -9.32 6.32 -10 7 C-10.99 6.67 -11.98 6.34 -13 6 C-13.99 6.33 -14.98 6.66 -16 7 C-18.6875 6.0625 -18.6875 6.0625 -21 5 C-21.33 5.66 -21.66 6.32 -22 7 C-22 6.34 -22 5.68 -22 5 C-24.64 4.67 -27.28 4.34 -30 4 C-30.33 4.66 -30.66 5.32 -31 6 C-31 5.34 -31 4.68 -31 4 C-31.66 3.67 -32.32 3.34 -33 3 C-33 2.34 -33 1.68 -33 1 C-32.29915283 0.97494385 -31.59830566 0.9498877 -30.8762207 0.92407227 C-27.68814512 0.80773455 -24.50033758 0.68517956 -21.3125 0.5625 C-19.65831055 0.50352539 -19.65831055 0.50352539 -17.97070312 0.44335938 C-16.3706543 0.38051758 -16.3706543 0.38051758 -14.73828125 0.31640625 C-13.26935425 0.26141968 -13.26935425 0.26141968 -11.77075195 0.20532227 C-8.99373777 0.05740245 -8.99373777 0.05740245 -6.28588867 -0.54711914 C-3.81715875 -1.03622456 -2.36289059 -0.7876302 0 0 Z " fill="#E79558" transform="translate(137,474)"/>
<path d="M0 0 C4.80601986 2.79059218 9.39218947 5.8980099 14 9 C13.01 9.99 12.02 10.98 11 12 C11 11.34 11 10.68 11 10 C9.68 10.99 8.36 11.98 7 13 C5.82479354 11.40207898 4.66008753 9.79643092 3.5 8.1875 C2.8503125 7.29417969 2.200625 6.40085937 1.53125 5.48046875 C0 3 0 3 0 0 Z " fill="#E5924A" transform="translate(70,458)"/>
<path d="M0 0 C5.94 0.33 11.88 0.66 18 1 C18 2.65 18 4.3 18 6 C16.02 5.34 14.04 4.68 12 4 C11.67 4.66 11.34 5.32 11 6 C11 5.34 11 4.68 11 4 C8.36 3.67 5.72 3.34 3 3 C2.67 3.66 2.34 4.32 2 5 C2 4.34 2 3.68 2 3 C1.34 2.67 0.68 2.34 0 2 C0 1.34 0 0.68 0 0 Z " fill="#E58D45" transform="translate(104,475)"/>
<path d="M0 0 C0.66 0.33 1.32 0.66 2 1 C1.67 1.66 1.34 2.32 1 3 C0.34 3 -0.32 3 -1 3 C-0.67 3.99 -0.34 4.98 0 6 C-0.33 6.66 -0.66 7.32 -1 8 C-1.86625 8.2475 -2.7325 8.495 -3.625 8.75 C-7.93410693 10.34596553 -10.68995214 12.88581296 -14 16 C-14.66 15.67 -15.32 15.34 -16 15 C-13.89888324 12.87190742 -11.79429065 10.74746285 -9.6875 8.625 C-9.09259766 8.02171875 -8.49769531 7.4184375 -7.88476562 6.796875 C-7.30791016 6.21679688 -6.73105469 5.63671875 -6.13671875 5.0390625 C-5.60780029 4.50490723 -5.07888184 3.97075195 -4.53393555 3.42041016 C-3 2 -3 2 0 0 Z " fill="#E27626" transform="translate(135,125)"/>
<path d="M0 0 C-0.99 1.65 -1.98 3.3 -3 5 C-6.875 4.125 -6.875 4.125 -8 3 C-8.639375 3.165 -9.27875 3.33 -9.9375 3.5 C-12 4 -12 4 -14 3 C-14.33 3.66 -14.66 4.32 -15 5 C-15.99 4.34 -16.98 3.68 -18 3 C-15.75376301 2.30030318 -13.50283586 1.61564957 -11.25 0.9375 C-9.99703125 0.55464844 -8.7440625 0.17179687 -7.453125 -0.22265625 C-4.3261992 -0.92656828 -2.90533954 -1.16653785 0 0 Z " fill="#E06A22" transform="translate(174,111)"/>
<path d="M0 0 C0.66 0.33 1.32 0.66 2 1 C2 1.99 2 2.98 2 4 C-0.25 5.125 -0.25 5.125 -3 6 C-5.3125 5.125 -5.3125 5.125 -7 4 C-1.7265625 0.77734375 -1.7265625 0.77734375 0 0 Z " fill="#E35D12" transform="translate(193,471)"/>
<path d="M0 0 C0.99 0.33 1.98 0.66 3 1 C2.67 1.99 2.34 2.98 2 4 C1.01 4.33 0.02 4.66 -1 5 C-1.33 3.68 -1.66 2.36 -2 1 C-1.34 0.67 -0.68 0.34 0 0 Z M-3 5 C-2.34 5 -1.68 5 -1 5 C-1.33 5.66 -1.66 6.32 -2 7 C-2.33 6.34 -2.66 5.68 -3 5 Z M-5 6 C-4.34 6 -3.68 6 -3 6 C-3.33 6.66 -3.66 7.32 -4 8 C-4.33 7.34 -4.66 6.68 -5 6 Z M-7 7 C-6.34 7 -5.68 7 -5 7 C-5.33 7.66 -5.66 8.32 -6 9 C-6.33 8.34 -6.66 7.68 -7 7 Z " fill="#E77C4E" transform="translate(235,424)"/>
<path d="M0 0 C0.66 0.33 1.32 0.66 2 1 C-2.625 5.875 -2.625 5.875 -6 7 C-6.99 6.34 -7.98 5.68 -9 5 C-7.54735962 4.1361871 -6.0876837 3.28419546 -4.625 2.4375 C-3.40683594 1.72400391 -3.40683594 1.72400391 -2.1640625 0.99609375 C-1.44992188 0.66738281 -0.73578125 0.33867187 0 0 Z " fill="#E68E68" transform="translate(235,420)"/>
<path d="M0 0 C5.94 1.485 5.94 1.485 12 3 C11.01 3.99 10.02 4.98 9 6 C7.02 5.34 5.04 4.68 3 4 C3 3.34 3 2.68 3 2 C2.01 1.67 1.02 1.34 0 1 C0 0.67 0 0.34 0 0 Z " fill="#E69B5F" transform="translate(92,471)"/>
<path d="M0 0 C1.32 0.66 2.64 1.32 4 2 C-0.95 4.475 -0.95 4.475 -6 7 C-4.11656068 3.23312136 -3.30867531 2.20578354 0 0 Z " fill="#E16525" transform="translate(212,252)"/>
<path d="M0 0 C0.66 0.33 1.32 0.66 2 1 C1.67 1.66 1.34 2.32 1 3 C0.34 3 -0.32 3 -1 3 C-0.67 2.01 -0.34 1.02 0 0 Z M-2 3 C-1.34 3.99 -0.68 4.98 0 6 C-0.33 6.66 -0.66 7.32 -1 8 C-3.0625 8.625 -3.0625 8.625 -5 9 C-5 6 -5 6 -3.5 4.3125 C-2.7575 3.6628125 -2.7575 3.6628125 -2 3 Z " fill="#E16910" transform="translate(135,125)"/>
</svg>
